<?xml version="1.0" encoding="UTF-8" standalone="no"?><svg xmlns="http://www.w3.org/2000/svg" xmlns:xlink="http://www.w3.org/1999/xlink" clip-rule="evenodd" stroke-miterlimit="10" viewBox="0 0 1920 1080"><desc>SVG generated by Keynote</desc><defs></defs><g transform="matrix(1.00, 0.00, -0.00, -1.00, 0.0, 1080.0)"><path d="M 0.0 1080.0 L 1920.0 1080.0 L 1920.0 0.0 L 0.0 0.0 Z M 0.0 1080.0 " fill="#FEFFFF"></path><text xml:space="preserve" font-family="Helvetica-Light,Helvetica" font-size="112.0" fill="#000000" transform="matrix(1.00, 0.00, -0.00, -1.00, 560.6, 873.8)">A</text><text xml:space="preserve" font-family="Helvetica-Light,Helvetica" font-size="112.0" fill="#000000" transform="matrix(1.00, 0.00, -0.00, -1.00, 635.3, 873.8)">r</text><text xml:space="preserve" font-family="Helvetica-Light,Helvetica" font-size="112.0" fill="#000000" transform="matrix(1.00, 0.00, -0.00, -1.00, 672.6, 873.8)">r</text><text xml:space="preserve" font-family="Helvetica-Light,Helvetica" font-size="112.0" fill="#000000" transform="matrix(1.00, 0.00, -0.00, -1.00, 709.9, 873.8)">a</text><text xml:space="preserve" font-family="Helvetica-Light,Helvetica" font-size="112.0" fill="#000000" transform="matrix(1.00, 0.00, -0.00, -1.00, 772.2, 873.8)">y</text><text xml:space="preserve" font-family="Helvetica-Light,Helvetica" font-size="112.0" fill="#000000" transform="matrix(1.00, 0.00, -0.00, -1.00, 828.2, 873.8)"> </text><text xml:space="preserve" font-family="Helvetica-Light,Helvetica" font-size="112.0" fill="#000000" transform="matrix(1.00, 0.00, -0.00, -1.00, 859.3, 873.8)">I</text><text xml:space="preserve" font-family="Helvetica-Light,Helvetica" font-size="112.0" fill="#000000" transform="matrix(1.00, 0.00, -0.00, -1.00, 890.4, 873.8)">n</text><text xml:space="preserve" font-family="Helvetica-Light,Helvetica" font-size="112.0" fill="#000000" transform="matrix(1.00, 0.00, -0.00, -1.00, 952.7, 873.8)">t</text><text xml:space="preserve" font-family="Helvetica-Light,Helvetica" font-size="112.0" fill="#000000" transform="matrix(1.00, 0.00, -0.00, -1.00, 983.9, 873.8)">e</text><text xml:space="preserve" font-family="Helvetica-Light,Helvetica" font-size="112.0" fill="#000000" transform="matrix(1.00, 0.00, -0.00, -1.00, 1046.1, 873.8)">r</text><text xml:space="preserve" font-family="Helvetica-Light,Helvetica" font-size="112.0" fill="#000000" transform="matrix(1.00, 0.00, -0.00, -1.00, 1085.4, 873.8)">f</text><text xml:space="preserve" font-family="Helvetica-Light,Helvetica" font-size="112.0" fill="#000000" transform="matrix(1.00, 0.00, -0.00, -1.00, 1116.6, 873.8)">a</text><text xml:space="preserve" font-family="Helvetica-Light,Helvetica" font-size="112.0" fill="#000000" transform="matrix(1.00, 0.00, -0.00, -1.00, 1178.8, 873.8)">c</text><text xml:space="preserve" font-family="Helvetica-Light,Helvetica" font-size="112.0" fill="#000000" transform="matrix(1.00, 0.00, -0.00, -1.00, 1241.1, 873.8)">e</text><text xml:space="preserve" font-family="Helvetica-Light,Helvetica" font-size="112.0" fill="#000000" transform="matrix(1.00, 0.00, -0.00, -1.00, 1303.4, 873.8)">s</text><text xml:space="preserve" font-family="Menlo-Bold,Menlo" font-weight="bold" font-size="56.0" fill="#011892" transform="matrix(1.00, 0.00, -0.00, -1.00, 487.5, 605.2)">i</text><text xml:space="preserve" font-family="Menlo-Bold,Menlo" font-weight="bold" font-size="56.0" fill="#011892" transform="matrix(1.00, 0.00, -0.00, -1.00, 521.2, 605.2)">n</text><text xml:space="preserve" font-family="Menlo-Bold,Menlo" font-weight="bold" font-size="56.0" fill="#011892" transform="matrix(1.00, 0.00, -0.00, -1.00, 554.9, 605.2)">t</text><text xml:space="preserve" font-family="Menlo-Bold,Menlo" font-weight="bold" font-size="56.0" fill="#011892" transform="matrix(1.00, 0.00, -0.00, -1.00, 588.7, 605.2)">e</text><text xml:space="preserve" font-family="Menlo-Bold,Menlo" font-weight="bold" font-size="56.0" fill="#011892" transform="matrix(1.00, 0.00, -0.00, -1.00, 622.4, 605.2)">r</text><text xml:space="preserve" font-family="Menlo-Bold,Menlo" font-weight="bold" font-size="56.0" fill="#011892" transform="matrix(1.00, 0.00, -0.00, -1.00, 656.1, 605.2)">f</text><text xml:space="preserve" font-family="Menlo-Bold,Menlo" font-weight="bold" font-size="56.0" fill="#011892" transform="matrix(1.00, 0.00, -0.00, -1.00, 689.8, 605.2)">a</text><text xml:space="preserve" font-family="Menlo-Bold,Menlo" font-weight="bold" font-size="56.0" fill="#011892" transform="matrix(1.00, 0.00, -0.00, -1.00, 723.5, 605.2)">c</text><text xml:space="preserve" font-family="Menlo-Bold,Menlo" font-weight="bold" font-size="56.0" fill="#011892" transform="matrix(1.00, 0.00, -0.00, -1.00, 757.3, 605.2)">e</text><text xml:space="preserve" font-family="Menlo-Bold,Menlo" font-weight="bold" font-size="56.0" fill="#011892" transform="matrix(1.00, 0.00, -0.00, -1.00, 791.0, 605.2)"> </text><text xml:space="preserve" font-family="Menlo-Regular,Menlo" font-size="56.0" fill="#000000" transform="matrix(1.00, 0.00, -0.00, -1.00, 824.6, 605.2)">S</text><text xml:space="preserve" font-family="Menlo-Regular,Menlo" font-size="56.0" fill="#000000" transform="matrix(1.00, 0.00, -0.00, -1.00, 858.4, 605.2)">t</text><text xml:space="preserve" font-family="Menlo-Regular,Menlo" font-size="56.0" fill="#000000" transform="matrix(1.00, 0.00, -0.00, -1.00, 892.1, 605.2)">r</text><text xml:space="preserve" font-family="Menlo-Regular,Menlo" font-size="56.0" fill="#000000" transform="matrix(1.00, 0.00, -0.00, -1.00, 925.8, 605.2)">i</text><text xml:space="preserve" font-family="Menlo-Regular,Menlo" font-size="56.0" fill="#000000" transform="matrix(1.00, 0.00, -0.00, -1.00, 959.5, 605.2)">n</text><text xml:space="preserve" font-family="Menlo-Regular,Menlo" font-size="56.0" fill="#000000" transform="matrix(1.00, 0.00, -0.00, -1.00, 993.2, 605.2)">g</text><text xml:space="preserve" font-family="Menlo-Regular,Menlo" font-size="56.0" fill="#000000" transform="matrix(1.00, 0.00, -0.00, -1.00, 1027.0, 605.2)">A</text><text xml:space="preserve" font-family="Menlo-Regular,Menlo" font-size="56.0" fill="#000000" transform="matrix(1.00, 0.00, -0.00, -1.00, 1060.7, 605.2)">r</text><text xml:space="preserve" font-family="Menlo-Regular,Menlo" font-size="56.0" fill="#000000" transform="matrix(1.00, 0.00, -0.00, -1.00, 1094.4, 605.2)">r</text><text xml:space="preserve" font-family="Menlo-Regular,Menlo" font-size="56.0" fill="#000000" transform="matrix(1.00, 0.00, -0.00, -1.00, 1128.1, 605.2)">a</text><text xml:space="preserve" font-family="Menlo-Regular,Menlo" font-size="56.0" fill="#000000" transform="matrix(1.00, 0.00, -0.00, -1.00, 1161.8, 605.2)">y</text><text xml:space="preserve" font-family="Menlo-Regular,Menlo" font-size="56.0" fill="#000000" transform="matrix(1.00, 0.00, -0.00, -1.00, 1195.6, 605.2)"> </text><text xml:space="preserve" font-family="Menlo-Regular,Menlo" font-size="56.0" fill="#000000" transform="matrix(1.00, 0.00, -0.00, -1.00, 1229.3, 605.2)">{</text><text xml:space="preserve" font-family="Monaco,Monaco" font-size="56.0" fill="#000000" transform="matrix(1.00, 0.00, -0.00, -1.00, 1262.9, 605.2)"> </text><text xml:space="preserve" font-family="Menlo-Regular,Menlo" font-size="56.0" fill="#000000" transform="matrix(1.00, 0.00, -0.00, -1.00, 487.5, 540.2)"> </text><text xml:space="preserve" font-family="Menlo-Regular,Menlo" font-size="56.0" fill="#000000" transform="matrix(1.00, 0.00, -0.00, -1.00, 521.2, 540.2)"> </text><text xml:space="preserve" font-family="Menlo-Regular,Menlo" font-size="56.0" fill="#000000" transform="matrix(1.00, 0.00, -0.00, -1.00, 554.9, 540.2)"> </text><text xml:space="preserve" font-family="Menlo-Regular,Menlo" font-size="56.0" fill="#000000" transform="matrix(1.00, 0.00, -0.00, -1.00, 588.7, 540.2)"> </text><text xml:space="preserve" font-family="Menlo-Regular,Menlo" font-size="56.0" fill="#000000" transform="matrix(1.00, 0.00, -0.00, -1.00, 622.4, 540.2)">[</text><text xml:space="preserve" font-family="Menlo-Regular,Menlo" font-size="56.0" fill="#000000" transform="matrix(1.00, 0.00, -0.00, -1.00, 656.1, 540.2)">i</text><text xml:space="preserve" font-family="Menlo-Regular,Menlo" font-size="56.0" fill="#000000" transform="matrix(1.00, 0.00, -0.00, -1.00, 689.8, 540.2)">n</text><text xml:space="preserve" font-family="Menlo-Regular,Menlo" font-size="56.0" fill="#000000" transform="matrix(1.00, 0.00, -0.00, -1.00, 723.5, 540.2)">d</text><text xml:space="preserve" font-family="Menlo-Regular,Menlo" font-size="56.0" fill="#000000" transform="matrix(1.00, 0.00, -0.00, -1.00, 757.3, 540.2)">e</text><text xml:space="preserve" font-family="Menlo-Regular,Menlo" font-size="56.0" fill="#000000" transform="matrix(1.00, 0.00, -0.00, -1.00, 791.0, 540.2)">x</text><text xml:space="preserve" font-family="Menlo-Regular,Menlo" font-size="56.0" fill="#000000" transform="matrix(1.00, 0.00, -0.00, -1.00, 824.7, 540.2)">:</text><text xml:space="preserve" font-family="Menlo-Regular,Menlo" font-size="56.0" fill="#000000" transform="matrix(1.00, 0.00, -0.00, -1.00, 858.4, 540.2)"> </text><text xml:space="preserve" font-family="Menlo-Bold,Menlo" font-weight="bold" font-size="56.0" fill="#011892" transform="matrix(1.00, 0.00, -0.00, -1.00, 892.1, 540.2)">n</text><text xml:space="preserve" font-family="Menlo-Bold,Menlo" font-weight="bold" font-size="56.0" fill="#011892" transform="matrix(1.00, 0.00, -0.00, -1.00, 925.8, 540.2)">u</text><text xml:space="preserve" font-family="Menlo-Bold,Menlo" font-weight="bold" font-size="56.0" fill="#011892" transform="matrix(1.00, 0.00, -0.00, -1.00, 959.5, 540.2)">m</text><text xml:space="preserve" font-family="Menlo-Bold,Menlo" font-weight="bold" font-size="56.0" fill="#011892" transform="matrix(1.00, 0.00, -0.00, -1.00, 993.2, 540.2)">b</text><text xml:space="preserve" font-family="Menlo-Bold,Menlo" font-weight="bold" font-size="56.0" fill="#011892" transform="matrix(1.00, 0.00, -0.00, -1.00, 1027.0, 540.2)">e</text><text xml:space="preserve" font-family="Menlo-Bold,Menlo" font-weight="bold" font-size="56.0" fill="#011892" transform="matrix(1.00, 0.00, -0.00, -1.00, 1060.7, 540.2)">r</text><text xml:space="preserve" font-family="Menlo-Regular,Menlo" font-size="56.0" fill="#000000" transform="matrix(1.00, 0.00, -0.00, -1.00, 1094.4, 540.2)">]</text><text xml:space="preserve" font-family="Menlo-Regular,Menlo" font-size="56.0" fill="#000000" transform="matrix(1.00, 0.00, -0.00, -1.00, 1128.1, 540.2)">:</text><text xml:space="preserve" font-family="Menlo-Regular,Menlo" font-size="56.0" fill="#000000" transform="matrix(1.00, 0.00, -0.00, -1.00, 1161.8, 540.2)"> </text><text xml:space="preserve" font-family="Menlo-Bold,Menlo" font-weight="bold" font-size="56.0" fill="#011892" transform="matrix(1.00, 0.00, -0.00, -1.00, 1195.5, 540.2)">s</text><text xml:space="preserve" font-family="Menlo-Bold,Menlo" font-weight="bold" font-size="56.0" fill="#011892" transform="matrix(1.00, 0.00, -0.00, -1.00, 1229.2, 540.2)">t</text><text xml:space="preserve" font-family="Menlo-Bold,Menlo" font-weight="bold" font-size="56.0" fill="#011892" transform="matrix(1.00, 0.00, -0.00, -1.00, 1262.9, 540.2)">r</text><text xml:space="preserve" font-family="Menlo-Bold,Menlo" font-weight="bold" font-size="56.0" fill="#011892" transform="matrix(1.00, 0.00, -0.00, -1.00, 1296.7, 540.2)">i</text><text xml:space="preserve" font-family="Menlo-Bold,Menlo" font-weight="bold" font-size="56.0" fill="#011892" transform="matrix(1.00, 0.00, -0.00, -1.00, 1330.4, 540.2)">n</text><text xml:space="preserve" font-family="Menlo-Bold,Menlo" font-weight="bold" font-size="56.0" fill="#011892" transform="matrix(1.00, 0.00, -0.00, -1.00, 1364.1, 540.2)">g</text><text xml:space="preserve" font-family="Menlo-Regular,Menlo" font-size="56.0" fill="#D68B40" transform="matrix(1.00, 0.00, -0.00, -1.00, 1397.8, 540.2)">;</text><text xml:space="preserve" font-family="Monaco,Monaco" font-size="56.0" fill="#D68B40" transform="matrix(1.00, 0.00, -0.00, -1.00, 1431.5, 540.2)"> </text><text xml:space="preserve" font-family="Menlo-Regular,Menlo" font-size="56.0" fill="#000000" transform="matrix(1.00, 0.00, -0.00, -1.00, 487.5, 475.2)">}</text><text xml:space="preserve" font-family="Monaco,Monaco" font-size="56.0" fill="#000000" transform="matrix(1.00, 0.00, -0.00, -1.00, 521.2, 475.2)"> </text><text xml:space="preserve" font-family="Monaco,Monaco" font-size="56.0" fill="#000000" transform="matrix(1.00, 0.00, -0.00, -1.00, 487.5, 410.2)"> </text><text xml:space="preserve" font-family="Menlo-Bold,Menlo" font-weight="bold" font-size="56.0" fill="#011892" transform="matrix(1.00, 0.00, -0.00, -1.00, 487.5, 345.2)">v</text><text xml:space="preserve" font-family="Menlo-Bold,Menlo" font-weight="bold" font-size="56.0" fill="#011892" transform="matrix(1.00, 0.00, -0.00, -1.00, 521.2, 345.2)">a</text><text xml:space="preserve" font-family="Menlo-Bold,Menlo" font-weight="bold" font-size="56.0" fill="#011892" transform="matrix(1.00, 0.00, -0.00, -1.00, 554.9, 345.2)">r</text><text xml:space="preserve" font-family="Menlo-Bold,Menlo" font-weight="bold" font-size="56.0" fill="#011892" transform="matrix(1.00, 0.00, -0.00, -1.00, 588.7, 345.2)"> </text><text xml:space="preserve" font-family="Menlo-BoldItalic,Menlo" font-style="italic" font-weight="bold" font-size="56.0" fill="#7A238C" transform="matrix(1.00, 0.00, -0.00, -1.00, 622.4, 345.2)">m</text><text xml:space="preserve" font-family="Menlo-BoldItalic,Menlo" font-style="italic" font-weight="bold" font-size="56.0" fill="#7A238C" transform="matrix(1.00, 0.00, -0.00, -1.00, 656.1, 345.2)">y</text><text xml:space="preserve" font-family="Menlo-BoldItalic,Menlo" font-style="italic" font-weight="bold" font-size="56.0" fill="#7A238C" transform="matrix(1.00, 0.00, -0.00, -1.00, 689.8, 345.2)">A</text><text xml:space="preserve" font-family="Menlo-BoldItalic,Menlo" font-style="italic" font-weight="bold" font-size="56.0" fill="#7A238C" transform="matrix(1.00, 0.00, -0.00, -1.00, 723.5, 345.2)">r</text><text xml:space="preserve" font-family="Menlo-BoldItalic,Menlo" font-style="italic" font-weight="bold" font-size="56.0" fill="#7A238C" transform="matrix(1.00, 0.00, -0.00, -1.00, 757.2, 345.2)">r</text><text xml:space="preserve" font-family="Menlo-BoldItalic,Menlo" font-style="italic" font-weight="bold" font-size="56.0" fill="#7A238C" transform="matrix(1.00, 0.00, -0.00, -1.00, 791.0, 345.2)">a</text><text xml:space="preserve" font-family="Menlo-BoldItalic,Menlo" font-style="italic" font-weight="bold" font-size="56.0" fill="#7A238C" transform="matrix(1.00, 0.00, -0.00, -1.00, 824.7, 345.2)">y</text><text xml:space="preserve" font-family="Menlo-Regular,Menlo" font-size="56.0" fill="#000000" transform="matrix(1.00, 0.00, -0.00, -1.00, 858.4, 345.2)">:</text><text xml:space="preserve" font-family="Menlo-Regular,Menlo" font-size="56.0" fill="#000000" transform="matrix(1.00, 0.00, -0.00, -1.00, 892.1, 345.2)"> </text><text xml:space="preserve" font-family="Menlo-Regular,Menlo" font-size="56.0" fill="#000000" transform="matrix(1.00, 0.00, -0.00, -1.00, 925.8, 345.2)">S</text><text xml:space="preserve" font-family="Menlo-Regular,Menlo" font-size="56.0" fill="#000000" transform="matrix(1.00, 0.00, -0.00, -1.00, 959.5, 345.2)">t</text><text xml:space="preserve" font-family="Menlo-Regular,Menlo" font-size="56.0" fill="#000000" transform="matrix(1.00, 0.00, -0.00, -1.00, 993.2, 345.2)">r</text><text xml:space="preserve" font-family="Menlo-Regular,Menlo" font-size="56.0" fill="#000000" transform="matrix(1.00, 0.00, -0.00, -1.00, 1027.0, 345.2)">i</text><text xml:space="preserve" font-family="Menlo-Regular,Menlo" font-size="56.0" fill="#000000" transform="matrix(1.00, 0.00, -0.00, -1.00, 1060.7, 345.2)">n</text><text xml:space="preserve" font-family="Menlo-Regular,Menlo" font-size="56.0" fill="#000000" transform="matrix(1.00, 0.00, -0.00, -1.00, 1094.4, 345.2)">g</text><text xml:space="preserve" font-family="Menlo-Regular,Menlo" font-size="56.0" fill="#000000" transform="matrix(1.00, 0.00, -0.00, -1.00, 1128.1, 345.2)">A</text><text xml:space="preserve" font-family="Menlo-Regular,Menlo" font-size="56.0" fill="#000000" transform="matrix(1.00, 0.00, -0.00, -1.00, 1161.8, 345.2)">r</text><text xml:space="preserve" font-family="Menlo-Regular,Menlo" font-size="56.0" fill="#000000" transform="matrix(1.00, 0.00, -0.00, -1.00, 1195.6, 345.2)">r</text><text xml:space="preserve" font-family="Menlo-Regular,Menlo" font-size="56.0" fill="#000000" transform="matrix(1.00, 0.00, -0.00, -1.00, 1229.3, 345.2)">a</text><text xml:space="preserve" font-family="Menlo-Regular,Menlo" font-size="56.0" fill="#000000" transform="matrix(1.00, 0.00, -0.00, -1.00, 1263.0, 345.2)">y</text><text xml:space="preserve" font-family="Menlo-Regular,Menlo" font-size="56.0" fill="#D68B40" transform="matrix(1.00, 0.00, -0.00, -1.00, 1296.6, 345.2)">;</text><text xml:space="preserve" font-family="Monaco,Monaco" font-size="56.0" fill="#D68B40" transform="matrix(1.00, 0.00, -0.00, -1.00, 1330.4, 345.2)"> </text><text xml:space="preserve" font-family="Menlo-BoldItalic,Menlo" font-style="italic" font-weight="bold" font-size="56.0" fill="#7A238C" transform="matrix(1.00, 0.00, -0.00, -1.00, 487.5, 280.2)">m</text><text xml:space="preserve" font-family="Menlo-BoldItalic,Menlo" font-style="italic" font-weight="bold" font-size="56.0" fill="#7A238C" transform="matrix(1.00, 0.00, -0.00, -1.00, 521.2, 280.2)">y</text><text xml:space="preserve" font-family="Menlo-BoldItalic,Menlo" font-style="italic" font-weight="bold" font-size="56.0" fill="#7A238C" transform="matrix(1.00, 0.00, -0.00, -1.00, 554.9, 280.2)">A</text><text xml:space="preserve" font-family="Menlo-BoldItalic,Menlo" font-style="italic" font-weight="bold" font-size="56.0" fill="#7A238C" transform="matrix(1.00, 0.00, -0.00, -1.00, 588.7, 280.2)">r</text><text xml:space="preserve" font-family="Menlo-BoldItalic,Menlo" font-style="italic" font-weight="bold" font-size="56.0" fill="#7A238C" transform="matrix(1.00, 0.00, -0.00, -1.00, 622.4, 280.2)">r</text><text xml:space="preserve" font-family="Menlo-BoldItalic,Menlo" font-style="italic" font-weight="bold" font-size="56.0" fill="#7A238C" transform="matrix(1.00, 0.00, -0.00, -1.00, 656.1, 280.2)">a</text><text xml:space="preserve" font-family="Menlo-BoldItalic,Menlo" font-style="italic" font-weight="bold" font-size="56.0" fill="#7A238C" transform="matrix(1.00, 0.00, -0.00, -1.00, 689.8, 280.2)">y</text><text xml:space="preserve" font-family="Menlo-BoldItalic,Menlo" font-style="italic" font-weight="bold" font-size="56.0" fill="#7A238C" transform="matrix(1.00, 0.00, -0.00, -1.00, 723.5, 280.2)"> </text><text xml:space="preserve" font-family="Menlo-Regular,Menlo" font-size="56.0" fill="#000000" transform="matrix(1.00, 0.00, -0.00, -1.00, 757.2, 280.2)">=</text><text xml:space="preserve" font-family="Menlo-Regular,Menlo" font-size="56.0" fill="#000000" transform="matrix(1.00, 0.00, -0.00, -1.00, 790.9, 280.2)"> </text><text xml:space="preserve" font-family="Menlo-Regular,Menlo" font-size="56.0" fill="#000000" transform="matrix(1.00, 0.00, -0.00, -1.00, 824.7, 280.2)">[</text><text xml:space="preserve" font-family="Menlo-Bold,Menlo" font-weight="bold" font-size="56.0" fill="#008E00" transform="matrix(1.00, 0.00, -0.00, -1.00, 858.4, 280.2)">"</text><text xml:space="preserve" font-family="Menlo-Bold,Menlo" font-weight="bold" font-size="56.0" fill="#008E00" transform="matrix(1.00, 0.00, -0.00, -1.00, 892.1, 280.2)">B</text><text xml:space="preserve" font-family="Menlo-Bold,Menlo" font-weight="bold" font-size="56.0" fill="#008E00" transform="matrix(1.00, 0.00, -0.00, -1.00, 925.8, 280.2)">o</text><text xml:space="preserve" font-family="Menlo-Bold,Menlo" font-weight="bold" font-size="56.0" fill="#008E00" transform="matrix(1.00, 0.00, -0.00, -1.00, 959.5, 280.2)">b</text><text xml:space="preserve" font-family="Menlo-Bold,Menlo" font-weight="bold" font-size="56.0" fill="#008E00" transform="matrix(1.00, 0.00, -0.00, -1.00, 993.2, 280.2)">"</text><text xml:space="preserve" font-family="Menlo-Regular,Menlo" font-size="56.0" fill="#D68B40" transform="matrix(1.00, 0.00, -0.00, -1.00, 1026.9, 280.2)">,</text><text xml:space="preserve" font-family="Menlo-Regular,Menlo" font-size="56.0" fill="#D68B40" transform="matrix(1.00, 0.00, -0.00, -1.00, 1060.7, 280.2)"> </text><text xml:space="preserve" font-family="Menlo-Bold,Menlo" font-weight="bold" font-size="56.0" fill="#008E00" transform="matrix(1.00, 0.00, -0.00, -1.00, 1094.4, 280.2)">"</text><text xml:space="preserve" font-family="Menlo-Bold,Menlo" font-weight="bold" font-size="56.0" fill="#008E00" transform="matrix(1.00, 0.00, -0.00, -1.00, 1128.1, 280.2)">F</text><text xml:space="preserve" font-family="Menlo-Bold,Menlo" font-weight="bold" font-size="56.0" fill="#008E00" transform="matrix(1.00, 0.00, -0.00, -1.00, 1161.8, 280.2)">r</text><text xml:space="preserve" font-family="Menlo-Bold,Menlo" font-weight="bold" font-size="56.0" fill="#008E00" transform="matrix(1.00, 0.00, -0.00, -1.00, 1195.5, 280.2)">e</text><text xml:space="preserve" font-family="Menlo-Bold,Menlo" font-weight="bold" font-size="56.0" fill="#008E00" transform="matrix(1.00, 0.00, -0.00, -1.00, 1229.2, 280.2)">d</text><text xml:space="preserve" font-family="Menlo-Bold,Menlo" font-weight="bold" font-size="56.0" fill="#008E00" transform="matrix(1.00, 0.00, -0.00, -1.00, 1263.0, 280.2)">"</text><text xml:space="preserve" font-family="Menlo-Regular,Menlo" font-size="56.0" fill="#000000" transform="matrix(1.00, 0.00, -0.00, -1.00, 1296.6, 280.2)">]</text><text xml:space="preserve" font-family="Menlo-Regular,Menlo" font-size="56.0" fill="#D68B40" transform="matrix(1.00, 0.00, -0.00, -1.00, 1330.4, 280.2)">;</text></g></svg>