<?xml version="1.0" encoding="UTF-8" standalone="no"?><svg xmlns="http://www.w3.org/2000/svg" xmlns:xlink="http://www.w3.org/1999/xlink" clip-rule="evenodd" stroke-miterlimit="10" viewBox="0 0 1920 1080"><desc>SVG generated by Keynote</desc><defs></defs><g transform="matrix(1.00, 0.00, -0.00, -1.00, 0.0, 1080.0)"><path d="M 0.0 1080.0 L 1920.0 1080.0 L 1920.0 0.0 L 0.0 0.0 Z M 0.0 1080.0 " fill="#FEFFFF"></path><text xml:space="preserve" font-family="Helvetica-Light,Helvetica" font-size="112.0" fill="#000000" transform="matrix(1.00, 0.00, -0.00, -1.00, 788.9, 873.8)">E</text><text xml:space="preserve" font-family="Helvetica-Light,Helvetica" font-size="112.0" fill="#000000" transform="matrix(1.00, 0.00, -0.00, -1.00, 857.3, 873.8)">n</text><text xml:space="preserve" font-family="Helvetica-Light,Helvetica" font-size="112.0" fill="#000000" transform="matrix(1.00, 0.00, -0.00, -1.00, 919.6, 873.8)">u</text><text xml:space="preserve" font-family="Helvetica-Light,Helvetica" font-size="112.0" fill="#000000" transform="matrix(1.00, 0.00, -0.00, -1.00, 981.8, 873.8)">m</text><text xml:space="preserve" font-family="Helvetica-Light,Helvetica" font-size="112.0" fill="#000000" transform="matrix(1.00, 0.00, -0.00, -1.00, 1075.1, 873.8)">s</text><text xml:space="preserve" font-family="Menlo-Bold,Menlo" font-weight="bold" font-size="56.0" fill="#011892" transform="matrix(1.00, 0.00, -0.00, -1.00, 386.3, 650.7)">e</text><text xml:space="preserve" font-family="Menlo-Bold,Menlo" font-weight="bold" font-size="56.0" fill="#011892" transform="matrix(1.00, 0.00, -0.00, -1.00, 420.1, 650.7)">n</text><text xml:space="preserve" font-family="Menlo-Bold,Menlo" font-weight="bold" font-size="56.0" fill="#011892" transform="matrix(1.00, 0.00, -0.00, -1.00, 453.8, 650.7)">u</text><text xml:space="preserve" font-family="Menlo-Bold,Menlo" font-weight="bold" font-size="56.0" fill="#011892" transform="matrix(1.00, 0.00, -0.00, -1.00, 487.5, 650.7)">m</text><text xml:space="preserve" font-family="Menlo-Bold,Menlo" font-weight="bold" font-size="56.0" fill="#011892" transform="matrix(1.00, 0.00, -0.00, -1.00, 521.2, 650.7)"> </text><text xml:space="preserve" font-family="Menlo-Regular,Menlo" font-size="56.0" fill="#000000" transform="matrix(1.00, 0.00, -0.00, -1.00, 554.9, 650.7)">C</text><text xml:space="preserve" font-family="Menlo-Regular,Menlo" font-size="56.0" fill="#000000" transform="matrix(1.00, 0.00, -0.00, -1.00, 588.6, 650.7)">o</text><text xml:space="preserve" font-family="Menlo-Regular,Menlo" font-size="56.0" fill="#000000" transform="matrix(1.00, 0.00, -0.00, -1.00, 622.4, 650.7)">l</text><text xml:space="preserve" font-family="Menlo-Regular,Menlo" font-size="56.0" fill="#000000" transform="matrix(1.00, 0.00, -0.00, -1.00, 656.1, 650.7)">o</text><text xml:space="preserve" font-family="Menlo-Regular,Menlo" font-size="56.0" fill="#000000" transform="matrix(1.00, 0.00, -0.00, -1.00, 689.8, 650.7)">r</text><text xml:space="preserve" font-family="Menlo-Regular,Menlo" font-size="56.0" fill="#000000" transform="matrix(1.00, 0.00, -0.00, -1.00, 723.5, 650.7)"> </text><text xml:space="preserve" font-family="Menlo-Regular,Menlo" font-size="56.0" fill="#000000" transform="matrix(1.00, 0.00, -0.00, -1.00, 757.2, 650.7)">{</text><text xml:space="preserve" font-family="Menlo-Bold,Menlo" font-weight="bold" font-size="56.0" fill="#7A238C" transform="matrix(1.00, 0.00, -0.00, -1.00, 790.9, 650.7)">R</text><text xml:space="preserve" font-family="Menlo-Bold,Menlo" font-weight="bold" font-size="56.0" fill="#7A238C" transform="matrix(1.00, 0.00, -0.00, -1.00, 824.6, 650.7)">e</text><text xml:space="preserve" font-family="Menlo-Bold,Menlo" font-weight="bold" font-size="56.0" fill="#7A238C" transform="matrix(1.00, 0.00, -0.00, -1.00, 858.4, 650.7)">d</text><text xml:space="preserve" font-family="Menlo-Bold,Menlo" font-weight="bold" font-size="56.0" fill="#7A238C" transform="matrix(1.00, 0.00, -0.00, -1.00, 892.1, 650.7)"> </text><text xml:space="preserve" font-family="Menlo-Regular,Menlo" font-size="56.0" fill="#000000" transform="matrix(1.00, 0.00, -0.00, -1.00, 925.8, 650.7)">=</text><text xml:space="preserve" font-family="Menlo-Regular,Menlo" font-size="56.0" fill="#000000" transform="matrix(1.00, 0.00, -0.00, -1.00, 959.5, 650.7)"> </text><text xml:space="preserve" font-family="Menlo-Regular,Menlo" font-size="56.0" fill="#0432FF" transform="matrix(1.00, 0.00, -0.00, -1.00, 993.2, 650.7)">1</text><text xml:space="preserve" font-family="Menlo-Regular,Menlo" font-size="56.0" fill="#D68B40" transform="matrix(1.00, 0.00, -0.00, -1.00, 1026.9, 650.7)">,</text><text xml:space="preserve" font-family="Menlo-Regular,Menlo" font-size="56.0" fill="#D68B40" transform="matrix(1.00, 0.00, -0.00, -1.00, 1060.7, 650.7)"> </text><text xml:space="preserve" font-family="Menlo-Bold,Menlo" font-weight="bold" font-size="56.0" fill="#7A238C" transform="matrix(1.00, 0.00, -0.00, -1.00, 1094.4, 650.7)">G</text><text xml:space="preserve" font-family="Menlo-Bold,Menlo" font-weight="bold" font-size="56.0" fill="#7A238C" transform="matrix(1.00, 0.00, -0.00, -1.00, 1128.1, 650.7)">r</text><text xml:space="preserve" font-family="Menlo-Bold,Menlo" font-weight="bold" font-size="56.0" fill="#7A238C" transform="matrix(1.00, 0.00, -0.00, -1.00, 1161.8, 650.7)">e</text><text xml:space="preserve" font-family="Menlo-Bold,Menlo" font-weight="bold" font-size="56.0" fill="#7A238C" transform="matrix(1.00, 0.00, -0.00, -1.00, 1195.5, 650.7)">e</text><text xml:space="preserve" font-family="Menlo-Bold,Menlo" font-weight="bold" font-size="56.0" fill="#7A238C" transform="matrix(1.00, 0.00, -0.00, -1.00, 1229.2, 650.7)">n</text><text xml:space="preserve" font-family="Menlo-Regular,Menlo" font-size="56.0" fill="#D68B40" transform="matrix(1.00, 0.00, -0.00, -1.00, 1262.9, 650.7)">,</text><text xml:space="preserve" font-family="Menlo-Regular,Menlo" font-size="56.0" fill="#D68B40" transform="matrix(1.00, 0.00, -0.00, -1.00, 1296.7, 650.7)"> </text><text xml:space="preserve" font-family="Menlo-Bold,Menlo" font-weight="bold" font-size="56.0" fill="#7A238C" transform="matrix(1.00, 0.00, -0.00, -1.00, 1330.4, 650.7)">B</text><text xml:space="preserve" font-family="Menlo-Bold,Menlo" font-weight="bold" font-size="56.0" fill="#7A238C" transform="matrix(1.00, 0.00, -0.00, -1.00, 1364.1, 650.7)">l</text><text xml:space="preserve" font-family="Menlo-Bold,Menlo" font-weight="bold" font-size="56.0" fill="#7A238C" transform="matrix(1.00, 0.00, -0.00, -1.00, 1397.8, 650.7)">u</text><text xml:space="preserve" font-family="Menlo-Bold,Menlo" font-weight="bold" font-size="56.0" fill="#7A238C" transform="matrix(1.00, 0.00, -0.00, -1.00, 1431.5, 650.7)">e</text><text xml:space="preserve" font-family="Menlo-Regular,Menlo" font-size="56.0" fill="#000000" transform="matrix(1.00, 0.00, -0.00, -1.00, 1465.2, 650.7)">}</text><text xml:space="preserve" font-family="Menlo-Regular,Menlo" font-size="56.0" fill="#D68B40" transform="matrix(1.00, 0.00, -0.00, -1.00, 1498.9, 650.7)">;</text><text xml:space="preserve" font-family="Monaco,Monaco" font-size="56.0" fill="#D68B40" transform="matrix(1.00, 0.00, -0.00, -1.00, 1532.7, 650.7)"> </text><text xml:space="preserve" font-family="Menlo-Bold,Menlo" font-weight="bold" font-size="56.0" fill="#011892" transform="matrix(1.00, 0.00, -0.00, -1.00, 386.3, 585.7)">v</text><text xml:space="preserve" font-family="Menlo-Bold,Menlo" font-weight="bold" font-size="56.0" fill="#011892" transform="matrix(1.00, 0.00, -0.00, -1.00, 420.1, 585.7)">a</text><text xml:space="preserve" font-family="Menlo-Bold,Menlo" font-weight="bold" font-size="56.0" fill="#011892" transform="matrix(1.00, 0.00, -0.00, -1.00, 453.8, 585.7)">r</text><text xml:space="preserve" font-family="Menlo-Bold,Menlo" font-weight="bold" font-size="56.0" fill="#011892" transform="matrix(1.00, 0.00, -0.00, -1.00, 487.5, 585.7)"> </text><text xml:space="preserve" font-family="Menlo-BoldItalic,Menlo" font-style="italic" font-weight="bold" font-size="56.0" fill="#7A238C" transform="matrix(1.00, 0.00, -0.00, -1.00, 521.2, 585.7)">c</text><text xml:space="preserve" font-family="Menlo-Regular,Menlo" font-size="56.0" fill="#000000" transform="matrix(1.00, 0.00, -0.00, -1.00, 554.9, 585.7)">:</text><text xml:space="preserve" font-family="Menlo-Regular,Menlo" font-size="56.0" fill="#000000" transform="matrix(1.00, 0.00, -0.00, -1.00, 588.6, 585.7)"> </text><text xml:space="preserve" font-family="Menlo-Regular,Menlo" font-size="56.0" fill="#000000" transform="matrix(1.00, 0.00, -0.00, -1.00, 622.4, 585.7)">C</text><text xml:space="preserve" font-family="Menlo-Regular,Menlo" font-size="56.0" fill="#000000" transform="matrix(1.00, 0.00, -0.00, -1.00, 656.1, 585.7)">o</text><text xml:space="preserve" font-family="Menlo-Regular,Menlo" font-size="56.0" fill="#000000" transform="matrix(1.00, 0.00, -0.00, -1.00, 689.8, 585.7)">l</text><text xml:space="preserve" font-family="Menlo-Regular,Menlo" font-size="56.0" fill="#000000" transform="matrix(1.00, 0.00, -0.00, -1.00, 723.5, 585.7)">o</text><text xml:space="preserve" font-family="Menlo-Regular,Menlo" font-size="56.0" fill="#000000" transform="matrix(1.00, 0.00, -0.00, -1.00, 757.2, 585.7)">r</text><text xml:space="preserve" font-family="Menlo-Regular,Menlo" font-size="56.0" fill="#000000" transform="matrix(1.00, 0.00, -0.00, -1.00, 791.0, 585.7)"> </text><text xml:space="preserve" font-family="Menlo-Regular,Menlo" font-size="56.0" fill="#000000" transform="matrix(1.00, 0.00, -0.00, -1.00, 824.7, 585.7)">=</text><text xml:space="preserve" font-family="Menlo-Regular,Menlo" font-size="56.0" fill="#000000" transform="matrix(1.00, 0.00, -0.00, -1.00, 858.4, 585.7)"> </text><text xml:space="preserve" font-family="Menlo-Regular,Menlo" font-size="56.0" fill="#000000" transform="matrix(1.00, 0.00, -0.00, -1.00, 892.1, 585.7)">C</text><text xml:space="preserve" font-family="Menlo-Regular,Menlo" font-size="56.0" fill="#000000" transform="matrix(1.00, 0.00, -0.00, -1.00, 925.8, 585.7)">o</text><text xml:space="preserve" font-family="Menlo-Regular,Menlo" font-size="56.0" fill="#000000" transform="matrix(1.00, 0.00, -0.00, -1.00, 959.6, 585.7)">l</text><text xml:space="preserve" font-family="Menlo-Regular,Menlo" font-size="56.0" fill="#000000" transform="matrix(1.00, 0.00, -0.00, -1.00, 993.3, 585.7)">o</text><text xml:space="preserve" font-family="Menlo-Regular,Menlo" font-size="56.0" fill="#000000" transform="matrix(1.00, 0.00, -0.00, -1.00, 1027.0, 585.7)">r</text><text xml:space="preserve" font-family="Menlo-Regular,Menlo" font-size="56.0" fill="#000000" transform="matrix(1.00, 0.00, -0.00, -1.00, 1060.7, 585.7)">.</text><text xml:space="preserve" font-family="Menlo-Bold,Menlo" font-weight="bold" font-size="56.0" fill="#7A238C" transform="matrix(1.00, 0.00, -0.00, -1.00, 1094.4, 585.7)">G</text><text xml:space="preserve" font-family="Menlo-Bold,Menlo" font-weight="bold" font-size="56.0" fill="#7A238C" transform="matrix(1.00, 0.00, -0.00, -1.00, 1128.1, 585.7)">r</text><text xml:space="preserve" font-family="Menlo-Bold,Menlo" font-weight="bold" font-size="56.0" fill="#7A238C" transform="matrix(1.00, 0.00, -0.00, -1.00, 1161.8, 585.7)">e</text><text xml:space="preserve" font-family="Menlo-Bold,Menlo" font-weight="bold" font-size="56.0" fill="#7A238C" transform="matrix(1.00, 0.00, -0.00, -1.00, 1195.5, 585.7)">e</text><text xml:space="preserve" font-family="Menlo-Bold,Menlo" font-weight="bold" font-size="56.0" fill="#7A238C" transform="matrix(1.00, 0.00, -0.00, -1.00, 1229.2, 585.7)">n</text><text xml:space="preserve" font-family="Menlo-Regular,Menlo" font-size="56.0" fill="#D68B40" transform="matrix(1.00, 0.00, -0.00, -1.00, 1262.9, 585.7)">;</text><text xml:space="preserve" font-family="Menlo-Regular,Menlo" font-size="56.0" fill="#D68B40" transform="matrix(1.00, 0.00, -0.00, -1.00, 1296.6, 585.7)"> </text><text xml:space="preserve" font-family="Menlo-Bold,Menlo" font-weight="bold" font-size="56.0" fill="#011892" transform="matrix(1.00, 0.00, -0.00, -1.00, 386.3, 455.7)">e</text><text xml:space="preserve" font-family="Menlo-Bold,Menlo" font-weight="bold" font-size="56.0" fill="#011892" transform="matrix(1.00, 0.00, -0.00, -1.00, 420.1, 455.7)">n</text><text xml:space="preserve" font-family="Menlo-Bold,Menlo" font-weight="bold" font-size="56.0" fill="#011892" transform="matrix(1.00, 0.00, -0.00, -1.00, 453.8, 455.7)">u</text><text xml:space="preserve" font-family="Menlo-Bold,Menlo" font-weight="bold" font-size="56.0" fill="#011892" transform="matrix(1.00, 0.00, -0.00, -1.00, 487.5, 455.7)">m</text><text xml:space="preserve" font-family="Menlo-Bold,Menlo" font-weight="bold" font-size="56.0" fill="#011892" transform="matrix(1.00, 0.00, -0.00, -1.00, 521.2, 455.7)"> </text><text xml:space="preserve" font-family="Menlo-Regular,Menlo" font-size="56.0" fill="#000000" transform="matrix(1.00, 0.00, -0.00, -1.00, 554.9, 455.7)">C</text><text xml:space="preserve" font-family="Menlo-Regular,Menlo" font-size="56.0" fill="#000000" transform="matrix(1.00, 0.00, -0.00, -1.00, 588.6, 455.7)">o</text><text xml:space="preserve" font-family="Menlo-Regular,Menlo" font-size="56.0" fill="#000000" transform="matrix(1.00, 0.00, -0.00, -1.00, 622.4, 455.7)">l</text><text xml:space="preserve" font-family="Menlo-Regular,Menlo" font-size="56.0" fill="#000000" transform="matrix(1.00, 0.00, -0.00, -1.00, 656.1, 455.7)">o</text><text xml:space="preserve" font-family="Menlo-Regular,Menlo" font-size="56.0" fill="#000000" transform="matrix(1.00, 0.00, -0.00, -1.00, 689.8, 455.7)">r</text><text xml:space="preserve" font-family="Menlo-Regular,Menlo" font-size="56.0" fill="#000000" transform="matrix(1.00, 0.00, -0.00, -1.00, 723.5, 455.7)"> </text><text xml:space="preserve" font-family="Menlo-Regular,Menlo" font-size="56.0" fill="#000000" transform="matrix(1.00, 0.00, -0.00, -1.00, 757.2, 455.7)">{</text><text xml:space="preserve" font-family="Menlo-Bold,Menlo" font-weight="bold" font-size="56.0" fill="#7A238C" transform="matrix(1.00, 0.00, -0.00, -1.00, 790.9, 455.7)">R</text><text xml:space="preserve" font-family="Menlo-Bold,Menlo" font-weight="bold" font-size="56.0" fill="#7A238C" transform="matrix(1.00, 0.00, -0.00, -1.00, 824.6, 455.7)">e</text><text xml:space="preserve" font-family="Menlo-Bold,Menlo" font-weight="bold" font-size="56.0" fill="#7A238C" transform="matrix(1.00, 0.00, -0.00, -1.00, 858.4, 455.7)">d</text><text xml:space="preserve" font-family="Menlo-Bold,Menlo" font-weight="bold" font-size="56.0" fill="#7A238C" transform="matrix(1.00, 0.00, -0.00, -1.00, 892.1, 455.7)"> </text><text xml:space="preserve" font-family="Menlo-Regular,Menlo" font-size="56.0" fill="#000000" transform="matrix(1.00, 0.00, -0.00, -1.00, 925.8, 455.7)">=</text><text xml:space="preserve" font-family="Menlo-Regular,Menlo" font-size="56.0" fill="#000000" transform="matrix(1.00, 0.00, -0.00, -1.00, 959.5, 455.7)"> </text><text xml:space="preserve" font-family="Menlo-Regular,Menlo" font-size="56.0" fill="#0432FF" transform="matrix(1.00, 0.00, -0.00, -1.00, 993.2, 455.7)">1</text><text xml:space="preserve" font-family="Menlo-Regular,Menlo" font-size="56.0" fill="#D68B40" transform="matrix(1.00, 0.00, -0.00, -1.00, 1026.9, 455.7)">,</text><text xml:space="preserve" font-family="Menlo-Regular,Menlo" font-size="56.0" fill="#D68B40" transform="matrix(1.00, 0.00, -0.00, -1.00, 1060.7, 455.7)"> </text><text xml:space="preserve" font-family="Menlo-Bold,Menlo" font-weight="bold" font-size="56.0" fill="#7A238C" transform="matrix(1.00, 0.00, -0.00, -1.00, 1094.4, 455.7)">G</text><text xml:space="preserve" font-family="Menlo-Bold,Menlo" font-weight="bold" font-size="56.0" fill="#7A238C" transform="matrix(1.00, 0.00, -0.00, -1.00, 1128.1, 455.7)">r</text><text xml:space="preserve" font-family="Menlo-Bold,Menlo" font-weight="bold" font-size="56.0" fill="#7A238C" transform="matrix(1.00, 0.00, -0.00, -1.00, 1161.8, 455.7)">e</text><text xml:space="preserve" font-family="Menlo-Bold,Menlo" font-weight="bold" font-size="56.0" fill="#7A238C" transform="matrix(1.00, 0.00, -0.00, -1.00, 1195.5, 455.7)">e</text><text xml:space="preserve" font-family="Menlo-Bold,Menlo" font-weight="bold" font-size="56.0" fill="#7A238C" transform="matrix(1.00, 0.00, -0.00, -1.00, 1229.2, 455.7)">n</text><text xml:space="preserve" font-family="Menlo-Regular,Menlo" font-size="56.0" fill="#D68B40" transform="matrix(1.00, 0.00, -0.00, -1.00, 1262.9, 455.7)">,</text><text xml:space="preserve" font-family="Menlo-Regular,Menlo" font-size="56.0" fill="#D68B40" transform="matrix(1.00, 0.00, -0.00, -1.00, 1296.7, 455.7)"> </text><text xml:space="preserve" font-family="Menlo-Bold,Menlo" font-weight="bold" font-size="56.0" fill="#7A238C" transform="matrix(1.00, 0.00, -0.00, -1.00, 1330.4, 455.7)">B</text><text xml:space="preserve" font-family="Menlo-Bold,Menlo" font-weight="bold" font-size="56.0" fill="#7A238C" transform="matrix(1.00, 0.00, -0.00, -1.00, 1364.1, 455.7)">l</text><text xml:space="preserve" font-family="Menlo-Bold,Menlo" font-weight="bold" font-size="56.0" fill="#7A238C" transform="matrix(1.00, 0.00, -0.00, -1.00, 1397.8, 455.7)">u</text><text xml:space="preserve" font-family="Menlo-Bold,Menlo" font-weight="bold" font-size="56.0" fill="#7A238C" transform="matrix(1.00, 0.00, -0.00, -1.00, 1431.5, 455.7)">e</text><text xml:space="preserve" font-family="Menlo-Regular,Menlo" font-size="56.0" fill="#000000" transform="matrix(1.00, 0.00, -0.00, -1.00, 1465.2, 455.7)">}</text><text xml:space="preserve" font-family="Menlo-Regular,Menlo" font-size="56.0" fill="#D68B40" transform="matrix(1.00, 0.00, -0.00, -1.00, 1498.9, 455.7)">;</text><text xml:space="preserve" font-family="Monaco,Monaco" font-size="56.0" fill="#D68B40" transform="matrix(1.00, 0.00, -0.00, -1.00, 1532.7, 455.7)"> </text><text xml:space="preserve" font-family="Menlo-Bold,Menlo" font-weight="bold" font-size="56.0" fill="#011892" transform="matrix(1.00, 0.00, -0.00, -1.00, 386.3, 390.7)">v</text><text xml:space="preserve" font-family="Menlo-Bold,Menlo" font-weight="bold" font-size="56.0" fill="#011892" transform="matrix(1.00, 0.00, -0.00, -1.00, 420.1, 390.7)">a</text><text xml:space="preserve" font-family="Menlo-Bold,Menlo" font-weight="bold" font-size="56.0" fill="#011892" transform="matrix(1.00, 0.00, -0.00, -1.00, 453.8, 390.7)">r</text><text xml:space="preserve" font-family="Menlo-Bold,Menlo" font-weight="bold" font-size="56.0" fill="#011892" transform="matrix(1.00, 0.00, -0.00, -1.00, 487.5, 390.7)"> </text><text xml:space="preserve" font-family="Menlo-BoldItalic,Menlo" font-style="italic" font-weight="bold" font-size="56.0" fill="#7A238C" transform="matrix(1.00, 0.00, -0.00, -1.00, 521.2, 390.7)">c</text><text xml:space="preserve" font-family="Menlo-BoldItalic,Menlo" font-style="italic" font-weight="bold" font-size="56.0" fill="#7A238C" transform="matrix(1.00, 0.00, -0.00, -1.00, 554.9, 390.7)">o</text><text xml:space="preserve" font-family="Menlo-BoldItalic,Menlo" font-style="italic" font-weight="bold" font-size="56.0" fill="#7A238C" transform="matrix(1.00, 0.00, -0.00, -1.00, 588.6, 390.7)">l</text><text xml:space="preserve" font-family="Menlo-BoldItalic,Menlo" font-style="italic" font-weight="bold" font-size="56.0" fill="#7A238C" transform="matrix(1.00, 0.00, -0.00, -1.00, 622.4, 390.7)">o</text><text xml:space="preserve" font-family="Menlo-BoldItalic,Menlo" font-style="italic" font-weight="bold" font-size="56.0" fill="#7A238C" transform="matrix(1.00, 0.00, -0.00, -1.00, 656.1, 390.7)">r</text><text xml:space="preserve" font-family="Menlo-BoldItalic,Menlo" font-style="italic" font-weight="bold" font-size="56.0" fill="#7A238C" transform="matrix(1.00, 0.00, -0.00, -1.00, 689.8, 390.7)">N</text><text xml:space="preserve" font-family="Menlo-BoldItalic,Menlo" font-style="italic" font-weight="bold" font-size="56.0" fill="#7A238C" transform="matrix(1.00, 0.00, -0.00, -1.00, 723.5, 390.7)">a</text><text xml:space="preserve" font-family="Menlo-BoldItalic,Menlo" font-style="italic" font-weight="bold" font-size="56.0" fill="#7A238C" transform="matrix(1.00, 0.00, -0.00, -1.00, 757.3, 390.7)">m</text><text xml:space="preserve" font-family="Menlo-BoldItalic,Menlo" font-style="italic" font-weight="bold" font-size="56.0" fill="#7A238C" transform="matrix(1.00, 0.00, -0.00, -1.00, 791.0, 390.7)">e</text><text xml:space="preserve" font-family="Menlo-Regular,Menlo" font-size="56.0" fill="#000000" transform="matrix(1.00, 0.00, -0.00, -1.00, 824.6, 390.7)">:</text><text xml:space="preserve" font-family="Menlo-Regular,Menlo" font-size="56.0" fill="#000000" transform="matrix(1.00, 0.00, -0.00, -1.00, 858.4, 390.7)"> </text><text xml:space="preserve" font-family="Menlo-Bold,Menlo" font-weight="bold" font-size="56.0" fill="#011892" transform="matrix(1.00, 0.00, -0.00, -1.00, 892.1, 390.7)">s</text><text xml:space="preserve" font-family="Menlo-Bold,Menlo" font-weight="bold" font-size="56.0" fill="#011892" transform="matrix(1.00, 0.00, -0.00, -1.00, 925.8, 390.7)">t</text><text xml:space="preserve" font-family="Menlo-Bold,Menlo" font-weight="bold" font-size="56.0" fill="#011892" transform="matrix(1.00, 0.00, -0.00, -1.00, 959.5, 390.7)">r</text><text xml:space="preserve" font-family="Menlo-Bold,Menlo" font-weight="bold" font-size="56.0" fill="#011892" transform="matrix(1.00, 0.00, -0.00, -1.00, 993.2, 390.7)">i</text><text xml:space="preserve" font-family="Menlo-Bold,Menlo" font-weight="bold" font-size="56.0" fill="#011892" transform="matrix(1.00, 0.00, -0.00, -1.00, 1027.0, 390.7)">n</text><text xml:space="preserve" font-family="Menlo-Bold,Menlo" font-weight="bold" font-size="56.0" fill="#011892" transform="matrix(1.00, 0.00, -0.00, -1.00, 1060.7, 390.7)">g</text><text xml:space="preserve" font-family="Menlo-Bold,Menlo" font-weight="bold" font-size="56.0" fill="#011892" transform="matrix(1.00, 0.00, -0.00, -1.00, 1094.4, 390.7)"> </text><text xml:space="preserve" font-family="Menlo-Regular,Menlo" font-size="56.0" fill="#000000" transform="matrix(1.00, 0.00, -0.00, -1.00, 1128.1, 390.7)">=</text><text xml:space="preserve" font-family="Menlo-Regular,Menlo" font-size="56.0" fill="#000000" transform="matrix(1.00, 0.00, -0.00, -1.00, 1161.8, 390.7)"> </text><text xml:space="preserve" font-family="Menlo-Regular,Menlo" font-size="56.0" fill="#000000" transform="matrix(1.00, 0.00, -0.00, -1.00, 1195.5, 390.7)">C</text><text xml:space="preserve" font-family="Menlo-Regular,Menlo" font-size="56.0" fill="#000000" transform="matrix(1.00, 0.00, -0.00, -1.00, 1229.2, 390.7)">o</text><text xml:space="preserve" font-family="Menlo-Regular,Menlo" font-size="56.0" fill="#000000" transform="matrix(1.00, 0.00, -0.00, -1.00, 1263.0, 390.7)">l</text><text xml:space="preserve" font-family="Menlo-Regular,Menlo" font-size="56.0" fill="#000000" transform="matrix(1.00, 0.00, -0.00, -1.00, 1296.7, 390.7)">o</text><text xml:space="preserve" font-family="Menlo-Regular,Menlo" font-size="56.0" fill="#000000" transform="matrix(1.00, 0.00, -0.00, -1.00, 1330.4, 390.7)">r</text><text xml:space="preserve" font-family="Menlo-Regular,Menlo" font-size="56.0" fill="#000000" transform="matrix(1.00, 0.00, -0.00, -1.00, 1364.1, 390.7)">[</text><text xml:space="preserve" font-family="Menlo-Regular,Menlo" font-size="56.0" fill="#0432FF" transform="matrix(1.00, 0.00, -0.00, -1.00, 1397.8, 390.7)">2</text><text xml:space="preserve" font-family="Menlo-Regular,Menlo" font-size="56.0" fill="#000000" transform="matrix(1.00, 0.00, -0.00, -1.00, 1431.5, 390.7)">]</text><text xml:space="preserve" font-family="Menlo-Regular,Menlo" font-size="56.0" fill="#D68B40" transform="matrix(1.00, 0.00, -0.00, -1.00, 1465.2, 390.7)">;</text></g></svg>