<?xml version="1.0" encoding="UTF-8" standalone="no"?><svg xmlns="http://www.w3.org/2000/svg" xmlns:xlink="http://www.w3.org/1999/xlink" clip-rule="evenodd" stroke-miterlimit="10" viewBox="0 0 1920 1080"><desc>SVG generated by Keynote</desc><defs></defs><g transform="matrix(1.00, 0.00, -0.00, -1.00, 0.0, 1080.0)"><path d="M 0.0 1080.0 L 1920.0 1080.0 L 1920.0 0.0 L 0.0 0.0 Z M 0.0 1080.0 " fill="#FEFFFF"></path><text xml:space="preserve" font-family="Helvetica-Light,Helvetica" font-size="112.0" fill="#000000" transform="matrix(1.00, 0.00, -0.00, -1.00, 473.0, 873.8)">B</text><text xml:space="preserve" font-family="Helvetica-Light,Helvetica" font-size="112.0" fill="#000000" transform="matrix(1.00, 0.00, -0.00, -1.00, 547.7, 873.8)">a</text><text xml:space="preserve" font-family="Helvetica-Light,Helvetica" font-size="112.0" fill="#000000" transform="matrix(1.00, 0.00, -0.00, -1.00, 609.9, 873.8)">s</text><text xml:space="preserve" font-family="Helvetica-Light,Helvetica" font-size="112.0" fill="#000000" transform="matrix(1.00, 0.00, -0.00, -1.00, 665.9, 873.8)">i</text><text xml:space="preserve" font-family="Helvetica-Light,Helvetica" font-size="112.0" fill="#000000" transform="matrix(1.00, 0.00, -0.00, -1.00, 690.8, 873.8)">c</text><text xml:space="preserve" font-family="Helvetica-Light,Helvetica" font-size="112.0" fill="#000000" transform="matrix(1.00, 0.00, -0.00, -1.00, 753.1, 873.8)"> </text><text xml:space="preserve" font-family="Helvetica-Light,Helvetica" font-size="112.0" fill="#000000" transform="matrix(1.00, 0.00, -0.00, -1.00, 784.2, 873.8)">B</text><text xml:space="preserve" font-family="Helvetica-Light,Helvetica" font-size="112.0" fill="#000000" transform="matrix(1.00, 0.00, -0.00, -1.00, 858.9, 873.8)">u</text><text xml:space="preserve" font-family="Helvetica-Light,Helvetica" font-size="112.0" fill="#000000" transform="matrix(1.00, 0.00, -0.00, -1.00, 921.2, 873.8)">i</text><text xml:space="preserve" font-family="Helvetica-Light,Helvetica" font-size="112.0" fill="#000000" transform="matrix(1.00, 0.00, -0.00, -1.00, 946.1, 873.8)">l</text><text xml:space="preserve" font-family="Helvetica-Light,Helvetica" font-size="112.0" fill="#000000" transform="matrix(1.00, 0.00, -0.00, -1.00, 970.9, 873.8)">t</text><text xml:space="preserve" font-family="Helvetica-Light,Helvetica" font-size="112.0" fill="#000000" transform="matrix(1.00, 0.00, -0.00, -1.00, 1002.1, 873.8)"> </text><text xml:space="preserve" font-family="Helvetica-Light,Helvetica" font-size="112.0" fill="#000000" transform="matrix(1.00, 0.00, -0.00, -1.00, 1033.2, 873.8)">i</text><text xml:space="preserve" font-family="Helvetica-Light,Helvetica" font-size="112.0" fill="#000000" transform="matrix(1.00, 0.00, -0.00, -1.00, 1058.1, 873.8)">n</text><text xml:space="preserve" font-family="Helvetica-Light,Helvetica" font-size="112.0" fill="#000000" transform="matrix(1.00, 0.00, -0.00, -1.00, 1120.3, 873.8)"> </text><text xml:space="preserve" font-family="Helvetica-Light,Helvetica" font-size="112.0" fill="#000000" transform="matrix(1.00, 0.00, -0.00, -1.00, 1151.5, 873.8)">T</text><text xml:space="preserve" font-family="Helvetica-Light,Helvetica" font-size="112.0" fill="#000000" transform="matrix(1.00, 0.00, -0.00, -1.00, 1204.3, 873.8)">y</text><text xml:space="preserve" font-family="Helvetica-Light,Helvetica" font-size="112.0" fill="#000000" transform="matrix(1.00, 0.00, -0.00, -1.00, 1260.3, 873.8)">p</text><text xml:space="preserve" font-family="Helvetica-Light,Helvetica" font-size="112.0" fill="#000000" transform="matrix(1.00, 0.00, -0.00, -1.00, 1328.8, 873.8)">e</text><text xml:space="preserve" font-family="Helvetica-Light,Helvetica" font-size="112.0" fill="#000000" transform="matrix(1.00, 0.00, -0.00, -1.00, 1391.0, 873.8)">s</text><text xml:space="preserve" font-family="Helvetica-Light,Helvetica" font-size="39.0" fill="#000000" transform="matrix(1.00, 0.00, -0.00, -1.00, 137.0, 629.5)">•</text><text xml:space="preserve" font-family="Helvetica-Light,Helvetica" font-size="52.0" fill="#000000" transform="matrix(1.00, 0.00, -0.00, -1.00, 187.0, 625.0)">n</text><text xml:space="preserve" font-family="Helvetica-Light,Helvetica" font-size="52.0" fill="#000000" transform="matrix(1.00, 0.00, -0.00, -1.00, 215.9, 625.0)">u</text><text xml:space="preserve" font-family="Helvetica-Light,Helvetica" font-size="52.0" fill="#000000" transform="matrix(1.00, 0.00, -0.00, -1.00, 244.8, 625.0)">m</text><text xml:space="preserve" font-family="Helvetica-Light,Helvetica" font-size="52.0" fill="#000000" transform="matrix(1.00, 0.00, -0.00, -1.00, 288.1, 625.0)">b</text><text xml:space="preserve" font-family="Helvetica-Light,Helvetica" font-size="52.0" fill="#000000" transform="matrix(1.00, 0.00, -0.00, -1.00, 319.9, 625.0)">e</text><text xml:space="preserve" font-family="Helvetica-Light,Helvetica" font-size="52.0" fill="#000000" transform="matrix(1.00, 0.00, -0.00, -1.00, 348.8, 625.0)">r</text><text xml:space="preserve" font-family="Helvetica-Light,Helvetica" font-size="52.0" fill="#000000" transform="matrix(1.00, 0.00, -0.00, -1.00, 366.1, 625.0)"> </text><text xml:space="preserve" font-family="Helvetica-Light,Helvetica" font-size="39.0" fill="#000000" transform="matrix(1.00, 0.00, -0.00, -1.00, 137.0, 508.5)">•</text><text xml:space="preserve" font-family="Helvetica-Light,Helvetica" font-size="52.0" fill="#000000" transform="matrix(1.00, 0.00, -0.00, -1.00, 187.0, 504.0)">b</text><text xml:space="preserve" font-family="Helvetica-Light,Helvetica" font-size="52.0" fill="#000000" transform="matrix(1.00, 0.00, -0.00, -1.00, 218.8, 504.0)">o</text><text xml:space="preserve" font-family="Helvetica-Light,Helvetica" font-size="52.0" fill="#000000" transform="matrix(1.00, 0.00, -0.00, -1.00, 247.7, 504.0)">o</text><text xml:space="preserve" font-family="Helvetica-Light,Helvetica" font-size="52.0" fill="#000000" transform="matrix(1.00, 0.00, -0.00, -1.00, 276.6, 504.0)">l</text><text xml:space="preserve" font-family="Helvetica-Light,Helvetica" font-size="52.0" fill="#000000" transform="matrix(1.00, 0.00, -0.00, -1.00, 288.1, 504.0)">e</text><text xml:space="preserve" font-family="Helvetica-Light,Helvetica" font-size="52.0" fill="#000000" transform="matrix(1.00, 0.00, -0.00, -1.00, 317.1, 504.0)">a</text><text xml:space="preserve" font-family="Helvetica-Light,Helvetica" font-size="52.0" fill="#000000" transform="matrix(1.00, 0.00, -0.00, -1.00, 346.0, 504.0)">n</text><text xml:space="preserve" font-family="Helvetica-Light,Helvetica" font-size="52.0" fill="#000000" transform="matrix(1.00, 0.00, -0.00, -1.00, 374.9, 504.0)"> </text><text xml:space="preserve" font-family="Helvetica-Light,Helvetica" font-size="39.0" fill="#000000" transform="matrix(1.00, 0.00, -0.00, -1.00, 137.0, 387.5)">•</text><text xml:space="preserve" font-family="Helvetica-Light,Helvetica" font-size="52.0" fill="#000000" transform="matrix(1.00, 0.00, -0.00, -1.00, 187.0, 383.0)">s</text><text xml:space="preserve" font-family="Helvetica-Light,Helvetica" font-size="52.0" fill="#000000" transform="matrix(1.00, 0.00, -0.00, -1.00, 213.0, 383.0)">t</text><text xml:space="preserve" font-family="Helvetica-Light,Helvetica" font-size="52.0" fill="#000000" transform="matrix(1.00, 0.00, -0.00, -1.00, 227.5, 383.0)">r</text><text xml:space="preserve" font-family="Helvetica-Light,Helvetica" font-size="52.0" fill="#000000" transform="matrix(1.00, 0.00, -0.00, -1.00, 244.8, 383.0)">i</text><text xml:space="preserve" font-family="Helvetica-Light,Helvetica" font-size="52.0" fill="#000000" transform="matrix(1.00, 0.00, -0.00, -1.00, 256.3, 383.0)">n</text><text xml:space="preserve" font-family="Helvetica-Light,Helvetica" font-size="52.0" fill="#000000" transform="matrix(1.00, 0.00, -0.00, -1.00, 285.2, 383.0)">g</text><text xml:space="preserve" font-family="Helvetica-Light,Helvetica" font-size="52.0" fill="#000000" transform="matrix(1.00, 0.00, -0.00, -1.00, 317.0, 383.0)"> </text><text xml:space="preserve" font-family="Helvetica-Light,Helvetica" font-size="39.0" fill="#000000" transform="matrix(1.00, 0.00, -0.00, -1.00, 137.0, 266.5)">•</text><text xml:space="preserve" font-family="Helvetica-Light,Helvetica" font-size="52.0" fill="#000000" transform="matrix(1.00, 0.00, -0.00, -1.00, 187.0, 262.0)">v</text><text xml:space="preserve" font-family="Helvetica-Light,Helvetica" font-size="52.0" fill="#000000" transform="matrix(1.00, 0.00, -0.00, -1.00, 213.0, 262.0)">o</text><text xml:space="preserve" font-family="Helvetica-Light,Helvetica" font-size="52.0" fill="#000000" transform="matrix(1.00, 0.00, -0.00, -1.00, 241.9, 262.0)">i</text><text xml:space="preserve" font-family="Helvetica-Light,Helvetica" font-size="52.0" fill="#000000" transform="matrix(1.00, 0.00, -0.00, -1.00, 253.5, 262.0)">d</text></g></svg>