<?xml version="1.0" encoding="UTF-8" standalone="no"?><svg xmlns="http://www.w3.org/2000/svg" xmlns:xlink="http://www.w3.org/1999/xlink" clip-rule="evenodd" stroke-miterlimit="10" viewBox="0 0 1920 1080"><desc>SVG generated by Keynote</desc><defs></defs><g transform="matrix(1.00, 0.00, -0.00, -1.00, 0.0, 1080.0)"><path d="M 0.0 1080.0 L 1920.0 1080.0 L 1920.0 0.0 L 0.0 0.0 Z M 0.0 1080.0 " fill="#FEFFFF"></path><text xml:space="preserve" font-family="Helvetica-Light,Helvetica" font-size="112.0" fill="#000000" transform="matrix(1.00, 0.00, -0.00, -1.00, 760.9, 873.8)">C</text><text xml:space="preserve" font-family="Helvetica-Light,Helvetica" font-size="112.0" fill="#000000" transform="matrix(1.00, 0.00, -0.00, -1.00, 841.7, 873.8)">l</text><text xml:space="preserve" font-family="Helvetica-Light,Helvetica" font-size="112.0" fill="#000000" transform="matrix(1.00, 0.00, -0.00, -1.00, 866.6, 873.8)">a</text><text xml:space="preserve" font-family="Helvetica-Light,Helvetica" font-size="112.0" fill="#000000" transform="matrix(1.00, 0.00, -0.00, -1.00, 928.9, 873.8)">s</text><text xml:space="preserve" font-family="Helvetica-Light,Helvetica" font-size="112.0" fill="#000000" transform="matrix(1.00, 0.00, -0.00, -1.00, 984.9, 873.8)">s</text><text xml:space="preserve" font-family="Helvetica-Light,Helvetica" font-size="112.0" fill="#000000" transform="matrix(1.00, 0.00, -0.00, -1.00, 1040.9, 873.8)">e</text><text xml:space="preserve" font-family="Helvetica-Light,Helvetica" font-size="112.0" fill="#000000" transform="matrix(1.00, 0.00, -0.00, -1.00, 1103.1, 873.8)">s</text><text xml:space="preserve" font-family="Menlo-Bold,Menlo" font-weight="bold" font-size="48.0" fill="#011892" transform="matrix(1.00, 0.00, -0.00, -1.00, 66.1, 641.3)">c</text><text xml:space="preserve" font-family="Menlo-Bold,Menlo" font-weight="bold" font-size="48.0" fill="#011892" transform="matrix(1.00, 0.00, -0.00, -1.00, 95.0, 641.3)">l</text><text xml:space="preserve" font-family="Menlo-Bold,Menlo" font-weight="bold" font-size="48.0" fill="#011892" transform="matrix(1.00, 0.00, -0.00, -1.00, 123.9, 641.3)">a</text><text xml:space="preserve" font-family="Menlo-Bold,Menlo" font-weight="bold" font-size="48.0" fill="#011892" transform="matrix(1.00, 0.00, -0.00, -1.00, 152.8, 641.3)">s</text><text xml:space="preserve" font-family="Menlo-Bold,Menlo" font-weight="bold" font-size="48.0" fill="#011892" transform="matrix(1.00, 0.00, -0.00, -1.00, 181.7, 641.3)">s</text><text xml:space="preserve" font-family="Menlo-Bold,Menlo" font-weight="bold" font-size="48.0" fill="#011892" transform="matrix(1.00, 0.00, -0.00, -1.00, 210.6, 641.3)"> </text><text xml:space="preserve" font-family="Menlo-Regular,Menlo" font-size="48.0" fill="#000000" transform="matrix(1.00, 0.00, -0.00, -1.00, 239.4, 641.3)">A</text><text xml:space="preserve" font-family="Menlo-Regular,Menlo" font-size="48.0" fill="#000000" transform="matrix(1.00, 0.00, -0.00, -1.00, 268.4, 641.3)">n</text><text xml:space="preserve" font-family="Menlo-Regular,Menlo" font-size="48.0" fill="#000000" transform="matrix(1.00, 0.00, -0.00, -1.00, 297.3, 641.3)">i</text><text xml:space="preserve" font-family="Menlo-Regular,Menlo" font-size="48.0" fill="#000000" transform="matrix(1.00, 0.00, -0.00, -1.00, 326.2, 641.3)">m</text><text xml:space="preserve" font-family="Menlo-Regular,Menlo" font-size="48.0" fill="#000000" transform="matrix(1.00, 0.00, -0.00, -1.00, 355.1, 641.3)">a</text><text xml:space="preserve" font-family="Menlo-Regular,Menlo" font-size="48.0" fill="#000000" transform="matrix(1.00, 0.00, -0.00, -1.00, 384.0, 641.3)">l</text><text xml:space="preserve" font-family="Menlo-Regular,Menlo" font-size="48.0" fill="#000000" transform="matrix(1.00, 0.00, -0.00, -1.00, 412.9, 641.3)"> </text><text xml:space="preserve" font-family="Menlo-Regular,Menlo" font-size="48.0" fill="#000000" transform="matrix(1.00, 0.00, -0.00, -1.00, 441.8, 641.3)">{</text><text xml:space="preserve" font-family="Monaco,Monaco" font-size="48.0" fill="#000000" transform="matrix(1.00, 0.00, -0.00, -1.00, 470.6, 641.3)"> </text><text xml:space="preserve" font-family="Menlo-Regular,Menlo" font-size="48.0" fill="#000000" transform="matrix(1.00, 0.00, -0.00, -1.00, 66.1, 585.3)"> </text><text xml:space="preserve" font-family="Menlo-Regular,Menlo" font-size="48.0" fill="#000000" transform="matrix(1.00, 0.00, -0.00, -1.00, 95.0, 585.3)"> </text><text xml:space="preserve" font-family="Menlo-Regular,Menlo" font-size="48.0" fill="#000000" transform="matrix(1.00, 0.00, -0.00, -1.00, 123.9, 585.3)"> </text><text xml:space="preserve" font-family="Menlo-Regular,Menlo" font-size="48.0" fill="#000000" transform="matrix(1.00, 0.00, -0.00, -1.00, 152.8, 585.3)"> </text><text xml:space="preserve" font-family="Menlo-Bold,Menlo" font-weight="bold" font-size="48.0" fill="#7A238C" transform="matrix(1.00, 0.00, -0.00, -1.00, 181.7, 585.3)">n</text><text xml:space="preserve" font-family="Menlo-Bold,Menlo" font-weight="bold" font-size="48.0" fill="#7A238C" transform="matrix(1.00, 0.00, -0.00, -1.00, 210.6, 585.3)">a</text><text xml:space="preserve" font-family="Menlo-Bold,Menlo" font-weight="bold" font-size="48.0" fill="#7A238C" transform="matrix(1.00, 0.00, -0.00, -1.00, 239.5, 585.3)">m</text><text xml:space="preserve" font-family="Menlo-Bold,Menlo" font-weight="bold" font-size="48.0" fill="#7A238C" transform="matrix(1.00, 0.00, -0.00, -1.00, 268.4, 585.3)">e</text><text xml:space="preserve" font-family="Menlo-Regular,Menlo" font-size="48.0" fill="#000000" transform="matrix(1.00, 0.00, -0.00, -1.00, 297.2, 585.3)">:</text><text xml:space="preserve" font-family="Menlo-Bold,Menlo" font-weight="bold" font-size="48.0" fill="#011892" transform="matrix(1.00, 0.00, -0.00, -1.00, 326.1, 585.3)">s</text><text xml:space="preserve" font-family="Menlo-Bold,Menlo" font-weight="bold" font-size="48.0" fill="#011892" transform="matrix(1.00, 0.00, -0.00, -1.00, 355.0, 585.3)">t</text><text xml:space="preserve" font-family="Menlo-Bold,Menlo" font-weight="bold" font-size="48.0" fill="#011892" transform="matrix(1.00, 0.00, -0.00, -1.00, 383.9, 585.3)">r</text><text xml:space="preserve" font-family="Menlo-Bold,Menlo" font-weight="bold" font-size="48.0" fill="#011892" transform="matrix(1.00, 0.00, -0.00, -1.00, 412.9, 585.3)">i</text><text xml:space="preserve" font-family="Menlo-Bold,Menlo" font-weight="bold" font-size="48.0" fill="#011892" transform="matrix(1.00, 0.00, -0.00, -1.00, 441.8, 585.3)">n</text><text xml:space="preserve" font-family="Menlo-Bold,Menlo" font-weight="bold" font-size="48.0" fill="#011892" transform="matrix(1.00, 0.00, -0.00, -1.00, 470.7, 585.3)">g</text><text xml:space="preserve" font-family="Menlo-Regular,Menlo" font-size="48.0" fill="#D68B40" transform="matrix(1.00, 0.00, -0.00, -1.00, 499.5, 585.3)">;</text><text xml:space="preserve" font-family="Monaco,Monaco" font-size="48.0" fill="#D68B40" transform="matrix(1.00, 0.00, -0.00, -1.00, 528.4, 585.3)"> </text><text xml:space="preserve" font-family="Menlo-Regular,Menlo" font-size="48.0" fill="#D68B40" transform="matrix(1.00, 0.00, -0.00, -1.00, 66.1, 529.3)"> </text><text xml:space="preserve" font-family="Menlo-Regular,Menlo" font-size="48.0" fill="#D68B40" transform="matrix(1.00, 0.00, -0.00, -1.00, 95.0, 529.3)"> </text><text xml:space="preserve" font-family="Menlo-Regular,Menlo" font-size="48.0" fill="#D68B40" transform="matrix(1.00, 0.00, -0.00, -1.00, 123.9, 529.3)"> </text><text xml:space="preserve" font-family="Menlo-Regular,Menlo" font-size="48.0" fill="#D68B40" transform="matrix(1.00, 0.00, -0.00, -1.00, 152.8, 529.3)"> </text><text xml:space="preserve" font-family="Menlo-Bold,Menlo" font-weight="bold" font-size="48.0" fill="#011892" transform="matrix(1.00, 0.00, -0.00, -1.00, 181.7, 529.3)">c</text><text xml:space="preserve" font-family="Menlo-Bold,Menlo" font-weight="bold" font-size="48.0" fill="#011892" transform="matrix(1.00, 0.00, -0.00, -1.00, 210.6, 529.3)">o</text><text xml:space="preserve" font-family="Menlo-Bold,Menlo" font-weight="bold" font-size="48.0" fill="#011892" transform="matrix(1.00, 0.00, -0.00, -1.00, 239.5, 529.3)">n</text><text xml:space="preserve" font-family="Menlo-Bold,Menlo" font-weight="bold" font-size="48.0" fill="#011892" transform="matrix(1.00, 0.00, -0.00, -1.00, 268.4, 529.3)">s</text><text xml:space="preserve" font-family="Menlo-Bold,Menlo" font-weight="bold" font-size="48.0" fill="#011892" transform="matrix(1.00, 0.00, -0.00, -1.00, 297.3, 529.3)">t</text><text xml:space="preserve" font-family="Menlo-Bold,Menlo" font-weight="bold" font-size="48.0" fill="#011892" transform="matrix(1.00, 0.00, -0.00, -1.00, 326.2, 529.3)">r</text><text xml:space="preserve" font-family="Menlo-Bold,Menlo" font-weight="bold" font-size="48.0" fill="#011892" transform="matrix(1.00, 0.00, -0.00, -1.00, 355.1, 529.3)">u</text><text xml:space="preserve" font-family="Menlo-Bold,Menlo" font-weight="bold" font-size="48.0" fill="#011892" transform="matrix(1.00, 0.00, -0.00, -1.00, 384.0, 529.3)">c</text><text xml:space="preserve" font-family="Menlo-Bold,Menlo" font-weight="bold" font-size="48.0" fill="#011892" transform="matrix(1.00, 0.00, -0.00, -1.00, 412.9, 529.3)">t</text><text xml:space="preserve" font-family="Menlo-Bold,Menlo" font-weight="bold" font-size="48.0" fill="#011892" transform="matrix(1.00, 0.00, -0.00, -1.00, 441.8, 529.3)">o</text><text xml:space="preserve" font-family="Menlo-Bold,Menlo" font-weight="bold" font-size="48.0" fill="#011892" transform="matrix(1.00, 0.00, -0.00, -1.00, 470.7, 529.3)">r</text><text xml:space="preserve" font-family="Menlo-Regular,Menlo" font-size="48.0" fill="#000000" transform="matrix(1.00, 0.00, -0.00, -1.00, 499.5, 529.3)">(</text><text xml:space="preserve" font-family="Menlo-Regular,Menlo" font-size="48.0" fill="#000000" transform="matrix(1.00, 0.00, -0.00, -1.00, 528.4, 529.3)">t</text><text xml:space="preserve" font-family="Menlo-Regular,Menlo" font-size="48.0" fill="#000000" transform="matrix(1.00, 0.00, -0.00, -1.00, 557.3, 529.3)">h</text><text xml:space="preserve" font-family="Menlo-Regular,Menlo" font-size="48.0" fill="#000000" transform="matrix(1.00, 0.00, -0.00, -1.00, 586.2, 529.3)">e</text><text xml:space="preserve" font-family="Menlo-Regular,Menlo" font-size="48.0" fill="#000000" transform="matrix(1.00, 0.00, -0.00, -1.00, 615.1, 529.3)">N</text><text xml:space="preserve" font-family="Menlo-Regular,Menlo" font-size="48.0" fill="#000000" transform="matrix(1.00, 0.00, -0.00, -1.00, 644.0, 529.3)">a</text><text xml:space="preserve" font-family="Menlo-Regular,Menlo" font-size="48.0" fill="#000000" transform="matrix(1.00, 0.00, -0.00, -1.00, 673.0, 529.3)">m</text><text xml:space="preserve" font-family="Menlo-Regular,Menlo" font-size="48.0" fill="#000000" transform="matrix(1.00, 0.00, -0.00, -1.00, 701.9, 529.3)">e</text><text xml:space="preserve" font-family="Menlo-Regular,Menlo" font-size="48.0" fill="#000000" transform="matrix(1.00, 0.00, -0.00, -1.00, 730.8, 529.3)">:</text><text xml:space="preserve" font-family="Menlo-Regular,Menlo" font-size="48.0" fill="#000000" transform="matrix(1.00, 0.00, -0.00, -1.00, 759.7, 529.3)"> </text><text xml:space="preserve" font-family="Menlo-Bold,Menlo" font-weight="bold" font-size="48.0" fill="#011892" transform="matrix(1.00, 0.00, -0.00, -1.00, 788.5, 529.3)">s</text><text xml:space="preserve" font-family="Menlo-Bold,Menlo" font-weight="bold" font-size="48.0" fill="#011892" transform="matrix(1.00, 0.00, -0.00, -1.00, 817.4, 529.3)">t</text><text xml:space="preserve" font-family="Menlo-Bold,Menlo" font-weight="bold" font-size="48.0" fill="#011892" transform="matrix(1.00, 0.00, -0.00, -1.00, 846.3, 529.3)">r</text><text xml:space="preserve" font-family="Menlo-Bold,Menlo" font-weight="bold" font-size="48.0" fill="#011892" transform="matrix(1.00, 0.00, -0.00, -1.00, 875.2, 529.3)">i</text><text xml:space="preserve" font-family="Menlo-Bold,Menlo" font-weight="bold" font-size="48.0" fill="#011892" transform="matrix(1.00, 0.00, -0.00, -1.00, 904.1, 529.3)">n</text><text xml:space="preserve" font-family="Menlo-Bold,Menlo" font-weight="bold" font-size="48.0" fill="#011892" transform="matrix(1.00, 0.00, -0.00, -1.00, 933.0, 529.3)">g</text><text xml:space="preserve" font-family="Menlo-Regular,Menlo" font-size="48.0" fill="#000000" transform="matrix(1.00, 0.00, -0.00, -1.00, 961.9, 529.3)">)</text><text xml:space="preserve" font-family="Menlo-Regular,Menlo" font-size="48.0" fill="#000000" transform="matrix(1.00, 0.00, -0.00, -1.00, 990.8, 529.3)"> </text><text xml:space="preserve" font-family="Menlo-Regular,Menlo" font-size="48.0" fill="#000000" transform="matrix(1.00, 0.00, -0.00, -1.00, 1019.7, 529.3)">{</text><text xml:space="preserve" font-family="Menlo-Regular,Menlo" font-size="48.0" fill="#000000" transform="matrix(1.00, 0.00, -0.00, -1.00, 1048.6, 529.3)"> </text><text xml:space="preserve" font-family="Menlo-Bold,Menlo" font-weight="bold" font-size="48.0" fill="#011892" transform="matrix(1.00, 0.00, -0.00, -1.00, 1077.5, 529.3)">t</text><text xml:space="preserve" font-family="Menlo-Bold,Menlo" font-weight="bold" font-size="48.0" fill="#011892" transform="matrix(1.00, 0.00, -0.00, -1.00, 1106.4, 529.3)">h</text><text xml:space="preserve" font-family="Menlo-Bold,Menlo" font-weight="bold" font-size="48.0" fill="#011892" transform="matrix(1.00, 0.00, -0.00, -1.00, 1135.3, 529.3)">i</text><text xml:space="preserve" font-family="Menlo-Bold,Menlo" font-weight="bold" font-size="48.0" fill="#011892" transform="matrix(1.00, 0.00, -0.00, -1.00, 1164.2, 529.3)">s</text><text xml:space="preserve" font-family="Menlo-Regular,Menlo" font-size="48.0" fill="#000000" transform="matrix(1.00, 0.00, -0.00, -1.00, 1193.1, 529.3)">.</text><text xml:space="preserve" font-family="Menlo-Bold,Menlo" font-weight="bold" font-size="48.0" fill="#7A238C" transform="matrix(1.00, 0.00, -0.00, -1.00, 1222.0, 529.3)">n</text><text xml:space="preserve" font-family="Menlo-Bold,Menlo" font-weight="bold" font-size="48.0" fill="#7A238C" transform="matrix(1.00, 0.00, -0.00, -1.00, 1250.9, 529.3)">a</text><text xml:space="preserve" font-family="Menlo-Bold,Menlo" font-weight="bold" font-size="48.0" fill="#7A238C" transform="matrix(1.00, 0.00, -0.00, -1.00, 1279.8, 529.3)">m</text><text xml:space="preserve" font-family="Menlo-Bold,Menlo" font-weight="bold" font-size="48.0" fill="#7A238C" transform="matrix(1.00, 0.00, -0.00, -1.00, 1308.7, 529.3)">e</text><text xml:space="preserve" font-family="Menlo-Bold,Menlo" font-weight="bold" font-size="48.0" fill="#7A238C" transform="matrix(1.00, 0.00, -0.00, -1.00, 1337.6, 529.3)"> </text><text xml:space="preserve" font-family="Menlo-Regular,Menlo" font-size="48.0" fill="#000000" transform="matrix(1.00, 0.00, -0.00, -1.00, 1366.5, 529.3)">=</text><text xml:space="preserve" font-family="Menlo-Regular,Menlo" font-size="48.0" fill="#000000" transform="matrix(1.00, 0.00, -0.00, -1.00, 1395.4, 529.3)"> </text><text xml:space="preserve" font-family="Menlo-Regular,Menlo" font-size="48.0" fill="#000000" transform="matrix(1.00, 0.00, -0.00, -1.00, 1424.3, 529.3)">t</text><text xml:space="preserve" font-family="Menlo-Regular,Menlo" font-size="48.0" fill="#000000" transform="matrix(1.00, 0.00, -0.00, -1.00, 1453.2, 529.3)">h</text><text xml:space="preserve" font-family="Menlo-Regular,Menlo" font-size="48.0" fill="#000000" transform="matrix(1.00, 0.00, -0.00, -1.00, 1482.1, 529.3)">e</text><text xml:space="preserve" font-family="Menlo-Regular,Menlo" font-size="48.0" fill="#000000" transform="matrix(1.00, 0.00, -0.00, -1.00, 1511.0, 529.3)">N</text><text xml:space="preserve" font-family="Menlo-Regular,Menlo" font-size="48.0" fill="#000000" transform="matrix(1.00, 0.00, -0.00, -1.00, 1539.9, 529.3)">a</text><text xml:space="preserve" font-family="Menlo-Regular,Menlo" font-size="48.0" fill="#000000" transform="matrix(1.00, 0.00, -0.00, -1.00, 1568.8, 529.3)">m</text><text xml:space="preserve" font-family="Menlo-Regular,Menlo" font-size="48.0" fill="#000000" transform="matrix(1.00, 0.00, -0.00, -1.00, 1597.7, 529.3)">e</text><text xml:space="preserve" font-family="Menlo-Regular,Menlo" font-size="48.0" fill="#D68B40" transform="matrix(1.00, 0.00, -0.00, -1.00, 1626.6, 529.3)">;</text><text xml:space="preserve" font-family="Menlo-Regular,Menlo" font-size="48.0" fill="#D68B40" transform="matrix(1.00, 0.00, -0.00, -1.00, 1655.5, 529.3)"> </text><text xml:space="preserve" font-family="Menlo-Regular,Menlo" font-size="48.0" fill="#000000" transform="matrix(1.00, 0.00, -0.00, -1.00, 1684.4, 529.3)">}</text><text xml:space="preserve" font-family="Monaco,Monaco" font-size="48.0" fill="#000000" transform="matrix(1.00, 0.00, -0.00, -1.00, 1713.3, 529.3)"> </text><text xml:space="preserve" font-family="Menlo-Regular,Menlo" font-size="48.0" fill="#000000" transform="matrix(1.00, 0.00, -0.00, -1.00, 66.1, 473.3)"> </text><text xml:space="preserve" font-family="Menlo-Regular,Menlo" font-size="48.0" fill="#000000" transform="matrix(1.00, 0.00, -0.00, -1.00, 95.0, 473.3)"> </text><text xml:space="preserve" font-family="Menlo-Regular,Menlo" font-size="48.0" fill="#000000" transform="matrix(1.00, 0.00, -0.00, -1.00, 123.9, 473.3)"> </text><text xml:space="preserve" font-family="Menlo-Regular,Menlo" font-size="48.0" fill="#000000" transform="matrix(1.00, 0.00, -0.00, -1.00, 152.8, 473.3)"> </text><text xml:space="preserve" font-family="Menlo-Regular,Menlo" font-size="48.0" fill="#8C8B54" transform="matrix(1.00, 0.00, -0.00, -1.00, 181.7, 473.3)">m</text><text xml:space="preserve" font-family="Menlo-Regular,Menlo" font-size="48.0" fill="#8C8B54" transform="matrix(1.00, 0.00, -0.00, -1.00, 210.6, 473.3)">o</text><text xml:space="preserve" font-family="Menlo-Regular,Menlo" font-size="48.0" fill="#8C8B54" transform="matrix(1.00, 0.00, -0.00, -1.00, 239.5, 473.3)">v</text><text xml:space="preserve" font-family="Menlo-Regular,Menlo" font-size="48.0" fill="#8C8B54" transform="matrix(1.00, 0.00, -0.00, -1.00, 268.4, 473.3)">e</text><text xml:space="preserve" font-family="Menlo-Regular,Menlo" font-size="48.0" fill="#000000" transform="matrix(1.00, 0.00, -0.00, -1.00, 297.2, 473.3)">(</text><text xml:space="preserve" font-family="Menlo-Regular,Menlo" font-size="48.0" fill="#000000" transform="matrix(1.00, 0.00, -0.00, -1.00, 326.1, 473.3)">m</text><text xml:space="preserve" font-family="Menlo-Regular,Menlo" font-size="48.0" fill="#000000" transform="matrix(1.00, 0.00, -0.00, -1.00, 355.1, 473.3)">e</text><text xml:space="preserve" font-family="Menlo-Regular,Menlo" font-size="48.0" fill="#000000" transform="matrix(1.00, 0.00, -0.00, -1.00, 384.0, 473.3)">t</text><text xml:space="preserve" font-family="Menlo-Regular,Menlo" font-size="48.0" fill="#000000" transform="matrix(1.00, 0.00, -0.00, -1.00, 412.9, 473.3)">e</text><text xml:space="preserve" font-family="Menlo-Regular,Menlo" font-size="48.0" fill="#000000" transform="matrix(1.00, 0.00, -0.00, -1.00, 441.8, 473.3)">r</text><text xml:space="preserve" font-family="Menlo-Regular,Menlo" font-size="48.0" fill="#000000" transform="matrix(1.00, 0.00, -0.00, -1.00, 470.7, 473.3)">s</text><text xml:space="preserve" font-family="Menlo-Regular,Menlo" font-size="48.0" fill="#000000" transform="matrix(1.00, 0.00, -0.00, -1.00, 499.6, 473.3)">:</text><text xml:space="preserve" font-family="Menlo-Regular,Menlo" font-size="48.0" fill="#000000" transform="matrix(1.00, 0.00, -0.00, -1.00, 528.5, 473.3)"> </text><text xml:space="preserve" font-family="Menlo-Bold,Menlo" font-weight="bold" font-size="48.0" fill="#011892" transform="matrix(1.00, 0.00, -0.00, -1.00, 557.3, 473.3)">n</text><text xml:space="preserve" font-family="Menlo-Bold,Menlo" font-weight="bold" font-size="48.0" fill="#011892" transform="matrix(1.00, 0.00, -0.00, -1.00, 586.2, 473.3)">u</text><text xml:space="preserve" font-family="Menlo-Bold,Menlo" font-weight="bold" font-size="48.0" fill="#011892" transform="matrix(1.00, 0.00, -0.00, -1.00, 615.1, 473.3)">m</text><text xml:space="preserve" font-family="Menlo-Bold,Menlo" font-weight="bold" font-size="48.0" fill="#011892" transform="matrix(1.00, 0.00, -0.00, -1.00, 644.0, 473.3)">b</text><text xml:space="preserve" font-family="Menlo-Bold,Menlo" font-weight="bold" font-size="48.0" fill="#011892" transform="matrix(1.00, 0.00, -0.00, -1.00, 672.9, 473.3)">e</text><text xml:space="preserve" font-family="Menlo-Bold,Menlo" font-weight="bold" font-size="48.0" fill="#011892" transform="matrix(1.00, 0.00, -0.00, -1.00, 701.8, 473.3)">r</text><text xml:space="preserve" font-family="Menlo-Bold,Menlo" font-weight="bold" font-size="48.0" fill="#011892" transform="matrix(1.00, 0.00, -0.00, -1.00, 730.7, 473.3)"> </text><text xml:space="preserve" font-family="Menlo-Regular,Menlo" font-size="48.0" fill="#000000" transform="matrix(1.00, 0.00, -0.00, -1.00, 759.6, 473.3)">=</text><text xml:space="preserve" font-family="Menlo-Regular,Menlo" font-size="48.0" fill="#000000" transform="matrix(1.00, 0.00, -0.00, -1.00, 788.5, 473.3)"> </text><text xml:space="preserve" font-family="Menlo-Regular,Menlo" font-size="48.0" fill="#0432FF" transform="matrix(1.00, 0.00, -0.00, -1.00, 817.4, 473.3)">0</text><text xml:space="preserve" font-family="Menlo-Regular,Menlo" font-size="48.0" fill="#000000" transform="matrix(1.00, 0.00, -0.00, -1.00, 846.3, 473.3)">)</text><text xml:space="preserve" font-family="Menlo-Regular,Menlo" font-size="48.0" fill="#000000" transform="matrix(1.00, 0.00, -0.00, -1.00, 875.2, 473.3)"> </text><text xml:space="preserve" font-family="Menlo-Regular,Menlo" font-size="48.0" fill="#000000" transform="matrix(1.00, 0.00, -0.00, -1.00, 904.1, 473.3)">{</text><text xml:space="preserve" font-family="Monaco,Monaco" font-size="48.0" fill="#000000" transform="matrix(1.00, 0.00, -0.00, -1.00, 933.0, 473.3)"> </text><text xml:space="preserve" font-family="Menlo-Regular,Menlo" font-size="48.0" fill="#000000" transform="matrix(1.00, 0.00, -0.00, -1.00, 66.1, 417.3)"> </text><text xml:space="preserve" font-family="Menlo-Regular,Menlo" font-size="48.0" fill="#000000" transform="matrix(1.00, 0.00, -0.00, -1.00, 95.0, 417.3)"> </text><text xml:space="preserve" font-family="Menlo-Regular,Menlo" font-size="48.0" fill="#000000" transform="matrix(1.00, 0.00, -0.00, -1.00, 123.9, 417.3)"> </text><text xml:space="preserve" font-family="Menlo-Regular,Menlo" font-size="48.0" fill="#000000" transform="matrix(1.00, 0.00, -0.00, -1.00, 152.8, 417.3)"> </text><text xml:space="preserve" font-family="Menlo-Regular,Menlo" font-size="48.0" fill="#000000" transform="matrix(1.00, 0.00, -0.00, -1.00, 181.7, 417.3)"> </text><text xml:space="preserve" font-family="Menlo-Regular,Menlo" font-size="48.0" fill="#000000" transform="matrix(1.00, 0.00, -0.00, -1.00, 210.6, 417.3)"> </text><text xml:space="preserve" font-family="Menlo-Regular,Menlo" font-size="48.0" fill="#000000" transform="matrix(1.00, 0.00, -0.00, -1.00, 239.5, 417.3)"> </text><text xml:space="preserve" font-family="Menlo-Regular,Menlo" font-size="48.0" fill="#000000" transform="matrix(1.00, 0.00, -0.00, -1.00, 268.4, 417.3)"> </text><text xml:space="preserve" font-family="Menlo-Italic,Menlo" font-style="italic" font-size="48.0" fill="#000000" transform="matrix(1.00, 0.00, -0.00, -1.00, 297.2, 417.3)">a</text><text xml:space="preserve" font-family="Menlo-Italic,Menlo" font-style="italic" font-size="48.0" fill="#000000" transform="matrix(1.00, 0.00, -0.00, -1.00, 326.1, 417.3)">l</text><text xml:space="preserve" font-family="Menlo-Italic,Menlo" font-style="italic" font-size="48.0" fill="#000000" transform="matrix(1.00, 0.00, -0.00, -1.00, 355.1, 417.3)">e</text><text xml:space="preserve" font-family="Menlo-Italic,Menlo" font-style="italic" font-size="48.0" fill="#000000" transform="matrix(1.00, 0.00, -0.00, -1.00, 384.0, 417.3)">r</text><text xml:space="preserve" font-family="Menlo-Italic,Menlo" font-style="italic" font-size="48.0" fill="#000000" transform="matrix(1.00, 0.00, -0.00, -1.00, 412.9, 417.3)">t</text><text xml:space="preserve" font-family="Menlo-Regular,Menlo" font-size="48.0" fill="#000000" transform="matrix(1.00, 0.00, -0.00, -1.00, 441.7, 417.3)">(</text><text xml:space="preserve" font-family="Menlo-Bold,Menlo" font-weight="bold" font-size="48.0" fill="#011892" transform="matrix(1.00, 0.00, -0.00, -1.00, 470.6, 417.3)">t</text><text xml:space="preserve" font-family="Menlo-Bold,Menlo" font-weight="bold" font-size="48.0" fill="#011892" transform="matrix(1.00, 0.00, -0.00, -1.00, 499.5, 417.3)">h</text><text xml:space="preserve" font-family="Menlo-Bold,Menlo" font-weight="bold" font-size="48.0" fill="#011892" transform="matrix(1.00, 0.00, -0.00, -1.00, 528.4, 417.3)">i</text><text xml:space="preserve" font-family="Menlo-Bold,Menlo" font-weight="bold" font-size="48.0" fill="#011892" transform="matrix(1.00, 0.00, -0.00, -1.00, 557.3, 417.3)">s</text><text xml:space="preserve" font-family="Menlo-Regular,Menlo" font-size="48.0" fill="#000000" transform="matrix(1.00, 0.00, -0.00, -1.00, 586.2, 417.3)">.</text><text xml:space="preserve" font-family="Menlo-Bold,Menlo" font-weight="bold" font-size="48.0" fill="#7A238C" transform="matrix(1.00, 0.00, -0.00, -1.00, 615.1, 417.3)">n</text><text xml:space="preserve" font-family="Menlo-Bold,Menlo" font-weight="bold" font-size="48.0" fill="#7A238C" transform="matrix(1.00, 0.00, -0.00, -1.00, 644.0, 417.3)">a</text><text xml:space="preserve" font-family="Menlo-Bold,Menlo" font-weight="bold" font-size="48.0" fill="#7A238C" transform="matrix(1.00, 0.00, -0.00, -1.00, 672.9, 417.3)">m</text><text xml:space="preserve" font-family="Menlo-Bold,Menlo" font-weight="bold" font-size="48.0" fill="#7A238C" transform="matrix(1.00, 0.00, -0.00, -1.00, 701.8, 417.3)">e</text><text xml:space="preserve" font-family="Menlo-Bold,Menlo" font-weight="bold" font-size="48.0" fill="#7A238C" transform="matrix(1.00, 0.00, -0.00, -1.00, 730.7, 417.3)"> </text><text xml:space="preserve" font-family="Menlo-Regular,Menlo" font-size="48.0" fill="#000000" transform="matrix(1.00, 0.00, -0.00, -1.00, 759.6, 417.3)">+</text><text xml:space="preserve" font-family="Menlo-Regular,Menlo" font-size="48.0" fill="#000000" transform="matrix(1.00, 0.00, -0.00, -1.00, 788.5, 417.3)"> </text><text xml:space="preserve" font-family="Menlo-Bold,Menlo" font-weight="bold" font-size="48.0" fill="#008E00" transform="matrix(1.00, 0.00, -0.00, -1.00, 817.4, 417.3)">"</text><text xml:space="preserve" font-family="Menlo-Bold,Menlo" font-weight="bold" font-size="48.0" fill="#008E00" transform="matrix(1.00, 0.00, -0.00, -1.00, 846.3, 417.3)"> </text><text xml:space="preserve" font-family="Menlo-Bold,Menlo" font-weight="bold" font-size="48.0" fill="#008E00" transform="matrix(1.00, 0.00, -0.00, -1.00, 875.2, 417.3)">m</text><text xml:space="preserve" font-family="Menlo-Bold,Menlo" font-weight="bold" font-size="48.0" fill="#008E00" transform="matrix(1.00, 0.00, -0.00, -1.00, 904.1, 417.3)">o</text><text xml:space="preserve" font-family="Menlo-Bold,Menlo" font-weight="bold" font-size="48.0" fill="#008E00" transform="matrix(1.00, 0.00, -0.00, -1.00, 933.0, 417.3)">v</text><text xml:space="preserve" font-family="Menlo-Bold,Menlo" font-weight="bold" font-size="48.0" fill="#008E00" transform="matrix(1.00, 0.00, -0.00, -1.00, 961.9, 417.3)">e</text><text xml:space="preserve" font-family="Menlo-Bold,Menlo" font-weight="bold" font-size="48.0" fill="#008E00" transform="matrix(1.00, 0.00, -0.00, -1.00, 990.8, 417.3)">d</text><text xml:space="preserve" font-family="Menlo-Bold,Menlo" font-weight="bold" font-size="48.0" fill="#008E00" transform="matrix(1.00, 0.00, -0.00, -1.00, 1019.7, 417.3)"> </text><text xml:space="preserve" font-family="Menlo-Bold,Menlo" font-weight="bold" font-size="48.0" fill="#008E00" transform="matrix(1.00, 0.00, -0.00, -1.00, 1048.6, 417.3)">"</text><text xml:space="preserve" font-family="Menlo-Bold,Menlo" font-weight="bold" font-size="48.0" fill="#008E00" transform="matrix(1.00, 0.00, -0.00, -1.00, 1077.5, 417.3)"> </text><text xml:space="preserve" font-family="Menlo-Regular,Menlo" font-size="48.0" fill="#000000" transform="matrix(1.00, 0.00, -0.00, -1.00, 1106.4, 417.3)">+</text><text xml:space="preserve" font-family="Menlo-Regular,Menlo" font-size="48.0" fill="#000000" transform="matrix(1.00, 0.00, -0.00, -1.00, 1135.3, 417.3)"> </text><text xml:space="preserve" font-family="Menlo-Regular,Menlo" font-size="48.0" fill="#000000" transform="matrix(1.00, 0.00, -0.00, -1.00, 1164.2, 417.3)">m</text><text xml:space="preserve" font-family="Menlo-Regular,Menlo" font-size="48.0" fill="#000000" transform="matrix(1.00, 0.00, -0.00, -1.00, 1193.1, 417.3)">e</text><text xml:space="preserve" font-family="Menlo-Regular,Menlo" font-size="48.0" fill="#000000" transform="matrix(1.00, 0.00, -0.00, -1.00, 1222.0, 417.3)">t</text><text xml:space="preserve" font-family="Menlo-Regular,Menlo" font-size="48.0" fill="#000000" transform="matrix(1.00, 0.00, -0.00, -1.00, 1250.9, 417.3)">e</text><text xml:space="preserve" font-family="Menlo-Regular,Menlo" font-size="48.0" fill="#000000" transform="matrix(1.00, 0.00, -0.00, -1.00, 1279.8, 417.3)">r</text><text xml:space="preserve" font-family="Menlo-Regular,Menlo" font-size="48.0" fill="#000000" transform="matrix(1.00, 0.00, -0.00, -1.00, 1308.7, 417.3)">s</text><text xml:space="preserve" font-family="Menlo-Regular,Menlo" font-size="48.0" fill="#000000" transform="matrix(1.00, 0.00, -0.00, -1.00, 1337.6, 417.3)"> </text><text xml:space="preserve" font-family="Menlo-Regular,Menlo" font-size="48.0" fill="#000000" transform="matrix(1.00, 0.00, -0.00, -1.00, 1366.5, 417.3)">+</text><text xml:space="preserve" font-family="Menlo-Regular,Menlo" font-size="48.0" fill="#000000" transform="matrix(1.00, 0.00, -0.00, -1.00, 1395.4, 417.3)"> </text><text xml:space="preserve" font-family="Menlo-Bold,Menlo" font-weight="bold" font-size="48.0" fill="#008E00" transform="matrix(1.00, 0.00, -0.00, -1.00, 1424.3, 417.3)">"</text><text xml:space="preserve" font-family="Menlo-Bold,Menlo" font-weight="bold" font-size="48.0" fill="#008E00" transform="matrix(1.00, 0.00, -0.00, -1.00, 1453.2, 417.3)">m</text><text xml:space="preserve" font-family="Menlo-Bold,Menlo" font-weight="bold" font-size="48.0" fill="#008E00" transform="matrix(1.00, 0.00, -0.00, -1.00, 1482.1, 417.3)">.</text><text xml:space="preserve" font-family="Menlo-Bold,Menlo" font-weight="bold" font-size="48.0" fill="#008E00" transform="matrix(1.00, 0.00, -0.00, -1.00, 1511.0, 417.3)">"</text><text xml:space="preserve" font-family="Menlo-Regular,Menlo" font-size="48.0" fill="#000000" transform="matrix(1.00, 0.00, -0.00, -1.00, 1539.9, 417.3)">)</text><text xml:space="preserve" font-family="Menlo-Regular,Menlo" font-size="48.0" fill="#D68B40" transform="matrix(1.00, 0.00, -0.00, -1.00, 1568.8, 417.3)">;</text><text xml:space="preserve" font-family="Monaco,Monaco" font-size="48.0" fill="#D68B40" transform="matrix(1.00, 0.00, -0.00, -1.00, 1597.7, 417.3)"> </text><text xml:space="preserve" font-family="Menlo-Regular,Menlo" font-size="48.0" fill="#D68B40" transform="matrix(1.00, 0.00, -0.00, -1.00, 66.1, 361.3)"> </text><text xml:space="preserve" font-family="Menlo-Regular,Menlo" font-size="48.0" fill="#D68B40" transform="matrix(1.00, 0.00, -0.00, -1.00, 95.0, 361.3)"> </text><text xml:space="preserve" font-family="Menlo-Regular,Menlo" font-size="48.0" fill="#D68B40" transform="matrix(1.00, 0.00, -0.00, -1.00, 123.9, 361.3)"> </text><text xml:space="preserve" font-family="Menlo-Regular,Menlo" font-size="48.0" fill="#D68B40" transform="matrix(1.00, 0.00, -0.00, -1.00, 152.8, 361.3)"> </text><text xml:space="preserve" font-family="Menlo-Regular,Menlo" font-size="48.0" fill="#000000" transform="matrix(1.00, 0.00, -0.00, -1.00, 181.7, 361.3)">}</text><text xml:space="preserve" font-family="Monaco,Monaco" font-size="48.0" fill="#000000" transform="matrix(1.00, 0.00, -0.00, -1.00, 210.5, 361.3)"> </text><text xml:space="preserve" font-family="Menlo-Regular,Menlo" font-size="48.0" fill="#000000" transform="matrix(1.00, 0.00, -0.00, -1.00, 66.1, 305.3)">}</text><text xml:space="preserve" font-family="Monaco,Monaco" font-size="48.0" fill="#000000" transform="matrix(1.00, 0.00, -0.00, -1.00, 95.0, 305.3)"> </text><text xml:space="preserve" font-family="Menlo-Bold,Menlo" font-weight="bold" font-size="48.0" fill="#011892" transform="matrix(1.00, 0.00, -0.00, -1.00, 66.1, 249.3)">v</text><text xml:space="preserve" font-family="Menlo-Bold,Menlo" font-weight="bold" font-size="48.0" fill="#011892" transform="matrix(1.00, 0.00, -0.00, -1.00, 95.0, 249.3)">a</text><text xml:space="preserve" font-family="Menlo-Bold,Menlo" font-weight="bold" font-size="48.0" fill="#011892" transform="matrix(1.00, 0.00, -0.00, -1.00, 123.9, 249.3)">r</text><text xml:space="preserve" font-family="Menlo-Bold,Menlo" font-weight="bold" font-size="48.0" fill="#011892" transform="matrix(1.00, 0.00, -0.00, -1.00, 152.8, 249.3)"> </text><text xml:space="preserve" font-family="Menlo-BoldItalic,Menlo" font-style="italic" font-weight="bold" font-size="48.0" fill="#7A238C" transform="matrix(1.00, 0.00, -0.00, -1.00, 181.7, 249.3)">g</text><text xml:space="preserve" font-family="Menlo-BoldItalic,Menlo" font-style="italic" font-weight="bold" font-size="48.0" fill="#7A238C" transform="matrix(1.00, 0.00, -0.00, -1.00, 210.6, 249.3)">r</text><text xml:space="preserve" font-family="Menlo-BoldItalic,Menlo" font-style="italic" font-weight="bold" font-size="48.0" fill="#7A238C" transform="matrix(1.00, 0.00, -0.00, -1.00, 239.5, 249.3)">e</text><text xml:space="preserve" font-family="Menlo-BoldItalic,Menlo" font-style="italic" font-weight="bold" font-size="48.0" fill="#7A238C" transform="matrix(1.00, 0.00, -0.00, -1.00, 268.4, 249.3)">e</text><text xml:space="preserve" font-family="Menlo-BoldItalic,Menlo" font-style="italic" font-weight="bold" font-size="48.0" fill="#7A238C" transform="matrix(1.00, 0.00, -0.00, -1.00, 297.3, 249.3)">t</text><text xml:space="preserve" font-family="Menlo-BoldItalic,Menlo" font-style="italic" font-weight="bold" font-size="48.0" fill="#7A238C" transform="matrix(1.00, 0.00, -0.00, -1.00, 326.2, 249.3)">e</text><text xml:space="preserve" font-family="Menlo-BoldItalic,Menlo" font-style="italic" font-weight="bold" font-size="48.0" fill="#7A238C" transform="matrix(1.00, 0.00, -0.00, -1.00, 355.1, 249.3)">r</text><text xml:space="preserve" font-family="Menlo-BoldItalic,Menlo" font-style="italic" font-weight="bold" font-size="48.0" fill="#7A238C" transform="matrix(1.00, 0.00, -0.00, -1.00, 384.0, 249.3)"> </text><text xml:space="preserve" font-family="Menlo-Regular,Menlo" font-size="48.0" fill="#000000" transform="matrix(1.00, 0.00, -0.00, -1.00, 412.8, 249.3)">=</text><text xml:space="preserve" font-family="Menlo-Regular,Menlo" font-size="48.0" fill="#000000" transform="matrix(1.00, 0.00, -0.00, -1.00, 441.7, 249.3)"> </text><text xml:space="preserve" font-family="Menlo-Bold,Menlo" font-weight="bold" font-size="48.0" fill="#011892" transform="matrix(1.00, 0.00, -0.00, -1.00, 470.6, 249.3)">n</text><text xml:space="preserve" font-family="Menlo-Bold,Menlo" font-weight="bold" font-size="48.0" fill="#011892" transform="matrix(1.00, 0.00, -0.00, -1.00, 499.5, 249.3)">e</text><text xml:space="preserve" font-family="Menlo-Bold,Menlo" font-weight="bold" font-size="48.0" fill="#011892" transform="matrix(1.00, 0.00, -0.00, -1.00, 528.4, 249.3)">w</text><text xml:space="preserve" font-family="Menlo-Bold,Menlo" font-weight="bold" font-size="48.0" fill="#011892" transform="matrix(1.00, 0.00, -0.00, -1.00, 557.3, 249.3)"> </text><text xml:space="preserve" font-family="Menlo-Regular,Menlo" font-size="48.0" fill="#000000" transform="matrix(1.00, 0.00, -0.00, -1.00, 586.2, 249.3)">A</text><text xml:space="preserve" font-family="Menlo-Regular,Menlo" font-size="48.0" fill="#000000" transform="matrix(1.00, 0.00, -0.00, -1.00, 615.1, 249.3)">n</text><text xml:space="preserve" font-family="Menlo-Regular,Menlo" font-size="48.0" fill="#000000" transform="matrix(1.00, 0.00, -0.00, -1.00, 644.0, 249.3)">i</text><text xml:space="preserve" font-family="Menlo-Regular,Menlo" font-size="48.0" fill="#000000" transform="matrix(1.00, 0.00, -0.00, -1.00, 672.9, 249.3)">m</text><text xml:space="preserve" font-family="Menlo-Regular,Menlo" font-size="48.0" fill="#000000" transform="matrix(1.00, 0.00, -0.00, -1.00, 701.8, 249.3)">a</text><text xml:space="preserve" font-family="Menlo-Regular,Menlo" font-size="48.0" fill="#000000" transform="matrix(1.00, 0.00, -0.00, -1.00, 730.7, 249.3)">l</text><text xml:space="preserve" font-family="Menlo-Regular,Menlo" font-size="48.0" fill="#000000" transform="matrix(1.00, 0.00, -0.00, -1.00, 759.6, 249.3)">(</text><text xml:space="preserve" font-family="Menlo-Bold,Menlo" font-weight="bold" font-size="48.0" fill="#008E00" transform="matrix(1.00, 0.00, -0.00, -1.00, 788.5, 249.3)">"</text><text xml:space="preserve" font-family="Menlo-Bold,Menlo" font-weight="bold" font-size="48.0" fill="#008E00" transform="matrix(1.00, 0.00, -0.00, -1.00, 817.4, 249.3)">f</text><text xml:space="preserve" font-family="Menlo-Bold,Menlo" font-weight="bold" font-size="48.0" fill="#008E00" transform="matrix(1.00, 0.00, -0.00, -1.00, 846.3, 249.3)">i</text><text xml:space="preserve" font-family="Menlo-Bold,Menlo" font-weight="bold" font-size="48.0" fill="#008E00" transform="matrix(1.00, 0.00, -0.00, -1.00, 875.2, 249.3)">d</text><text xml:space="preserve" font-family="Menlo-Bold,Menlo" font-weight="bold" font-size="48.0" fill="#008E00" transform="matrix(1.00, 0.00, -0.00, -1.00, 904.1, 249.3)">o</text><text xml:space="preserve" font-family="Menlo-Bold,Menlo" font-weight="bold" font-size="48.0" fill="#008E00" transform="matrix(1.00, 0.00, -0.00, -1.00, 933.0, 249.3)">"</text><text xml:space="preserve" font-family="Menlo-Regular,Menlo" font-size="48.0" fill="#000000" transform="matrix(1.00, 0.00, -0.00, -1.00, 961.9, 249.3)">)</text><text xml:space="preserve" font-family="Menlo-Regular,Menlo" font-size="48.0" fill="#D68B40" transform="matrix(1.00, 0.00, -0.00, -1.00, 990.8, 249.3)">;</text></g></svg>