<?xml version="1.0" encoding="UTF-8" standalone="no"?><svg xmlns="http://www.w3.org/2000/svg" xmlns:xlink="http://www.w3.org/1999/xlink" clip-rule="evenodd" stroke-miterlimit="10" viewBox="0 0 1920 1080"><desc>SVG generated by Keynote</desc><defs></defs><g transform="matrix(1.00, 0.00, -0.00, -1.00, 0.0, 1080.0)"><path d="M 0.0 1080.0 L 1920.0 1080.0 L 1920.0 0.0 L 0.0 0.0 Z M 0.0 1080.0 " fill="#FEFFFF"></path><text xml:space="preserve" font-family="Helvetica-Light,Helvetica" font-size="112.0" fill="#000000" transform="matrix(1.00, 0.00, -0.00, -1.00, 869.7, 873.8)">a</text><text xml:space="preserve" font-family="Helvetica-Light,Helvetica" font-size="112.0" fill="#000000" transform="matrix(1.00, 0.00, -0.00, -1.00, 932.0, 873.8)">n</text><text xml:space="preserve" font-family="Helvetica-Light,Helvetica" font-size="112.0" fill="#000000" transform="matrix(1.00, 0.00, -0.00, -1.00, 994.3, 873.8)">y</text><text xml:space="preserve" font-family="Helvetica-Light,Helvetica" font-size="32.4" fill="#000000" transform="matrix(1.00, 0.00, -0.00, -1.00, 137.0, 782.4)">•</text><text xml:space="preserve" font-family="Helvetica-Light,Helvetica" font-size="43.2" fill="#000000" transform="matrix(1.00, 0.00, -0.00, -1.00, 178.5, 777.9)">D</text><text xml:space="preserve" font-family="Helvetica-Light,Helvetica" font-size="43.2" fill="#000000" transform="matrix(1.00, 0.00, -0.00, -1.00, 209.7, 777.9)">y</text><text xml:space="preserve" font-family="Helvetica-Light,Helvetica" font-size="43.2" fill="#000000" transform="matrix(1.00, 0.00, -0.00, -1.00, 231.2, 777.9)">n</text><text xml:space="preserve" font-family="Helvetica-Light,Helvetica" font-size="43.2" fill="#000000" transform="matrix(1.00, 0.00, -0.00, -1.00, 255.2, 777.9)">a</text><text xml:space="preserve" font-family="Helvetica-Light,Helvetica" font-size="43.2" fill="#000000" transform="matrix(1.00, 0.00, -0.00, -1.00, 279.2, 777.9)">m</text><text xml:space="preserve" font-family="Helvetica-Light,Helvetica" font-size="43.2" fill="#000000" transform="matrix(1.00, 0.00, -0.00, -1.00, 315.2, 777.9)">i</text><text xml:space="preserve" font-family="Helvetica-Light,Helvetica" font-size="43.2" fill="#000000" transform="matrix(1.00, 0.00, -0.00, -1.00, 324.8, 777.9)">c</text><text xml:space="preserve" font-family="Helvetica-Light,Helvetica" font-size="43.2" fill="#000000" transform="matrix(1.00, 0.00, -0.00, -1.00, 348.8, 777.9)">a</text><text xml:space="preserve" font-family="Helvetica-Light,Helvetica" font-size="43.2" fill="#000000" transform="matrix(1.00, 0.00, -0.00, -1.00, 372.8, 777.9)">l</text><text xml:space="preserve" font-family="Helvetica-Light,Helvetica" font-size="43.2" fill="#000000" transform="matrix(1.00, 0.00, -0.00, -1.00, 382.3, 777.9)">l</text><text xml:space="preserve" font-family="Helvetica-Light,Helvetica" font-size="43.2" fill="#000000" transform="matrix(1.00, 0.00, -0.00, -1.00, 391.9, 777.9)">y</text><text xml:space="preserve" font-family="Helvetica-Light,Helvetica" font-size="43.2" fill="#000000" transform="matrix(1.00, 0.00, -0.00, -1.00, 413.5, 777.9)"> </text><text xml:space="preserve" font-family="Helvetica-Light,Helvetica" font-size="43.2" fill="#000000" transform="matrix(1.00, 0.00, -0.00, -1.00, 425.5, 777.9)">T</text><text xml:space="preserve" font-family="Helvetica-Light,Helvetica" font-size="43.2" fill="#000000" transform="matrix(1.00, 0.00, -0.00, -1.00, 445.9, 777.9)">y</text><text xml:space="preserve" font-family="Helvetica-Light,Helvetica" font-size="43.2" fill="#000000" transform="matrix(1.00, 0.00, -0.00, -1.00, 467.5, 777.9)">p</text><text xml:space="preserve" font-family="Helvetica-Light,Helvetica" font-size="43.2" fill="#000000" transform="matrix(1.00, 0.00, -0.00, -1.00, 493.8, 777.9)">e</text><text xml:space="preserve" font-family="Helvetica-Light,Helvetica" font-size="43.2" fill="#000000" transform="matrix(1.00, 0.00, -0.00, -1.00, 517.8, 777.9)">d</text><text xml:space="preserve" font-family="Helvetica-Light,Helvetica" font-size="43.2" fill="#000000" transform="matrix(1.00, 0.00, -0.00, -1.00, 544.2, 777.9)"> </text><text xml:space="preserve" font-family="Helvetica-Light,Helvetica" font-size="32.4" fill="#000000" transform="matrix(1.00, 0.00, -0.00, -1.00, 187.0, 681.5)">•</text><text xml:space="preserve" font-family="Helvetica-Light,Helvetica" font-size="43.2" fill="#000000" transform="matrix(1.00, 0.00, -0.00, -1.00, 228.5, 677.0)">C</text><text xml:space="preserve" font-family="Helvetica-Light,Helvetica" font-size="43.2" fill="#000000" transform="matrix(1.00, 0.00, -0.00, -1.00, 259.7, 677.0)">a</text><text xml:space="preserve" font-family="Helvetica-Light,Helvetica" font-size="43.2" fill="#000000" transform="matrix(1.00, 0.00, -0.00, -1.00, 283.7, 677.0)">n</text><text xml:space="preserve" font-family="Helvetica-Light,Helvetica" font-size="43.2" fill="#000000" transform="matrix(1.00, 0.00, -0.00, -1.00, 307.7, 677.0)"> </text><text xml:space="preserve" font-family="Helvetica-Light,Helvetica" font-size="43.2" fill="#000000" transform="matrix(1.00, 0.00, -0.00, -1.00, 319.7, 677.0)">c</text><text xml:space="preserve" font-family="Helvetica-Light,Helvetica" font-size="43.2" fill="#000000" transform="matrix(1.00, 0.00, -0.00, -1.00, 343.7, 677.0)">o</text><text xml:space="preserve" font-family="Helvetica-Light,Helvetica" font-size="43.2" fill="#000000" transform="matrix(1.00, 0.00, -0.00, -1.00, 367.6, 677.0)">n</text><text xml:space="preserve" font-family="Helvetica-Light,Helvetica" font-size="43.2" fill="#000000" transform="matrix(1.00, 0.00, -0.00, -1.00, 391.6, 677.0)">t</text><text xml:space="preserve" font-family="Helvetica-Light,Helvetica" font-size="43.2" fill="#000000" transform="matrix(1.00, 0.00, -0.00, -1.00, 403.6, 677.0)">a</text><text xml:space="preserve" font-family="Helvetica-Light,Helvetica" font-size="43.2" fill="#000000" transform="matrix(1.00, 0.00, -0.00, -1.00, 427.6, 677.0)">i</text><text xml:space="preserve" font-family="Helvetica-Light,Helvetica" font-size="43.2" fill="#000000" transform="matrix(1.00, 0.00, -0.00, -1.00, 437.2, 677.0)">n</text><text xml:space="preserve" font-family="Helvetica-Light,Helvetica" font-size="43.2" fill="#000000" transform="matrix(1.00, 0.00, -0.00, -1.00, 461.2, 677.0)"> </text><text xml:space="preserve" font-family="Helvetica-Light,Helvetica" font-size="43.2" fill="#000000" transform="matrix(1.00, 0.00, -0.00, -1.00, 473.2, 677.0)">a</text><text xml:space="preserve" font-family="Helvetica-Light,Helvetica" font-size="43.2" fill="#000000" transform="matrix(1.00, 0.00, -0.00, -1.00, 497.2, 677.0)">n</text><text xml:space="preserve" font-family="Helvetica-Light,Helvetica" font-size="43.2" fill="#000000" transform="matrix(1.00, 0.00, -0.00, -1.00, 521.2, 677.0)">y</text><text xml:space="preserve" font-family="Helvetica-Light,Helvetica" font-size="43.2" fill="#000000" transform="matrix(1.00, 0.00, -0.00, -1.00, 542.8, 677.0)">t</text><text xml:space="preserve" font-family="Helvetica-Light,Helvetica" font-size="43.2" fill="#000000" transform="matrix(1.00, 0.00, -0.00, -1.00, 554.8, 677.0)">h</text><text xml:space="preserve" font-family="Helvetica-Light,Helvetica" font-size="43.2" fill="#000000" transform="matrix(1.00, 0.00, -0.00, -1.00, 578.8, 677.0)">i</text><text xml:space="preserve" font-family="Helvetica-Light,Helvetica" font-size="43.2" fill="#000000" transform="matrix(1.00, 0.00, -0.00, -1.00, 588.4, 677.0)">n</text><text xml:space="preserve" font-family="Helvetica-Light,Helvetica" font-size="43.2" fill="#000000" transform="matrix(1.00, 0.00, -0.00, -1.00, 612.4, 677.0)">g</text><text xml:space="preserve" font-family="Helvetica-Light,Helvetica" font-size="43.2" fill="#000000" transform="matrix(1.00, 0.00, -0.00, -1.00, 638.7, 677.0)"> </text><text xml:space="preserve" font-family="Helvetica-Light,Helvetica" font-size="32.4" fill="#000000" transform="matrix(1.00, 0.00, -0.00, -1.00, 187.0, 580.5)">•</text><text xml:space="preserve" font-family="Helvetica-Light,Helvetica" font-size="43.2" fill="#000000" transform="matrix(1.00, 0.00, -0.00, -1.00, 228.5, 576.0)">C</text><text xml:space="preserve" font-family="Helvetica-Light,Helvetica" font-size="43.2" fill="#000000" transform="matrix(1.00, 0.00, -0.00, -1.00, 259.7, 576.0)">a</text><text xml:space="preserve" font-family="Helvetica-Light,Helvetica" font-size="43.2" fill="#000000" transform="matrix(1.00, 0.00, -0.00, -1.00, 283.7, 576.0)">n</text><text xml:space="preserve" font-family="Helvetica-Light,Helvetica" font-size="43.2" fill="#000000" transform="matrix(1.00, 0.00, -0.00, -1.00, 307.7, 576.0)"> </text><text xml:space="preserve" font-family="Helvetica-Light,Helvetica" font-size="43.2" fill="#000000" transform="matrix(1.00, 0.00, -0.00, -1.00, 319.7, 576.0)">a</text><text xml:space="preserve" font-family="Helvetica-Light,Helvetica" font-size="43.2" fill="#000000" transform="matrix(1.00, 0.00, -0.00, -1.00, 343.7, 576.0)">t</text><text xml:space="preserve" font-family="Helvetica-Light,Helvetica" font-size="43.2" fill="#000000" transform="matrix(1.00, 0.00, -0.00, -1.00, 355.6, 576.0)">t</text><text xml:space="preserve" font-family="Helvetica-Light,Helvetica" font-size="43.2" fill="#000000" transform="matrix(1.00, 0.00, -0.00, -1.00, 367.6, 576.0)">e</text><text xml:space="preserve" font-family="Helvetica-Light,Helvetica" font-size="43.2" fill="#000000" transform="matrix(1.00, 0.00, -0.00, -1.00, 391.6, 576.0)">m</text><text xml:space="preserve" font-family="Helvetica-Light,Helvetica" font-size="43.2" fill="#000000" transform="matrix(1.00, 0.00, -0.00, -1.00, 427.6, 576.0)">p</text><text xml:space="preserve" font-family="Helvetica-Light,Helvetica" font-size="43.2" fill="#000000" transform="matrix(1.00, 0.00, -0.00, -1.00, 454.0, 576.0)">t</text><text xml:space="preserve" font-family="Helvetica-Light,Helvetica" font-size="43.2" fill="#000000" transform="matrix(1.00, 0.00, -0.00, -1.00, 466.0, 576.0)"> </text><text xml:space="preserve" font-family="Helvetica-Light,Helvetica" font-size="43.2" fill="#000000" transform="matrix(1.00, 0.00, -0.00, -1.00, 478.0, 576.0)">t</text><text xml:space="preserve" font-family="Helvetica-Light,Helvetica" font-size="43.2" fill="#000000" transform="matrix(1.00, 0.00, -0.00, -1.00, 490.0, 576.0)">o</text><text xml:space="preserve" font-family="Helvetica-Light,Helvetica" font-size="43.2" fill="#000000" transform="matrix(1.00, 0.00, -0.00, -1.00, 514.0, 576.0)"> </text><text xml:space="preserve" font-family="Helvetica-Light,Helvetica" font-size="43.2" fill="#000000" transform="matrix(1.00, 0.00, -0.00, -1.00, 526.0, 576.0)">g</text><text xml:space="preserve" font-family="Helvetica-Light,Helvetica" font-size="43.2" fill="#000000" transform="matrix(1.00, 0.00, -0.00, -1.00, 552.3, 576.0)">e</text><text xml:space="preserve" font-family="Helvetica-Light,Helvetica" font-size="43.2" fill="#000000" transform="matrix(1.00, 0.00, -0.00, -1.00, 576.3, 576.0)">t</text><text xml:space="preserve" font-family="Helvetica-Light,Helvetica" font-size="43.2" fill="#000000" transform="matrix(1.00, 0.00, -0.00, -1.00, 588.3, 576.0)"> </text><text xml:space="preserve" font-family="Helvetica-Light,Helvetica" font-size="43.2" fill="#000000" transform="matrix(1.00, 0.00, -0.00, -1.00, 600.3, 576.0)">a</text><text xml:space="preserve" font-family="Helvetica-Light,Helvetica" font-size="43.2" fill="#000000" transform="matrix(1.00, 0.00, -0.00, -1.00, 624.3, 576.0)">n</text><text xml:space="preserve" font-family="Helvetica-Light,Helvetica" font-size="43.2" fill="#000000" transform="matrix(1.00, 0.00, -0.00, -1.00, 648.3, 576.0)">y</text><text xml:space="preserve" font-family="Helvetica-Light,Helvetica" font-size="43.2" fill="#000000" transform="matrix(1.00, 0.00, -0.00, -1.00, 669.9, 576.0)"> </text><text xml:space="preserve" font-family="Helvetica-Light,Helvetica" font-size="43.2" fill="#000000" transform="matrix(1.00, 0.00, -0.00, -1.00, 681.9, 576.0)">m</text><text xml:space="preserve" font-family="Helvetica-Light,Helvetica" font-size="43.2" fill="#000000" transform="matrix(1.00, 0.00, -0.00, -1.00, 717.8, 576.0)">e</text><text xml:space="preserve" font-family="Helvetica-Light,Helvetica" font-size="43.2" fill="#000000" transform="matrix(1.00, 0.00, -0.00, -1.00, 741.8, 576.0)">m</text><text xml:space="preserve" font-family="Helvetica-Light,Helvetica" font-size="43.2" fill="#000000" transform="matrix(1.00, 0.00, -0.00, -1.00, 777.8, 576.0)">b</text><text xml:space="preserve" font-family="Helvetica-Light,Helvetica" font-size="43.2" fill="#000000" transform="matrix(1.00, 0.00, -0.00, -1.00, 804.2, 576.0)">e</text><text xml:space="preserve" font-family="Helvetica-Light,Helvetica" font-size="43.2" fill="#000000" transform="matrix(1.00, 0.00, -0.00, -1.00, 828.2, 576.0)">r</text><text xml:space="preserve" font-family="Helvetica-Light,Helvetica" font-size="43.2" fill="#000000" transform="matrix(1.00, 0.00, -0.00, -1.00, 842.5, 576.0)"> </text><text xml:space="preserve" font-family="Helvetica-Light,Helvetica" font-size="43.2" fill="#000000" transform="matrix(1.00, 0.00, -0.00, -1.00, 854.5, 576.0)">r</text><text xml:space="preserve" font-family="Helvetica-Light,Helvetica" font-size="43.2" fill="#000000" transform="matrix(1.00, 0.00, -0.00, -1.00, 868.1, 576.0)">e</text><text xml:space="preserve" font-family="Helvetica-Light,Helvetica" font-size="43.2" fill="#000000" transform="matrix(1.00, 0.00, -0.00, -1.00, 892.1, 576.0)">g</text><text xml:space="preserve" font-family="Helvetica-Light,Helvetica" font-size="43.2" fill="#000000" transform="matrix(1.00, 0.00, -0.00, -1.00, 918.5, 576.0)">a</text><text xml:space="preserve" font-family="Helvetica-Light,Helvetica" font-size="43.2" fill="#000000" transform="matrix(1.00, 0.00, -0.00, -1.00, 942.5, 576.0)">r</text><text xml:space="preserve" font-family="Helvetica-Light,Helvetica" font-size="43.2" fill="#000000" transform="matrix(1.00, 0.00, -0.00, -1.00, 956.1, 576.0)">d</text><text xml:space="preserve" font-family="Helvetica-Light,Helvetica" font-size="43.2" fill="#000000" transform="matrix(1.00, 0.00, -0.00, -1.00, 982.5, 576.0)">l</text><text xml:space="preserve" font-family="Helvetica-Light,Helvetica" font-size="43.2" fill="#000000" transform="matrix(1.00, 0.00, -0.00, -1.00, 992.0, 576.0)">e</text><text xml:space="preserve" font-family="Helvetica-Light,Helvetica" font-size="43.2" fill="#000000" transform="matrix(1.00, 0.00, -0.00, -1.00, 1016.0, 576.0)">s</text><text xml:space="preserve" font-family="Helvetica-Light,Helvetica" font-size="43.2" fill="#000000" transform="matrix(1.00, 0.00, -0.00, -1.00, 1037.6, 576.0)">s</text><text xml:space="preserve" font-family="Helvetica-Light,Helvetica" font-size="43.2" fill="#000000" transform="matrix(1.00, 0.00, -0.00, -1.00, 1059.2, 576.0)"> </text><text xml:space="preserve" font-family="Helvetica-Light,Helvetica" font-size="43.2" fill="#000000" transform="matrix(1.00, 0.00, -0.00, -1.00, 1071.2, 576.0)">o</text><text xml:space="preserve" font-family="Helvetica-Light,Helvetica" font-size="43.2" fill="#000000" transform="matrix(1.00, 0.00, -0.00, -1.00, 1095.2, 576.0)">f</text><text xml:space="preserve" font-family="Helvetica-Light,Helvetica" font-size="43.2" fill="#000000" transform="matrix(1.00, 0.00, -0.00, -1.00, 1107.2, 576.0)"> </text><text xml:space="preserve" font-family="Helvetica-Light,Helvetica" font-size="43.2" fill="#000000" transform="matrix(1.00, 0.00, -0.00, -1.00, 1119.2, 576.0)">w</text><text xml:space="preserve" font-family="Helvetica-Light,Helvetica" font-size="43.2" fill="#000000" transform="matrix(1.00, 0.00, -0.00, -1.00, 1150.4, 576.0)">h</text><text xml:space="preserve" font-family="Helvetica-Light,Helvetica" font-size="43.2" fill="#000000" transform="matrix(1.00, 0.00, -0.00, -1.00, 1174.4, 576.0)">e</text><text xml:space="preserve" font-family="Helvetica-Light,Helvetica" font-size="43.2" fill="#000000" transform="matrix(1.00, 0.00, -0.00, -1.00, 1198.3, 576.0)">t</text><text xml:space="preserve" font-family="Helvetica-Light,Helvetica" font-size="43.2" fill="#000000" transform="matrix(1.00, 0.00, -0.00, -1.00, 1210.3, 576.0)">h</text><text xml:space="preserve" font-family="Helvetica-Light,Helvetica" font-size="43.2" fill="#000000" transform="matrix(1.00, 0.00, -0.00, -1.00, 1234.3, 576.0)">e</text><text xml:space="preserve" font-family="Helvetica-Light,Helvetica" font-size="43.2" fill="#000000" transform="matrix(1.00, 0.00, -0.00, -1.00, 1258.3, 576.0)">r</text><text xml:space="preserve" font-family="Helvetica-Light,Helvetica" font-size="43.2" fill="#000000" transform="matrix(1.00, 0.00, -0.00, -1.00, 1272.7, 576.0)"> </text><text xml:space="preserve" font-family="Helvetica-Light,Helvetica" font-size="43.2" fill="#000000" transform="matrix(1.00, 0.00, -0.00, -1.00, 1284.7, 576.0)">i</text><text xml:space="preserve" font-family="Helvetica-Light,Helvetica" font-size="43.2" fill="#000000" transform="matrix(1.00, 0.00, -0.00, -1.00, 1294.3, 576.0)">t</text><text xml:space="preserve" font-family="Helvetica-Light,Helvetica" font-size="43.2" fill="#000000" transform="matrix(1.00, 0.00, -0.00, -1.00, 1306.3, 576.0)"> </text><text xml:space="preserve" font-family="Helvetica-Light,Helvetica" font-size="43.2" fill="#000000" transform="matrix(1.00, 0.00, -0.00, -1.00, 1318.3, 576.0)">e</text><text xml:space="preserve" font-family="Helvetica-Light,Helvetica" font-size="43.2" fill="#000000" transform="matrix(1.00, 0.00, -0.00, -1.00, 1342.3, 576.0)">x</text><text xml:space="preserve" font-family="Helvetica-Light,Helvetica" font-size="43.2" fill="#000000" transform="matrix(1.00, 0.00, -0.00, -1.00, 1363.9, 576.0)">i</text><text xml:space="preserve" font-family="Helvetica-Light,Helvetica" font-size="43.2" fill="#000000" transform="matrix(1.00, 0.00, -0.00, -1.00, 1373.4, 576.0)">s</text><text xml:space="preserve" font-family="Helvetica-Light,Helvetica" font-size="43.2" fill="#000000" transform="matrix(1.00, 0.00, -0.00, -1.00, 1395.0, 576.0)">t</text><text xml:space="preserve" font-family="Helvetica-Light,Helvetica" font-size="43.2" fill="#000000" transform="matrix(1.00, 0.00, -0.00, -1.00, 1407.0, 576.0)">s</text><text xml:space="preserve" font-family="Helvetica-Light,Helvetica" font-size="43.2" fill="#000000" transform="matrix(1.00, 0.00, -0.00, -1.00, 1428.6, 576.0)"> </text><text xml:space="preserve" font-family="Helvetica-Light,Helvetica" font-size="32.4" fill="#000000" transform="matrix(1.00, 0.00, -0.00, -1.00, 187.0, 479.5)">•</text><text xml:space="preserve" font-family="Helvetica-Light,Helvetica" font-size="43.2" fill="#000000" transform="matrix(1.00, 0.00, -0.00, -1.00, 228.5, 475.0)">C</text><text xml:space="preserve" font-family="Helvetica-Light,Helvetica" font-size="43.2" fill="#000000" transform="matrix(1.00, 0.00, -0.00, -1.00, 259.7, 475.0)">a</text><text xml:space="preserve" font-family="Helvetica-Light,Helvetica" font-size="43.2" fill="#000000" transform="matrix(1.00, 0.00, -0.00, -1.00, 283.7, 475.0)">n</text><text xml:space="preserve" font-family="Helvetica-Light,Helvetica" font-size="43.2" fill="#000000" transform="matrix(1.00, 0.00, -0.00, -1.00, 307.7, 475.0)"> </text><text xml:space="preserve" font-family="Helvetica-Light,Helvetica" font-size="43.2" fill="#000000" transform="matrix(1.00, 0.00, -0.00, -1.00, 319.7, 475.0)">c</text><text xml:space="preserve" font-family="Helvetica-Light,Helvetica" font-size="43.2" fill="#000000" transform="matrix(1.00, 0.00, -0.00, -1.00, 343.7, 475.0)">h</text><text xml:space="preserve" font-family="Helvetica-Light,Helvetica" font-size="43.2" fill="#000000" transform="matrix(1.00, 0.00, -0.00, -1.00, 367.6, 475.0)">a</text><text xml:space="preserve" font-family="Helvetica-Light,Helvetica" font-size="43.2" fill="#000000" transform="matrix(1.00, 0.00, -0.00, -1.00, 391.6, 475.0)">n</text><text xml:space="preserve" font-family="Helvetica-Light,Helvetica" font-size="43.2" fill="#000000" transform="matrix(1.00, 0.00, -0.00, -1.00, 415.6, 475.0)">g</text><text xml:space="preserve" font-family="Helvetica-Light,Helvetica" font-size="43.2" fill="#000000" transform="matrix(1.00, 0.00, -0.00, -1.00, 442.0, 475.0)">e</text><text xml:space="preserve" font-family="Helvetica-Light,Helvetica" font-size="43.2" fill="#000000" transform="matrix(1.00, 0.00, -0.00, -1.00, 466.0, 475.0)"> </text><text xml:space="preserve" font-family="Helvetica-Light,Helvetica" font-size="43.2" fill="#000000" transform="matrix(1.00, 0.00, -0.00, -1.00, 478.0, 475.0)">t</text><text xml:space="preserve" font-family="Helvetica-Light,Helvetica" font-size="43.2" fill="#000000" transform="matrix(1.00, 0.00, -0.00, -1.00, 490.0, 475.0)">y</text><text xml:space="preserve" font-family="Helvetica-Light,Helvetica" font-size="43.2" fill="#000000" transform="matrix(1.00, 0.00, -0.00, -1.00, 511.6, 475.0)">p</text><text xml:space="preserve" font-family="Helvetica-Light,Helvetica" font-size="43.2" fill="#000000" transform="matrix(1.00, 0.00, -0.00, -1.00, 538.0, 475.0)">e</text><text xml:space="preserve" font-family="Helvetica-Light,Helvetica" font-size="43.2" fill="#000000" transform="matrix(1.00, 0.00, -0.00, -1.00, 562.0, 475.0)"> </text><text xml:space="preserve" font-family="Helvetica-Light,Helvetica" font-size="43.2" fill="#000000" transform="matrix(1.00, 0.00, -0.00, -1.00, 574.0, 475.0)">t</text><text xml:space="preserve" font-family="Helvetica-Light,Helvetica" font-size="43.2" fill="#000000" transform="matrix(1.00, 0.00, -0.00, -1.00, 586.0, 475.0)">h</text><text xml:space="preserve" font-family="Helvetica-Light,Helvetica" font-size="43.2" fill="#000000" transform="matrix(1.00, 0.00, -0.00, -1.00, 609.9, 475.0)">a</text><text xml:space="preserve" font-family="Helvetica-Light,Helvetica" font-size="43.2" fill="#000000" transform="matrix(1.00, 0.00, -0.00, -1.00, 633.9, 475.0)">t</text><text xml:space="preserve" font-family="Helvetica-Light,Helvetica" font-size="43.2" fill="#000000" transform="matrix(1.00, 0.00, -0.00, -1.00, 645.9, 475.0)">’</text><text xml:space="preserve" font-family="Helvetica-Light,Helvetica" font-size="43.2" fill="#000000" transform="matrix(1.00, 0.00, -0.00, -1.00, 652.3, 475.0)">s</text><text xml:space="preserve" font-family="Helvetica-Light,Helvetica" font-size="43.2" fill="#000000" transform="matrix(1.00, 0.00, -0.00, -1.00, 673.9, 475.0)"> </text><text xml:space="preserve" font-family="Helvetica-Light,Helvetica" font-size="43.2" fill="#000000" transform="matrix(1.00, 0.00, -0.00, -1.00, 685.9, 475.0)">i</text><text xml:space="preserve" font-family="Helvetica-Light,Helvetica" font-size="43.2" fill="#000000" transform="matrix(1.00, 0.00, -0.00, -1.00, 695.5, 475.0)">n</text><text xml:space="preserve" font-family="Helvetica-Light,Helvetica" font-size="43.2" fill="#000000" transform="matrix(1.00, 0.00, -0.00, -1.00, 719.5, 475.0)"> </text><text xml:space="preserve" font-family="Helvetica-Light,Helvetica" font-size="43.2" fill="#000000" transform="matrix(1.00, 0.00, -0.00, -1.00, 731.5, 475.0)">i</text><text xml:space="preserve" font-family="Helvetica-Light,Helvetica" font-size="43.2" fill="#000000" transform="matrix(1.00, 0.00, -0.00, -1.00, 741.1, 475.0)">t</text><image xlink:href="../../D2974BF0-9CF8-436C-8C5C-E2B3123F72CB/assets/B38E95E13214C73C0E42098416E6E650.png" width="1596.00" height="379.00" transform="matrix(1.00, 0.00, -0.00, 1.00, 163.1, 61.0)"></image><g><clipPath id="clip0x6080006ab6a0"><path d="M 168.8 82.7 L 3310.5 82.7 L 3310.5 440.3 L 168.8 440.3 Z M 168.8 82.7 "></path></clipPath><g clip-path="url(#clip0x6080006ab6a0)"><text xml:space="preserve" font-family="Menlo-Bold,Menlo" font-weight="bold" font-size="56.0" fill="#011892" transform="matrix(1.00, 0.00, -0.00, -1.00, 185.1, 372.2)">v</text><text xml:space="preserve" font-family="Menlo-Bold,Menlo" font-weight="bold" font-size="56.0" fill="#011892" transform="matrix(1.00, 0.00, -0.00, -1.00, 218.8, 372.2)">a</text><text xml:space="preserve" font-family="Menlo-Bold,Menlo" font-weight="bold" font-size="56.0" fill="#011892" transform="matrix(1.00, 0.00, -0.00, -1.00, 252.5, 372.2)">r</text><text xml:space="preserve" font-family="Menlo-Bold,Menlo" font-weight="bold" font-size="56.0" fill="#011892" transform="matrix(1.00, 0.00, -0.00, -1.00, 286.2, 372.2)"> </text><text xml:space="preserve" font-family="Menlo-BoldItalic,Menlo" font-style="italic" font-weight="bold" font-size="56.0" fill="#7A238C" transform="matrix(1.00, 0.00, -0.00, -1.00, 319.9, 372.2)">n</text><text xml:space="preserve" font-family="Menlo-BoldItalic,Menlo" font-style="italic" font-weight="bold" font-size="56.0" fill="#7A238C" transform="matrix(1.00, 0.00, -0.00, -1.00, 353.6, 372.2)">o</text><text xml:space="preserve" font-family="Menlo-BoldItalic,Menlo" font-style="italic" font-weight="bold" font-size="56.0" fill="#7A238C" transform="matrix(1.00, 0.00, -0.00, -1.00, 387.4, 372.2)">t</text><text xml:space="preserve" font-family="Menlo-BoldItalic,Menlo" font-style="italic" font-weight="bold" font-size="56.0" fill="#7A238C" transform="matrix(1.00, 0.00, -0.00, -1.00, 421.1, 372.2)">S</text><text xml:space="preserve" font-family="Menlo-BoldItalic,Menlo" font-style="italic" font-weight="bold" font-size="56.0" fill="#7A238C" transform="matrix(1.00, 0.00, -0.00, -1.00, 454.8, 372.2)">u</text><text xml:space="preserve" font-family="Menlo-BoldItalic,Menlo" font-style="italic" font-weight="bold" font-size="56.0" fill="#7A238C" transform="matrix(1.00, 0.00, -0.00, -1.00, 488.5, 372.2)">r</text><text xml:space="preserve" font-family="Menlo-BoldItalic,Menlo" font-style="italic" font-weight="bold" font-size="56.0" fill="#7A238C" transform="matrix(1.00, 0.00, -0.00, -1.00, 522.2, 372.2)">e</text><text xml:space="preserve" font-family="Menlo-Regular,Menlo" font-size="56.0" fill="#000000" transform="matrix(1.00, 0.00, -0.00, -1.00, 555.9, 372.2)">:</text><text xml:space="preserve" font-family="Menlo-Regular,Menlo" font-size="56.0" fill="#000000" transform="matrix(1.00, 0.00, -0.00, -1.00, 589.6, 372.2)"> </text><text xml:space="preserve" font-family="Menlo-Bold,Menlo" font-weight="bold" font-size="56.0" fill="#011892" transform="matrix(1.00, 0.00, -0.00, -1.00, 623.4, 372.2)">a</text><text xml:space="preserve" font-family="Menlo-Bold,Menlo" font-weight="bold" font-size="56.0" fill="#011892" transform="matrix(1.00, 0.00, -0.00, -1.00, 657.1, 372.2)">n</text><text xml:space="preserve" font-family="Menlo-Bold,Menlo" font-weight="bold" font-size="56.0" fill="#011892" transform="matrix(1.00, 0.00, -0.00, -1.00, 690.8, 372.2)">y</text><text xml:space="preserve" font-family="Menlo-Bold,Menlo" font-weight="bold" font-size="56.0" fill="#011892" transform="matrix(1.00, 0.00, -0.00, -1.00, 724.5, 372.2)"> </text><text xml:space="preserve" font-family="Menlo-Regular,Menlo" font-size="56.0" fill="#000000" transform="matrix(1.00, 0.00, -0.00, -1.00, 758.2, 372.2)">=</text><text xml:space="preserve" font-family="Menlo-Regular,Menlo" font-size="56.0" fill="#000000" transform="matrix(1.00, 0.00, -0.00, -1.00, 791.9, 372.2)"> </text><text xml:space="preserve" font-family="Menlo-Regular,Menlo" font-size="56.0" fill="#0432FF" transform="matrix(1.00, 0.00, -0.00, -1.00, 825.6, 372.2)">4</text><text xml:space="preserve" font-family="Menlo-Regular,Menlo" font-size="56.0" fill="#D68B40" transform="matrix(1.00, 0.00, -0.00, -1.00, 859.4, 372.2)">;</text><text xml:space="preserve" font-family="Monaco,Monaco" font-size="56.0" fill="#D68B40" transform="matrix(1.00, 0.00, -0.00, -1.00, 893.1, 372.2)"> </text><text xml:space="preserve" font-family="Menlo-BoldItalic,Menlo" font-style="italic" font-weight="bold" font-size="56.0" fill="#7A238C" transform="matrix(1.00, 0.00, -0.00, -1.00, 185.1, 307.2)">n</text><text xml:space="preserve" font-family="Menlo-BoldItalic,Menlo" font-style="italic" font-weight="bold" font-size="56.0" fill="#7A238C" transform="matrix(1.00, 0.00, -0.00, -1.00, 218.8, 307.2)">o</text><text xml:space="preserve" font-family="Menlo-BoldItalic,Menlo" font-style="italic" font-weight="bold" font-size="56.0" fill="#7A238C" transform="matrix(1.00, 0.00, -0.00, -1.00, 252.5, 307.2)">t</text><text xml:space="preserve" font-family="Menlo-BoldItalic,Menlo" font-style="italic" font-weight="bold" font-size="56.0" fill="#7A238C" transform="matrix(1.00, 0.00, -0.00, -1.00, 286.2, 307.2)">S</text><text xml:space="preserve" font-family="Menlo-BoldItalic,Menlo" font-style="italic" font-weight="bold" font-size="56.0" fill="#7A238C" transform="matrix(1.00, 0.00, -0.00, -1.00, 319.9, 307.2)">u</text><text xml:space="preserve" font-family="Menlo-BoldItalic,Menlo" font-style="italic" font-weight="bold" font-size="56.0" fill="#7A238C" transform="matrix(1.00, 0.00, -0.00, -1.00, 353.7, 307.2)">r</text><text xml:space="preserve" font-family="Menlo-BoldItalic,Menlo" font-style="italic" font-weight="bold" font-size="56.0" fill="#7A238C" transform="matrix(1.00, 0.00, -0.00, -1.00, 387.4, 307.2)">e</text><text xml:space="preserve" font-family="Menlo-BoldItalic,Menlo" font-style="italic" font-weight="bold" font-size="56.0" fill="#7A238C" transform="matrix(1.00, 0.00, -0.00, -1.00, 421.1, 307.2)"> </text><text xml:space="preserve" font-family="Menlo-Regular,Menlo" font-size="56.0" fill="#000000" transform="matrix(1.00, 0.00, -0.00, -1.00, 454.8, 307.2)">=</text><text xml:space="preserve" font-family="Menlo-Regular,Menlo" font-size="56.0" fill="#000000" transform="matrix(1.00, 0.00, -0.00, -1.00, 488.5, 307.2)"> </text><text xml:space="preserve" font-family="Menlo-Bold,Menlo" font-weight="bold" font-size="56.0" fill="#008E00" transform="matrix(1.00, 0.00, -0.00, -1.00, 522.2, 307.2)">"</text><text xml:space="preserve" font-family="Menlo-Bold,Menlo" font-weight="bold" font-size="56.0" fill="#008E00" transform="matrix(1.00, 0.00, -0.00, -1.00, 555.9, 307.2)">m</text><text xml:space="preserve" font-family="Menlo-Bold,Menlo" font-weight="bold" font-size="56.0" fill="#008E00" transform="matrix(1.00, 0.00, -0.00, -1.00, 589.6, 307.2)">a</text><text xml:space="preserve" font-family="Menlo-Bold,Menlo" font-weight="bold" font-size="56.0" fill="#008E00" transform="matrix(1.00, 0.00, -0.00, -1.00, 623.4, 307.2)">y</text><text xml:space="preserve" font-family="Menlo-Bold,Menlo" font-weight="bold" font-size="56.0" fill="#008E00" transform="matrix(1.00, 0.00, -0.00, -1.00, 657.1, 307.2)">b</text><text xml:space="preserve" font-family="Menlo-Bold,Menlo" font-weight="bold" font-size="56.0" fill="#008E00" transform="matrix(1.00, 0.00, -0.00, -1.00, 690.8, 307.2)">e</text><text xml:space="preserve" font-family="Menlo-Bold,Menlo" font-weight="bold" font-size="56.0" fill="#008E00" transform="matrix(1.00, 0.00, -0.00, -1.00, 724.5, 307.2)"> </text><text xml:space="preserve" font-family="Menlo-Bold,Menlo" font-weight="bold" font-size="56.0" fill="#008E00" transform="matrix(1.00, 0.00, -0.00, -1.00, 758.3, 307.2)">a</text><text xml:space="preserve" font-family="Menlo-Bold,Menlo" font-weight="bold" font-size="56.0" fill="#008E00" transform="matrix(1.00, 0.00, -0.00, -1.00, 792.0, 307.2)"> </text><text xml:space="preserve" font-family="Menlo-Bold,Menlo" font-weight="bold" font-size="56.0" fill="#008E00" transform="matrix(1.00, 0.00, -0.00, -1.00, 825.7, 307.2)">s</text><text xml:space="preserve" font-family="Menlo-Bold,Menlo" font-weight="bold" font-size="56.0" fill="#008E00" transform="matrix(1.00, 0.00, -0.00, -1.00, 859.4, 307.2)">t</text><text xml:space="preserve" font-family="Menlo-Bold,Menlo" font-weight="bold" font-size="56.0" fill="#008E00" transform="matrix(1.00, 0.00, -0.00, -1.00, 893.1, 307.2)">r</text><text xml:space="preserve" font-family="Menlo-Bold,Menlo" font-weight="bold" font-size="56.0" fill="#008E00" transform="matrix(1.00, 0.00, -0.00, -1.00, 926.9, 307.2)">i</text><text xml:space="preserve" font-family="Menlo-Bold,Menlo" font-weight="bold" font-size="56.0" fill="#008E00" transform="matrix(1.00, 0.00, -0.00, -1.00, 960.6, 307.2)">n</text><text xml:space="preserve" font-family="Menlo-Bold,Menlo" font-weight="bold" font-size="56.0" fill="#008E00" transform="matrix(1.00, 0.00, -0.00, -1.00, 994.3, 307.2)">g</text><text xml:space="preserve" font-family="Menlo-Bold,Menlo" font-weight="bold" font-size="56.0" fill="#008E00" transform="matrix(1.00, 0.00, -0.00, -1.00, 1028.0, 307.2)"> </text><text xml:space="preserve" font-family="Menlo-Bold,Menlo" font-weight="bold" font-size="56.0" fill="#008E00" transform="matrix(1.00, 0.00, -0.00, -1.00, 1061.7, 307.2)">i</text><text xml:space="preserve" font-family="Menlo-Bold,Menlo" font-weight="bold" font-size="56.0" fill="#008E00" transform="matrix(1.00, 0.00, -0.00, -1.00, 1095.5, 307.2)">n</text><text xml:space="preserve" font-family="Menlo-Bold,Menlo" font-weight="bold" font-size="56.0" fill="#008E00" transform="matrix(1.00, 0.00, -0.00, -1.00, 1129.2, 307.2)">s</text><text xml:space="preserve" font-family="Menlo-Bold,Menlo" font-weight="bold" font-size="56.0" fill="#008E00" transform="matrix(1.00, 0.00, -0.00, -1.00, 1162.9, 307.2)">t</text><text xml:space="preserve" font-family="Menlo-Bold,Menlo" font-weight="bold" font-size="56.0" fill="#008E00" transform="matrix(1.00, 0.00, -0.00, -1.00, 1196.6, 307.2)">e</text><text xml:space="preserve" font-family="Menlo-Bold,Menlo" font-weight="bold" font-size="56.0" fill="#008E00" transform="matrix(1.00, 0.00, -0.00, -1.00, 1230.3, 307.2)">a</text><text xml:space="preserve" font-family="Menlo-Bold,Menlo" font-weight="bold" font-size="56.0" fill="#008E00" transform="matrix(1.00, 0.00, -0.00, -1.00, 1264.1, 307.2)">d</text><text xml:space="preserve" font-family="Menlo-Bold,Menlo" font-weight="bold" font-size="56.0" fill="#008E00" transform="matrix(1.00, 0.00, -0.00, -1.00, 1297.8, 307.2)">"</text><text xml:space="preserve" font-family="Menlo-Regular,Menlo" font-size="56.0" fill="#D68B40" transform="matrix(1.00, 0.00, -0.00, -1.00, 1331.4, 307.2)">;</text><text xml:space="preserve" font-family="Monaco,Monaco" font-size="56.0" fill="#D68B40" transform="matrix(1.00, 0.00, -0.00, -1.00, 1365.1, 307.2)"> </text><text xml:space="preserve" font-family="Menlo-BoldItalic,Menlo" font-style="italic" font-weight="bold" font-size="56.0" fill="#7A238C" transform="matrix(1.00, 0.00, -0.00, -1.00, 185.1, 242.2)">n</text><text xml:space="preserve" font-family="Menlo-BoldItalic,Menlo" font-style="italic" font-weight="bold" font-size="56.0" fill="#7A238C" transform="matrix(1.00, 0.00, -0.00, -1.00, 218.8, 242.2)">o</text><text xml:space="preserve" font-family="Menlo-BoldItalic,Menlo" font-style="italic" font-weight="bold" font-size="56.0" fill="#7A238C" transform="matrix(1.00, 0.00, -0.00, -1.00, 252.5, 242.2)">t</text><text xml:space="preserve" font-family="Menlo-BoldItalic,Menlo" font-style="italic" font-weight="bold" font-size="56.0" fill="#7A238C" transform="matrix(1.00, 0.00, -0.00, -1.00, 286.2, 242.2)">S</text><text xml:space="preserve" font-family="Menlo-BoldItalic,Menlo" font-style="italic" font-weight="bold" font-size="56.0" fill="#7A238C" transform="matrix(1.00, 0.00, -0.00, -1.00, 319.9, 242.2)">u</text><text xml:space="preserve" font-family="Menlo-BoldItalic,Menlo" font-style="italic" font-weight="bold" font-size="56.0" fill="#7A238C" transform="matrix(1.00, 0.00, -0.00, -1.00, 353.7, 242.2)">r</text><text xml:space="preserve" font-family="Menlo-BoldItalic,Menlo" font-style="italic" font-weight="bold" font-size="56.0" fill="#7A238C" transform="matrix(1.00, 0.00, -0.00, -1.00, 387.4, 242.2)">e</text><text xml:space="preserve" font-family="Menlo-BoldItalic,Menlo" font-style="italic" font-weight="bold" font-size="56.0" fill="#7A238C" transform="matrix(1.00, 0.00, -0.00, -1.00, 421.1, 242.2)"> </text><text xml:space="preserve" font-family="Menlo-Regular,Menlo" font-size="56.0" fill="#000000" transform="matrix(1.00, 0.00, -0.00, -1.00, 454.8, 242.2)">=</text><text xml:space="preserve" font-family="Menlo-Regular,Menlo" font-size="56.0" fill="#000000" transform="matrix(1.00, 0.00, -0.00, -1.00, 488.5, 242.2)"> </text><text xml:space="preserve" font-family="Menlo-Bold,Menlo" font-weight="bold" font-size="56.0" fill="#011892" transform="matrix(1.00, 0.00, -0.00, -1.00, 522.2, 242.2)">f</text><text xml:space="preserve" font-family="Menlo-Bold,Menlo" font-weight="bold" font-size="56.0" fill="#011892" transform="matrix(1.00, 0.00, -0.00, -1.00, 555.9, 242.2)">a</text><text xml:space="preserve" font-family="Menlo-Bold,Menlo" font-weight="bold" font-size="56.0" fill="#011892" transform="matrix(1.00, 0.00, -0.00, -1.00, 589.6, 242.2)">l</text><text xml:space="preserve" font-family="Menlo-Bold,Menlo" font-weight="bold" font-size="56.0" fill="#011892" transform="matrix(1.00, 0.00, -0.00, -1.00, 623.4, 242.2)">s</text><text xml:space="preserve" font-family="Menlo-Bold,Menlo" font-weight="bold" font-size="56.0" fill="#011892" transform="matrix(1.00, 0.00, -0.00, -1.00, 657.1, 242.2)">e</text><text xml:space="preserve" font-family="Menlo-Regular,Menlo" font-size="56.0" fill="#D68B40" transform="matrix(1.00, 0.00, -0.00, -1.00, 690.8, 242.2)">;</text><text xml:space="preserve" font-family="Menlo-Regular,Menlo" font-size="56.0" fill="#D68B40" transform="matrix(1.00, 0.00, -0.00, -1.00, 724.5, 242.2)"> </text><text xml:space="preserve" font-family="Menlo-Italic,Menlo" font-style="italic" font-size="56.0" fill="#929292" transform="matrix(1.00, 0.00, -0.00, -1.00, 758.2, 242.2)">/</text><text xml:space="preserve" font-family="Menlo-Italic,Menlo" font-style="italic" font-size="56.0" fill="#929292" transform="matrix(1.00, 0.00, -0.00, -1.00, 791.9, 242.2)">/</text><text xml:space="preserve" font-family="Menlo-Italic,Menlo" font-style="italic" font-size="56.0" fill="#929292" transform="matrix(1.00, 0.00, -0.00, -1.00, 825.7, 242.2)"> </text><text xml:space="preserve" font-family="Menlo-Italic,Menlo" font-style="italic" font-size="56.0" fill="#929292" transform="matrix(1.00, 0.00, -0.00, -1.00, 859.4, 242.2)">o</text><text xml:space="preserve" font-family="Menlo-Italic,Menlo" font-style="italic" font-size="56.0" fill="#929292" transform="matrix(1.00, 0.00, -0.00, -1.00, 893.1, 242.2)">k</text><text xml:space="preserve" font-family="Menlo-Italic,Menlo" font-style="italic" font-size="56.0" fill="#929292" transform="matrix(1.00, 0.00, -0.00, -1.00, 926.8, 242.2)">a</text><text xml:space="preserve" font-family="Menlo-Italic,Menlo" font-style="italic" font-size="56.0" fill="#929292" transform="matrix(1.00, 0.00, -0.00, -1.00, 960.5, 242.2)">y</text><text xml:space="preserve" font-family="Menlo-Italic,Menlo" font-style="italic" font-size="56.0" fill="#929292" transform="matrix(1.00, 0.00, -0.00, -1.00, 994.3, 242.2)">,</text><text xml:space="preserve" font-family="Menlo-Italic,Menlo" font-style="italic" font-size="56.0" fill="#929292" transform="matrix(1.00, 0.00, -0.00, -1.00, 1028.0, 242.2)"> </text><text xml:space="preserve" font-family="Menlo-Italic,Menlo" font-style="italic" font-size="56.0" fill="#929292" transform="matrix(1.00, 0.00, -0.00, -1.00, 1061.7, 242.2)">d</text><text xml:space="preserve" font-family="Menlo-Italic,Menlo" font-style="italic" font-size="56.0" fill="#929292" transform="matrix(1.00, 0.00, -0.00, -1.00, 1095.4, 242.2)">e</text><text xml:space="preserve" font-family="Menlo-Italic,Menlo" font-style="italic" font-size="56.0" fill="#929292" transform="matrix(1.00, 0.00, -0.00, -1.00, 1129.1, 242.2)">f</text><text xml:space="preserve" font-family="Menlo-Italic,Menlo" font-style="italic" font-size="56.0" fill="#929292" transform="matrix(1.00, 0.00, -0.00, -1.00, 1162.9, 242.2)">i</text><text xml:space="preserve" font-family="Menlo-Italic,Menlo" font-style="italic" font-size="56.0" fill="#929292" transform="matrix(1.00, 0.00, -0.00, -1.00, 1196.6, 242.2)">n</text><text xml:space="preserve" font-family="Menlo-Italic,Menlo" font-style="italic" font-size="56.0" fill="#929292" transform="matrix(1.00, 0.00, -0.00, -1.00, 1230.3, 242.2)">i</text><text xml:space="preserve" font-family="Menlo-Italic,Menlo" font-style="italic" font-size="56.0" fill="#929292" transform="matrix(1.00, 0.00, -0.00, -1.00, 1264.0, 242.2)">t</text><text xml:space="preserve" font-family="Menlo-Italic,Menlo" font-style="italic" font-size="56.0" fill="#929292" transform="matrix(1.00, 0.00, -0.00, -1.00, 1297.7, 242.2)">e</text><text xml:space="preserve" font-family="Menlo-Italic,Menlo" font-style="italic" font-size="56.0" fill="#929292" transform="matrix(1.00, 0.00, -0.00, -1.00, 1331.5, 242.2)">l</text><text xml:space="preserve" font-family="Menlo-Italic,Menlo" font-style="italic" font-size="56.0" fill="#929292" transform="matrix(1.00, 0.00, -0.00, -1.00, 1365.2, 242.2)">y</text><text xml:space="preserve" font-family="Menlo-Italic,Menlo" font-style="italic" font-size="56.0" fill="#929292" transform="matrix(1.00, 0.00, -0.00, -1.00, 1398.9, 242.2)"> </text><text xml:space="preserve" font-family="Menlo-Italic,Menlo" font-style="italic" font-size="56.0" fill="#929292" transform="matrix(1.00, 0.00, -0.00, -1.00, 1432.6, 242.2)">a</text><text xml:space="preserve" font-family="Menlo-Italic,Menlo" font-style="italic" font-size="56.0" fill="#929292" transform="matrix(1.00, 0.00, -0.00, -1.00, 1466.3, 242.2)"> </text><text xml:space="preserve" font-family="Menlo-Italic,Menlo" font-style="italic" font-size="56.0" fill="#929292" transform="matrix(1.00, 0.00, -0.00, -1.00, 1500.1, 242.2)">b</text><text xml:space="preserve" font-family="Menlo-Italic,Menlo" font-style="italic" font-size="56.0" fill="#929292" transform="matrix(1.00, 0.00, -0.00, -1.00, 1533.8, 242.2)">o</text><text xml:space="preserve" font-family="Menlo-Italic,Menlo" font-style="italic" font-size="56.0" fill="#929292" transform="matrix(1.00, 0.00, -0.00, -1.00, 1567.5, 242.2)">o</text><text xml:space="preserve" font-family="Menlo-Italic,Menlo" font-style="italic" font-size="56.0" fill="#929292" transform="matrix(1.00, 0.00, -0.00, -1.00, 1601.2, 242.2)">l</text><text xml:space="preserve" font-family="Menlo-Italic,Menlo" font-style="italic" font-size="56.0" fill="#929292" transform="matrix(1.00, 0.00, -0.00, -1.00, 1634.9, 242.2)">e</text><text xml:space="preserve" font-family="Menlo-Italic,Menlo" font-style="italic" font-size="56.0" fill="#929292" transform="matrix(1.00, 0.00, -0.00, -1.00, 1668.7, 242.2)">a</text><text xml:space="preserve" font-family="Menlo-Italic,Menlo" font-style="italic" font-size="56.0" fill="#929292" transform="matrix(1.00, 0.00, -0.00, -1.00, 1702.4, 242.2)">n</text><text xml:space="preserve" font-family="Monaco,Monaco" font-size="56.0" fill="#929292" transform="matrix(1.00, 0.00, -0.00, -1.00, 1735.9, 242.2)"> </text><text xml:space="preserve" font-family="Monaco,Monaco" font-size="56.0" fill="#929292" transform="matrix(1.00, 0.00, -0.00, -1.00, 185.1, 177.2)"> </text><text xml:space="preserve" font-family="Menlo-Bold,Menlo" font-weight="bold" font-size="56.0" fill="#011892" transform="matrix(1.00, 0.00, -0.00, -1.00, 185.1, 112.2)">v</text><text xml:space="preserve" font-family="Menlo-Bold,Menlo" font-weight="bold" font-size="56.0" fill="#011892" transform="matrix(1.00, 0.00, -0.00, -1.00, 218.8, 112.2)">a</text><text xml:space="preserve" font-family="Menlo-Bold,Menlo" font-weight="bold" font-size="56.0" fill="#011892" transform="matrix(1.00, 0.00, -0.00, -1.00, 252.5, 112.2)">r</text><text xml:space="preserve" font-family="Menlo-Bold,Menlo" font-weight="bold" font-size="56.0" fill="#011892" transform="matrix(1.00, 0.00, -0.00, -1.00, 286.2, 112.2)"> </text><text xml:space="preserve" font-family="Menlo-BoldItalic,Menlo" font-style="italic" font-weight="bold" font-size="56.0" fill="#7A238C" transform="matrix(1.00, 0.00, -0.00, -1.00, 319.9, 112.2)">a</text><text xml:space="preserve" font-family="Menlo-BoldItalic,Menlo" font-style="italic" font-weight="bold" font-size="56.0" fill="#7A238C" transform="matrix(1.00, 0.00, -0.00, -1.00, 353.6, 112.2)">r</text><text xml:space="preserve" font-family="Menlo-BoldItalic,Menlo" font-style="italic" font-weight="bold" font-size="56.0" fill="#7A238C" transform="matrix(1.00, 0.00, -0.00, -1.00, 387.4, 112.2)">r</text><text xml:space="preserve" font-family="Menlo-BoldItalic,Menlo" font-style="italic" font-weight="bold" font-size="56.0" fill="#7A238C" transform="matrix(1.00, 0.00, -0.00, -1.00, 421.1, 112.2)">a</text><text xml:space="preserve" font-family="Menlo-BoldItalic,Menlo" font-style="italic" font-weight="bold" font-size="56.0" fill="#7A238C" transform="matrix(1.00, 0.00, -0.00, -1.00, 454.8, 112.2)">y</text><text xml:space="preserve" font-family="Menlo-Regular,Menlo" font-size="56.0" fill="#000000" transform="matrix(1.00, 0.00, -0.00, -1.00, 488.5, 112.2)">:</text><text xml:space="preserve" font-family="Menlo-Regular,Menlo" font-size="56.0" fill="#000000" transform="matrix(1.00, 0.00, -0.00, -1.00, 522.2, 112.2)"> </text><text xml:space="preserve" font-family="Menlo-Bold,Menlo" font-weight="bold" font-size="56.0" fill="#011892" transform="matrix(1.00, 0.00, -0.00, -1.00, 555.9, 112.2)">a</text><text xml:space="preserve" font-family="Menlo-Bold,Menlo" font-weight="bold" font-size="56.0" fill="#011892" transform="matrix(1.00, 0.00, -0.00, -1.00, 589.6, 112.2)">n</text><text xml:space="preserve" font-family="Menlo-Bold,Menlo" font-weight="bold" font-size="56.0" fill="#011892" transform="matrix(1.00, 0.00, -0.00, -1.00, 623.4, 112.2)">y</text><text xml:space="preserve" font-family="Menlo-Regular,Menlo" font-size="56.0" fill="#000000" transform="matrix(1.00, 0.00, -0.00, -1.00, 657.1, 112.2)">[</text><text xml:space="preserve" font-family="Menlo-Regular,Menlo" font-size="56.0" fill="#000000" transform="matrix(1.00, 0.00, -0.00, -1.00, 690.8, 112.2)">]</text><text xml:space="preserve" font-family="Menlo-Regular,Menlo" font-size="56.0" fill="#000000" transform="matrix(1.00, 0.00, -0.00, -1.00, 724.5, 112.2)"> </text><text xml:space="preserve" font-family="Menlo-Regular,Menlo" font-size="56.0" fill="#000000" transform="matrix(1.00, 0.00, -0.00, -1.00, 758.2, 112.2)">=</text><text xml:space="preserve" font-family="Menlo-Regular,Menlo" font-size="56.0" fill="#000000" transform="matrix(1.00, 0.00, -0.00, -1.00, 791.9, 112.2)"> </text><text xml:space="preserve" font-family="Menlo-Regular,Menlo" font-size="56.0" fill="#000000" transform="matrix(1.00, 0.00, -0.00, -1.00, 825.7, 112.2)">[</text><text xml:space="preserve" font-family="Menlo-Regular,Menlo" font-size="56.0" fill="#0432FF" transform="matrix(1.00, 0.00, -0.00, -1.00, 859.4, 112.2)">1</text><text xml:space="preserve" font-family="Menlo-Regular,Menlo" font-size="56.0" fill="#D68B40" transform="matrix(1.00, 0.00, -0.00, -1.00, 893.1, 112.2)">,</text><text xml:space="preserve" font-family="Menlo-Regular,Menlo" font-size="56.0" fill="#D68B40" transform="matrix(1.00, 0.00, -0.00, -1.00, 926.8, 112.2)"> </text><text xml:space="preserve" font-family="Menlo-Bold,Menlo" font-weight="bold" font-size="56.0" fill="#008E00" transform="matrix(1.00, 0.00, -0.00, -1.00, 960.5, 112.2)">'</text><text xml:space="preserve" font-family="Menlo-Bold,Menlo" font-weight="bold" font-size="56.0" fill="#008E00" transform="matrix(1.00, 0.00, -0.00, -1.00, 994.2, 112.2)">2</text><text xml:space="preserve" font-family="Menlo-Bold,Menlo" font-weight="bold" font-size="56.0" fill="#008E00" transform="matrix(1.00, 0.00, -0.00, -1.00, 1027.9, 112.2)">'</text><text xml:space="preserve" font-family="Menlo-Regular,Menlo" font-size="56.0" fill="#D68B40" transform="matrix(1.00, 0.00, -0.00, -1.00, 1061.6, 112.2)">,</text><text xml:space="preserve" font-family="Menlo-Regular,Menlo" font-size="56.0" fill="#D68B40" transform="matrix(1.00, 0.00, -0.00, -1.00, 1095.4, 112.2)"> </text><text xml:space="preserve" font-family="Menlo-Regular,Menlo" font-size="56.0" fill="#0432FF" transform="matrix(1.00, 0.00, -0.00, -1.00, 1129.1, 112.2)">3</text><text xml:space="preserve" font-family="Menlo-Regular,Menlo" font-size="56.0" fill="#000000" transform="matrix(1.00, 0.00, -0.00, -1.00, 1162.8, 112.2)">]</text><text xml:space="preserve" font-family="Menlo-Regular,Menlo" font-size="56.0" fill="#D68B40" transform="matrix(1.00, 0.00, -0.00, -1.00, 1196.5, 112.2)">;</text></g></g></g></svg>