<?xml version="1.0" encoding="UTF-8" standalone="no"?><svg xmlns="http://www.w3.org/2000/svg" xmlns:xlink="http://www.w3.org/1999/xlink" clip-rule="evenodd" stroke-miterlimit="10" viewBox="0 0 1920 1080"><desc>SVG generated by Keynote</desc><defs></defs><g transform="matrix(1.00, 0.00, -0.00, -1.00, 0.0, 1080.0)"><path d="M 0.0 1080.0 L 1920.0 1080.0 L 1920.0 0.0 L 0.0 0.0 Z M 0.0 1080.0 " fill="#FEFFFF"></path><text xml:space="preserve" font-family="Helvetica-Light,Helvetica" font-size="112.0" fill="#000000" transform="matrix(1.00, 0.00, -0.00, -1.00, 560.6, 873.8)">I</text><text xml:space="preserve" font-family="Helvetica-Light,Helvetica" font-size="112.0" fill="#000000" transform="matrix(1.00, 0.00, -0.00, -1.00, 591.7, 873.8)">n</text><text xml:space="preserve" font-family="Helvetica-Light,Helvetica" font-size="112.0" fill="#000000" transform="matrix(1.00, 0.00, -0.00, -1.00, 654.0, 873.8)">l</text><text xml:space="preserve" font-family="Helvetica-Light,Helvetica" font-size="112.0" fill="#000000" transform="matrix(1.00, 0.00, -0.00, -1.00, 678.8, 873.8)">i</text><text xml:space="preserve" font-family="Helvetica-Light,Helvetica" font-size="112.0" fill="#000000" transform="matrix(1.00, 0.00, -0.00, -1.00, 703.7, 873.8)">n</text><text xml:space="preserve" font-family="Helvetica-Light,Helvetica" font-size="112.0" fill="#000000" transform="matrix(1.00, 0.00, -0.00, -1.00, 766.0, 873.8)">e</text><text xml:space="preserve" font-family="Helvetica-Light,Helvetica" font-size="112.0" fill="#000000" transform="matrix(1.00, 0.00, -0.00, -1.00, 828.2, 873.8)"> </text><text xml:space="preserve" font-family="Helvetica-Light,Helvetica" font-size="112.0" fill="#000000" transform="matrix(1.00, 0.00, -0.00, -1.00, 859.4, 873.8)">I</text><text xml:space="preserve" font-family="Helvetica-Light,Helvetica" font-size="112.0" fill="#000000" transform="matrix(1.00, 0.00, -0.00, -1.00, 890.5, 873.8)">n</text><text xml:space="preserve" font-family="Helvetica-Light,Helvetica" font-size="112.0" fill="#000000" transform="matrix(1.00, 0.00, -0.00, -1.00, 952.8, 873.8)">t</text><text xml:space="preserve" font-family="Helvetica-Light,Helvetica" font-size="112.0" fill="#000000" transform="matrix(1.00, 0.00, -0.00, -1.00, 983.9, 873.8)">e</text><text xml:space="preserve" font-family="Helvetica-Light,Helvetica" font-size="112.0" fill="#000000" transform="matrix(1.00, 0.00, -0.00, -1.00, 1046.2, 873.8)">r</text><text xml:space="preserve" font-family="Helvetica-Light,Helvetica" font-size="112.0" fill="#000000" transform="matrix(1.00, 0.00, -0.00, -1.00, 1085.5, 873.8)">f</text><text xml:space="preserve" font-family="Helvetica-Light,Helvetica" font-size="112.0" fill="#000000" transform="matrix(1.00, 0.00, -0.00, -1.00, 1116.6, 873.8)">a</text><text xml:space="preserve" font-family="Helvetica-Light,Helvetica" font-size="112.0" fill="#000000" transform="matrix(1.00, 0.00, -0.00, -1.00, 1178.9, 873.8)">c</text><text xml:space="preserve" font-family="Helvetica-Light,Helvetica" font-size="112.0" fill="#000000" transform="matrix(1.00, 0.00, -0.00, -1.00, 1241.2, 873.8)">e</text><text xml:space="preserve" font-family="Helvetica-Light,Helvetica" font-size="112.0" fill="#000000" transform="matrix(1.00, 0.00, -0.00, -1.00, 1303.4, 873.8)">s</text><path d="M 49.2 429.5 L 82.9 429.5 L 82.9 364.5 L 49.2 364.5 Z M 49.2 429.5 " fill="#E9EAFF"></path><text xml:space="preserve" font-family="Menlo-Bold,Menlo" font-weight="bold" font-size="56.0" fill="#011892" transform="matrix(1.00, 0.00, -0.00, -1.00, 49.2, 507.7)">f</text><text xml:space="preserve" font-family="Menlo-Bold,Menlo" font-weight="bold" font-size="56.0" fill="#011892" transform="matrix(1.00, 0.00, -0.00, -1.00, 82.9, 507.7)">u</text><text xml:space="preserve" font-family="Menlo-Bold,Menlo" font-weight="bold" font-size="56.0" fill="#011892" transform="matrix(1.00, 0.00, -0.00, -1.00, 116.6, 507.7)">n</text><text xml:space="preserve" font-family="Menlo-Bold,Menlo" font-weight="bold" font-size="56.0" fill="#011892" transform="matrix(1.00, 0.00, -0.00, -1.00, 150.4, 507.7)">c</text><text xml:space="preserve" font-family="Menlo-Bold,Menlo" font-weight="bold" font-size="56.0" fill="#011892" transform="matrix(1.00, 0.00, -0.00, -1.00, 184.1, 507.7)">t</text><text xml:space="preserve" font-family="Menlo-Bold,Menlo" font-weight="bold" font-size="56.0" fill="#011892" transform="matrix(1.00, 0.00, -0.00, -1.00, 217.8, 507.7)">i</text><text xml:space="preserve" font-family="Menlo-Bold,Menlo" font-weight="bold" font-size="56.0" fill="#011892" transform="matrix(1.00, 0.00, -0.00, -1.00, 251.5, 507.7)">o</text><text xml:space="preserve" font-family="Menlo-Bold,Menlo" font-weight="bold" font-size="56.0" fill="#011892" transform="matrix(1.00, 0.00, -0.00, -1.00, 285.2, 507.7)">n</text><text xml:space="preserve" font-family="Menlo-Bold,Menlo" font-weight="bold" font-size="56.0" fill="#011892" transform="matrix(1.00, 0.00, -0.00, -1.00, 319.0, 507.7)"> </text><text xml:space="preserve" font-family="Menlo-Italic,Menlo" font-style="italic" font-size="56.0" fill="#000000" transform="matrix(1.00, 0.00, -0.00, -1.00, 352.6, 507.7)">p</text><text xml:space="preserve" font-family="Menlo-Italic,Menlo" font-style="italic" font-size="56.0" fill="#000000" transform="matrix(1.00, 0.00, -0.00, -1.00, 386.4, 507.7)">r</text><text xml:space="preserve" font-family="Menlo-Italic,Menlo" font-style="italic" font-size="56.0" fill="#000000" transform="matrix(1.00, 0.00, -0.00, -1.00, 420.1, 507.7)">i</text><text xml:space="preserve" font-family="Menlo-Italic,Menlo" font-style="italic" font-size="56.0" fill="#000000" transform="matrix(1.00, 0.00, -0.00, -1.00, 453.8, 507.7)">n</text><text xml:space="preserve" font-family="Menlo-Italic,Menlo" font-style="italic" font-size="56.0" fill="#000000" transform="matrix(1.00, 0.00, -0.00, -1.00, 487.5, 507.7)">t</text><text xml:space="preserve" font-family="Menlo-Italic,Menlo" font-style="italic" font-size="56.0" fill="#000000" transform="matrix(1.00, 0.00, -0.00, -1.00, 521.2, 507.7)">L</text><text xml:space="preserve" font-family="Menlo-Italic,Menlo" font-style="italic" font-size="56.0" fill="#000000" transform="matrix(1.00, 0.00, -0.00, -1.00, 555.0, 507.7)">a</text><text xml:space="preserve" font-family="Menlo-Italic,Menlo" font-style="italic" font-size="56.0" fill="#000000" transform="matrix(1.00, 0.00, -0.00, -1.00, 588.7, 507.7)">b</text><text xml:space="preserve" font-family="Menlo-Italic,Menlo" font-style="italic" font-size="56.0" fill="#000000" transform="matrix(1.00, 0.00, -0.00, -1.00, 622.4, 507.7)">e</text><text xml:space="preserve" font-family="Menlo-Italic,Menlo" font-style="italic" font-size="56.0" fill="#000000" transform="matrix(1.00, 0.00, -0.00, -1.00, 656.1, 507.7)">l</text><text xml:space="preserve" font-family="Menlo-Regular,Menlo" font-size="56.0" fill="#000000" transform="matrix(1.00, 0.00, -0.00, -1.00, 689.8, 507.7)">(</text><text xml:space="preserve" font-family="Menlo-Regular,Menlo" font-size="56.0" fill="#000000" transform="matrix(1.00, 0.00, -0.00, -1.00, 723.5, 507.7)">l</text><text xml:space="preserve" font-family="Menlo-Regular,Menlo" font-size="56.0" fill="#000000" transform="matrix(1.00, 0.00, -0.00, -1.00, 757.2, 507.7)">a</text><text xml:space="preserve" font-family="Menlo-Regular,Menlo" font-size="56.0" fill="#000000" transform="matrix(1.00, 0.00, -0.00, -1.00, 790.9, 507.7)">b</text><text xml:space="preserve" font-family="Menlo-Regular,Menlo" font-size="56.0" fill="#000000" transform="matrix(1.00, 0.00, -0.00, -1.00, 824.7, 507.7)">e</text><text xml:space="preserve" font-family="Menlo-Regular,Menlo" font-size="56.0" fill="#000000" transform="matrix(1.00, 0.00, -0.00, -1.00, 858.4, 507.7)">l</text><text xml:space="preserve" font-family="Menlo-Regular,Menlo" font-size="56.0" fill="#000000" transform="matrix(1.00, 0.00, -0.00, -1.00, 892.1, 507.7)">l</text><text xml:space="preserve" font-family="Menlo-Regular,Menlo" font-size="56.0" fill="#000000" transform="matrix(1.00, 0.00, -0.00, -1.00, 925.8, 507.7)">e</text><text xml:space="preserve" font-family="Menlo-Regular,Menlo" font-size="56.0" fill="#000000" transform="matrix(1.00, 0.00, -0.00, -1.00, 959.5, 507.7)">d</text><text xml:space="preserve" font-family="Menlo-Regular,Menlo" font-size="56.0" fill="#000000" transform="matrix(1.00, 0.00, -0.00, -1.00, 993.3, 507.7)">O</text><text xml:space="preserve" font-family="Menlo-Regular,Menlo" font-size="56.0" fill="#000000" transform="matrix(1.00, 0.00, -0.00, -1.00, 1027.0, 507.7)">b</text><text xml:space="preserve" font-family="Menlo-Regular,Menlo" font-size="56.0" fill="#000000" transform="matrix(1.00, 0.00, -0.00, -1.00, 1060.7, 507.7)">j</text><text xml:space="preserve" font-family="Menlo-Regular,Menlo" font-size="56.0" fill="#000000" transform="matrix(1.00, 0.00, -0.00, -1.00, 1094.4, 507.7)">:</text><text xml:space="preserve" font-family="Menlo-Regular,Menlo" font-size="56.0" fill="#000000" transform="matrix(1.00, 0.00, -0.00, -1.00, 1128.1, 507.7)"> </text><text xml:space="preserve" font-family="Menlo-Regular,Menlo" font-size="56.0" fill="#000000" transform="matrix(1.00, 0.00, -0.00, -1.00, 1161.9, 507.7)">{</text><text xml:space="preserve" font-family="Menlo-Bold,Menlo" font-weight="bold" font-size="56.0" fill="#7A238C" transform="matrix(1.00, 0.00, -0.00, -1.00, 1195.5, 507.7)">l</text><text xml:space="preserve" font-family="Menlo-Bold,Menlo" font-weight="bold" font-size="56.0" fill="#7A238C" transform="matrix(1.00, 0.00, -0.00, -1.00, 1229.2, 507.7)">a</text><text xml:space="preserve" font-family="Menlo-Bold,Menlo" font-weight="bold" font-size="56.0" fill="#7A238C" transform="matrix(1.00, 0.00, -0.00, -1.00, 1262.9, 507.7)">b</text><text xml:space="preserve" font-family="Menlo-Bold,Menlo" font-weight="bold" font-size="56.0" fill="#7A238C" transform="matrix(1.00, 0.00, -0.00, -1.00, 1296.7, 507.7)">e</text><text xml:space="preserve" font-family="Menlo-Bold,Menlo" font-weight="bold" font-size="56.0" fill="#7A238C" transform="matrix(1.00, 0.00, -0.00, -1.00, 1330.4, 507.7)">l</text><text xml:space="preserve" font-family="Menlo-Regular,Menlo" font-size="56.0" fill="#000000" transform="matrix(1.00, 0.00, -0.00, -1.00, 1364.1, 507.7)">:</text><text xml:space="preserve" font-family="Menlo-Regular,Menlo" font-size="56.0" fill="#000000" transform="matrix(1.00, 0.00, -0.00, -1.00, 1397.8, 507.7)"> </text><text xml:space="preserve" font-family="Menlo-Bold,Menlo" font-weight="bold" font-size="56.0" fill="#011892" transform="matrix(1.00, 0.00, -0.00, -1.00, 1431.5, 507.7)">s</text><text xml:space="preserve" font-family="Menlo-Bold,Menlo" font-weight="bold" font-size="56.0" fill="#011892" transform="matrix(1.00, 0.00, -0.00, -1.00, 1465.2, 507.7)">t</text><text xml:space="preserve" font-family="Menlo-Bold,Menlo" font-weight="bold" font-size="56.0" fill="#011892" transform="matrix(1.00, 0.00, -0.00, -1.00, 1498.9, 507.7)">r</text><text xml:space="preserve" font-family="Menlo-Bold,Menlo" font-weight="bold" font-size="56.0" fill="#011892" transform="matrix(1.00, 0.00, -0.00, -1.00, 1532.7, 507.7)">i</text><text xml:space="preserve" font-family="Menlo-Bold,Menlo" font-weight="bold" font-size="56.0" fill="#011892" transform="matrix(1.00, 0.00, -0.00, -1.00, 1566.4, 507.7)">n</text><text xml:space="preserve" font-family="Menlo-Bold,Menlo" font-weight="bold" font-size="56.0" fill="#011892" transform="matrix(1.00, 0.00, -0.00, -1.00, 1600.1, 507.7)">g</text><text xml:space="preserve" font-family="Menlo-Regular,Menlo" font-size="56.0" fill="#000000" transform="matrix(1.00, 0.00, -0.00, -1.00, 1633.8, 507.7)">}</text><text xml:space="preserve" font-family="Menlo-Regular,Menlo" font-size="56.0" fill="#000000" transform="matrix(1.00, 0.00, -0.00, -1.00, 1667.5, 507.7)">)</text><text xml:space="preserve" font-family="Menlo-Regular,Menlo" font-size="56.0" fill="#000000" transform="matrix(1.00, 0.00, -0.00, -1.00, 1701.2, 507.7)"> </text><text xml:space="preserve" font-family="Menlo-Regular,Menlo" font-size="56.0" fill="#000000" transform="matrix(1.00, 0.00, -0.00, -1.00, 1735.0, 507.7)">{</text><text xml:space="preserve" font-family="Monaco,Monaco" font-size="56.0" fill="#000000" transform="matrix(1.00, 0.00, -0.00, -1.00, 1768.7, 507.7)"> </text><text xml:space="preserve" font-family="Menlo-Regular,Menlo" font-size="56.0" fill="#000000" transform="matrix(1.00, 0.00, -0.00, -1.00, 49.2, 442.7)"> </text><text xml:space="preserve" font-family="Menlo-Regular,Menlo" font-size="56.0" fill="#000000" transform="matrix(1.00, 0.00, -0.00, -1.00, 82.9, 442.7)"> </text><text xml:space="preserve" font-family="Menlo-Regular,Menlo" font-size="56.0" fill="#000000" transform="matrix(1.00, 0.00, -0.00, -1.00, 116.6, 442.7)"> </text><text xml:space="preserve" font-family="Menlo-Regular,Menlo" font-size="56.0" fill="#000000" transform="matrix(1.00, 0.00, -0.00, -1.00, 150.4, 442.7)"> </text><text xml:space="preserve" font-family="Menlo-BoldItalic,Menlo" font-style="italic" font-weight="bold" font-size="56.0" fill="#7A238C" transform="matrix(1.00, 0.00, -0.00, -1.00, 184.1, 442.7)">c</text><text xml:space="preserve" font-family="Menlo-BoldItalic,Menlo" font-style="italic" font-weight="bold" font-size="56.0" fill="#7A238C" transform="matrix(1.00, 0.00, -0.00, -1.00, 217.8, 442.7)">o</text><text xml:space="preserve" font-family="Menlo-BoldItalic,Menlo" font-style="italic" font-weight="bold" font-size="56.0" fill="#7A238C" transform="matrix(1.00, 0.00, -0.00, -1.00, 251.5, 442.7)">n</text><text xml:space="preserve" font-family="Menlo-BoldItalic,Menlo" font-style="italic" font-weight="bold" font-size="56.0" fill="#7A238C" transform="matrix(1.00, 0.00, -0.00, -1.00, 285.2, 442.7)">s</text><text xml:space="preserve" font-family="Menlo-BoldItalic,Menlo" font-style="italic" font-weight="bold" font-size="56.0" fill="#7A238C" transform="matrix(1.00, 0.00, -0.00, -1.00, 318.9, 442.7)">o</text><text xml:space="preserve" font-family="Menlo-BoldItalic,Menlo" font-style="italic" font-weight="bold" font-size="56.0" fill="#7A238C" transform="matrix(1.00, 0.00, -0.00, -1.00, 352.7, 442.7)">l</text><text xml:space="preserve" font-family="Menlo-BoldItalic,Menlo" font-style="italic" font-weight="bold" font-size="56.0" fill="#7A238C" transform="matrix(1.00, 0.00, -0.00, -1.00, 386.4, 442.7)">e</text><text xml:space="preserve" font-family="Menlo-Regular,Menlo" font-size="56.0" fill="#000000" transform="matrix(1.00, 0.00, -0.00, -1.00, 420.1, 442.7)">.</text><text xml:space="preserve" font-family="Menlo-Regular,Menlo" font-size="56.0" fill="#8C8B54" transform="matrix(1.00, 0.00, -0.00, -1.00, 453.8, 442.7)">l</text><text xml:space="preserve" font-family="Menlo-Regular,Menlo" font-size="56.0" fill="#8C8B54" transform="matrix(1.00, 0.00, -0.00, -1.00, 487.5, 442.7)">o</text><text xml:space="preserve" font-family="Menlo-Regular,Menlo" font-size="56.0" fill="#8C8B54" transform="matrix(1.00, 0.00, -0.00, -1.00, 521.2, 442.7)">g</text><text xml:space="preserve" font-family="Menlo-Regular,Menlo" font-size="56.0" fill="#000000" transform="matrix(1.00, 0.00, -0.00, -1.00, 554.9, 442.7)">(</text><text xml:space="preserve" font-family="Menlo-Regular,Menlo" font-size="56.0" fill="#000000" transform="matrix(1.00, 0.00, -0.00, -1.00, 588.6, 442.7)">l</text><text xml:space="preserve" font-family="Menlo-Regular,Menlo" font-size="56.0" fill="#000000" transform="matrix(1.00, 0.00, -0.00, -1.00, 622.4, 442.7)">a</text><text xml:space="preserve" font-family="Menlo-Regular,Menlo" font-size="56.0" fill="#000000" transform="matrix(1.00, 0.00, -0.00, -1.00, 656.1, 442.7)">b</text><text xml:space="preserve" font-family="Menlo-Regular,Menlo" font-size="56.0" fill="#000000" transform="matrix(1.00, 0.00, -0.00, -1.00, 689.8, 442.7)">e</text><text xml:space="preserve" font-family="Menlo-Regular,Menlo" font-size="56.0" fill="#000000" transform="matrix(1.00, 0.00, -0.00, -1.00, 723.5, 442.7)">l</text><text xml:space="preserve" font-family="Menlo-Regular,Menlo" font-size="56.0" fill="#000000" transform="matrix(1.00, 0.00, -0.00, -1.00, 757.2, 442.7)">l</text><text xml:space="preserve" font-family="Menlo-Regular,Menlo" font-size="56.0" fill="#000000" transform="matrix(1.00, 0.00, -0.00, -1.00, 791.0, 442.7)">e</text><text xml:space="preserve" font-family="Menlo-Regular,Menlo" font-size="56.0" fill="#000000" transform="matrix(1.00, 0.00, -0.00, -1.00, 824.7, 442.7)">d</text><text xml:space="preserve" font-family="Menlo-Regular,Menlo" font-size="56.0" fill="#000000" transform="matrix(1.00, 0.00, -0.00, -1.00, 858.4, 442.7)">O</text><text xml:space="preserve" font-family="Menlo-Regular,Menlo" font-size="56.0" fill="#000000" transform="matrix(1.00, 0.00, -0.00, -1.00, 892.1, 442.7)">b</text><text xml:space="preserve" font-family="Menlo-Regular,Menlo" font-size="56.0" fill="#000000" transform="matrix(1.00, 0.00, -0.00, -1.00, 925.8, 442.7)">j</text><text xml:space="preserve" font-family="Menlo-Regular,Menlo" font-size="56.0" fill="#000000" transform="matrix(1.00, 0.00, -0.00, -1.00, 959.6, 442.7)">.</text><text xml:space="preserve" font-family="Menlo-Regular,Menlo" font-size="56.0" fill="#000000" transform="matrix(1.00, 0.00, -0.00, -1.00, 993.3, 442.7)">l</text><text xml:space="preserve" font-family="Menlo-Regular,Menlo" font-size="56.0" fill="#000000" transform="matrix(1.00, 0.00, -0.00, -1.00, 1027.0, 442.7)">a</text><text xml:space="preserve" font-family="Menlo-Regular,Menlo" font-size="56.0" fill="#000000" transform="matrix(1.00, 0.00, -0.00, -1.00, 1060.7, 442.7)">b</text><text xml:space="preserve" font-family="Menlo-Regular,Menlo" font-size="56.0" fill="#000000" transform="matrix(1.00, 0.00, -0.00, -1.00, 1094.4, 442.7)">e</text><text xml:space="preserve" font-family="Menlo-Regular,Menlo" font-size="56.0" fill="#000000" transform="matrix(1.00, 0.00, -0.00, -1.00, 1128.2, 442.7)">l</text><text xml:space="preserve" font-family="Menlo-Regular,Menlo" font-size="56.0" fill="#000000" transform="matrix(1.00, 0.00, -0.00, -1.00, 1161.9, 442.7)">)</text><text xml:space="preserve" font-family="Menlo-Regular,Menlo" font-size="56.0" fill="#D68B40" transform="matrix(1.00, 0.00, -0.00, -1.00, 1195.5, 442.7)">;</text><text xml:space="preserve" font-family="Monaco,Monaco" font-size="56.0" fill="#D68B40" transform="matrix(1.00, 0.00, -0.00, -1.00, 1229.2, 442.7)"> </text><text xml:space="preserve" font-family="Menlo-Regular,Menlo" font-size="56.0" fill="#000000" transform="matrix(1.00, 0.00, -0.00, -1.00, 49.2, 377.7)">}</text></g></svg>