<?xml version="1.0" encoding="UTF-8" standalone="no"?><svg xmlns="http://www.w3.org/2000/svg" xmlns:xlink="http://www.w3.org/1999/xlink" clip-rule="evenodd" stroke-miterlimit="10" viewBox="0 0 1920 1080"><desc>SVG generated by Keynote</desc><defs></defs><g transform="matrix(1.00, 0.00, -0.00, -1.00, 0.0, 1080.0)"><path d="M 0.0 1080.0 L 1920.0 1080.0 L 1920.0 0.0 L 0.0 0.0 Z M 0.0 1080.0 " fill="#FEFFFF"></path><text xml:space="preserve" font-family="Helvetica-Light,Helvetica" font-size="112.0" fill="#000000" transform="matrix(1.00, 0.00, -0.00, -1.00, 554.4, 873.8)">C</text><text xml:space="preserve" font-family="Helvetica-Light,Helvetica" font-size="112.0" fill="#000000" transform="matrix(1.00, 0.00, -0.00, -1.00, 635.3, 873.8)">l</text><text xml:space="preserve" font-family="Helvetica-Light,Helvetica" font-size="112.0" fill="#000000" transform="matrix(1.00, 0.00, -0.00, -1.00, 660.1, 873.8)">a</text><text xml:space="preserve" font-family="Helvetica-Light,Helvetica" font-size="112.0" fill="#000000" transform="matrix(1.00, 0.00, -0.00, -1.00, 722.4, 873.8)">s</text><text xml:space="preserve" font-family="Helvetica-Light,Helvetica" font-size="112.0" fill="#000000" transform="matrix(1.00, 0.00, -0.00, -1.00, 778.4, 873.8)">s</text><text xml:space="preserve" font-family="Helvetica-Light,Helvetica" font-size="112.0" fill="#000000" transform="matrix(1.00, 0.00, -0.00, -1.00, 834.4, 873.8)"> </text><text xml:space="preserve" font-family="Helvetica-Light,Helvetica" font-size="112.0" fill="#000000" transform="matrix(1.00, 0.00, -0.00, -1.00, 865.5, 873.8)">I</text><text xml:space="preserve" font-family="Helvetica-Light,Helvetica" font-size="112.0" fill="#000000" transform="matrix(1.00, 0.00, -0.00, -1.00, 896.7, 873.8)">n</text><text xml:space="preserve" font-family="Helvetica-Light,Helvetica" font-size="112.0" fill="#000000" transform="matrix(1.00, 0.00, -0.00, -1.00, 958.9, 873.8)">t</text><text xml:space="preserve" font-family="Helvetica-Light,Helvetica" font-size="112.0" fill="#000000" transform="matrix(1.00, 0.00, -0.00, -1.00, 990.1, 873.8)">e</text><text xml:space="preserve" font-family="Helvetica-Light,Helvetica" font-size="112.0" fill="#000000" transform="matrix(1.00, 0.00, -0.00, -1.00, 1052.3, 873.8)">r</text><text xml:space="preserve" font-family="Helvetica-Light,Helvetica" font-size="112.0" fill="#000000" transform="matrix(1.00, 0.00, -0.00, -1.00, 1091.7, 873.8)">f</text><text xml:space="preserve" font-family="Helvetica-Light,Helvetica" font-size="112.0" fill="#000000" transform="matrix(1.00, 0.00, -0.00, -1.00, 1122.8, 873.8)">a</text><text xml:space="preserve" font-family="Helvetica-Light,Helvetica" font-size="112.0" fill="#000000" transform="matrix(1.00, 0.00, -0.00, -1.00, 1185.1, 873.8)">c</text><text xml:space="preserve" font-family="Helvetica-Light,Helvetica" font-size="112.0" fill="#000000" transform="matrix(1.00, 0.00, -0.00, -1.00, 1247.3, 873.8)">e</text><text xml:space="preserve" font-family="Helvetica-Light,Helvetica" font-size="112.0" fill="#000000" transform="matrix(1.00, 0.00, -0.00, -1.00, 1309.6, 873.8)">s</text><text xml:space="preserve" font-family="Menlo-Bold,Menlo" font-weight="bold" font-size="56.0" fill="#011892" transform="matrix(1.00, 0.00, -0.00, -1.00, 420.1, 637.7)">i</text><text xml:space="preserve" font-family="Menlo-Bold,Menlo" font-weight="bold" font-size="56.0" fill="#011892" transform="matrix(1.00, 0.00, -0.00, -1.00, 453.8, 637.7)">n</text><text xml:space="preserve" font-family="Menlo-Bold,Menlo" font-weight="bold" font-size="56.0" fill="#011892" transform="matrix(1.00, 0.00, -0.00, -1.00, 487.5, 637.7)">t</text><text xml:space="preserve" font-family="Menlo-Bold,Menlo" font-weight="bold" font-size="56.0" fill="#011892" transform="matrix(1.00, 0.00, -0.00, -1.00, 521.2, 637.7)">e</text><text xml:space="preserve" font-family="Menlo-Bold,Menlo" font-weight="bold" font-size="56.0" fill="#011892" transform="matrix(1.00, 0.00, -0.00, -1.00, 554.9, 637.7)">r</text><text xml:space="preserve" font-family="Menlo-Bold,Menlo" font-weight="bold" font-size="56.0" fill="#011892" transform="matrix(1.00, 0.00, -0.00, -1.00, 588.7, 637.7)">f</text><text xml:space="preserve" font-family="Menlo-Bold,Menlo" font-weight="bold" font-size="56.0" fill="#011892" transform="matrix(1.00, 0.00, -0.00, -1.00, 622.4, 637.7)">a</text><text xml:space="preserve" font-family="Menlo-Bold,Menlo" font-weight="bold" font-size="56.0" fill="#011892" transform="matrix(1.00, 0.00, -0.00, -1.00, 656.1, 637.7)">c</text><text xml:space="preserve" font-family="Menlo-Bold,Menlo" font-weight="bold" font-size="56.0" fill="#011892" transform="matrix(1.00, 0.00, -0.00, -1.00, 689.8, 637.7)">e</text><text xml:space="preserve" font-family="Menlo-Bold,Menlo" font-weight="bold" font-size="56.0" fill="#011892" transform="matrix(1.00, 0.00, -0.00, -1.00, 723.5, 637.7)"> </text><text xml:space="preserve" font-family="Menlo-Regular,Menlo" font-size="56.0" fill="#000000" transform="matrix(1.00, 0.00, -0.00, -1.00, 757.2, 637.7)">S</text><text xml:space="preserve" font-family="Menlo-Regular,Menlo" font-size="56.0" fill="#000000" transform="matrix(1.00, 0.00, -0.00, -1.00, 790.9, 637.7)">h</text><text xml:space="preserve" font-family="Menlo-Regular,Menlo" font-size="56.0" fill="#000000" transform="matrix(1.00, 0.00, -0.00, -1.00, 824.7, 637.7)">a</text><text xml:space="preserve" font-family="Menlo-Regular,Menlo" font-size="56.0" fill="#000000" transform="matrix(1.00, 0.00, -0.00, -1.00, 858.4, 637.7)">p</text><text xml:space="preserve" font-family="Menlo-Regular,Menlo" font-size="56.0" fill="#000000" transform="matrix(1.00, 0.00, -0.00, -1.00, 892.1, 637.7)">e</text><text xml:space="preserve" font-family="Menlo-Regular,Menlo" font-size="56.0" fill="#000000" transform="matrix(1.00, 0.00, -0.00, -1.00, 925.8, 637.7)"> </text><text xml:space="preserve" font-family="Menlo-Regular,Menlo" font-size="56.0" fill="#000000" transform="matrix(1.00, 0.00, -0.00, -1.00, 959.5, 637.7)">{</text><text xml:space="preserve" font-family="Monaco,Monaco" font-size="56.0" fill="#000000" transform="matrix(1.00, 0.00, -0.00, -1.00, 993.2, 637.7)"> </text><text xml:space="preserve" font-family="Menlo-Regular,Menlo" font-size="56.0" fill="#000000" transform="matrix(1.00, 0.00, -0.00, -1.00, 420.1, 572.7)"> </text><text xml:space="preserve" font-family="Menlo-Regular,Menlo" font-size="56.0" fill="#000000" transform="matrix(1.00, 0.00, -0.00, -1.00, 453.8, 572.7)"> </text><text xml:space="preserve" font-family="Menlo-Regular,Menlo" font-size="56.0" fill="#000000" transform="matrix(1.00, 0.00, -0.00, -1.00, 487.5, 572.7)"> </text><text xml:space="preserve" font-family="Menlo-Regular,Menlo" font-size="56.0" fill="#000000" transform="matrix(1.00, 0.00, -0.00, -1.00, 521.2, 572.7)"> </text><text xml:space="preserve" font-family="Menlo-Bold,Menlo" font-weight="bold" font-size="56.0" fill="#7A238C" transform="matrix(1.00, 0.00, -0.00, -1.00, 554.9, 572.7)">c</text><text xml:space="preserve" font-family="Menlo-Bold,Menlo" font-weight="bold" font-size="56.0" fill="#7A238C" transform="matrix(1.00, 0.00, -0.00, -1.00, 588.6, 572.7)">o</text><text xml:space="preserve" font-family="Menlo-Bold,Menlo" font-weight="bold" font-size="56.0" fill="#7A238C" transform="matrix(1.00, 0.00, -0.00, -1.00, 622.4, 572.7)">l</text><text xml:space="preserve" font-family="Menlo-Bold,Menlo" font-weight="bold" font-size="56.0" fill="#7A238C" transform="matrix(1.00, 0.00, -0.00, -1.00, 656.1, 572.7)">o</text><text xml:space="preserve" font-family="Menlo-Bold,Menlo" font-weight="bold" font-size="56.0" fill="#7A238C" transform="matrix(1.00, 0.00, -0.00, -1.00, 689.8, 572.7)">r</text><text xml:space="preserve" font-family="Menlo-Regular,Menlo" font-size="56.0" fill="#000000" transform="matrix(1.00, 0.00, -0.00, -1.00, 723.5, 572.7)">:</text><text xml:space="preserve" font-family="Menlo-Regular,Menlo" font-size="56.0" fill="#000000" transform="matrix(1.00, 0.00, -0.00, -1.00, 757.2, 572.7)"> </text><text xml:space="preserve" font-family="Menlo-Bold,Menlo" font-weight="bold" font-size="56.0" fill="#011892" transform="matrix(1.00, 0.00, -0.00, -1.00, 790.9, 572.7)">s</text><text xml:space="preserve" font-family="Menlo-Bold,Menlo" font-weight="bold" font-size="56.0" fill="#011892" transform="matrix(1.00, 0.00, -0.00, -1.00, 824.6, 572.7)">t</text><text xml:space="preserve" font-family="Menlo-Bold,Menlo" font-weight="bold" font-size="56.0" fill="#011892" transform="matrix(1.00, 0.00, -0.00, -1.00, 858.4, 572.7)">r</text><text xml:space="preserve" font-family="Menlo-Bold,Menlo" font-weight="bold" font-size="56.0" fill="#011892" transform="matrix(1.00, 0.00, -0.00, -1.00, 892.1, 572.7)">i</text><text xml:space="preserve" font-family="Menlo-Bold,Menlo" font-weight="bold" font-size="56.0" fill="#011892" transform="matrix(1.00, 0.00, -0.00, -1.00, 925.8, 572.7)">n</text><text xml:space="preserve" font-family="Menlo-Bold,Menlo" font-weight="bold" font-size="56.0" fill="#011892" transform="matrix(1.00, 0.00, -0.00, -1.00, 959.5, 572.7)">g</text><text xml:space="preserve" font-family="Menlo-Regular,Menlo" font-size="56.0" fill="#D68B40" transform="matrix(1.00, 0.00, -0.00, -1.00, 993.2, 572.7)">;</text><text xml:space="preserve" font-family="Monaco,Monaco" font-size="56.0" fill="#D68B40" transform="matrix(1.00, 0.00, -0.00, -1.00, 1026.9, 572.7)"> </text><text xml:space="preserve" font-family="Menlo-Regular,Menlo" font-size="56.0" fill="#000000" transform="matrix(1.00, 0.00, -0.00, -1.00, 420.1, 507.7)">}</text><text xml:space="preserve" font-family="Monaco,Monaco" font-size="56.0" fill="#000000" transform="matrix(1.00, 0.00, -0.00, -1.00, 453.8, 507.7)"> </text><text xml:space="preserve" font-family="Monaco,Monaco" font-size="56.0" fill="#000000" transform="matrix(1.00, 0.00, -0.00, -1.00, 420.1, 442.7)"> </text><text xml:space="preserve" font-family="Menlo-Bold,Menlo" font-weight="bold" font-size="56.0" fill="#011892" transform="matrix(1.00, 0.00, -0.00, -1.00, 420.1, 377.7)">i</text><text xml:space="preserve" font-family="Menlo-Bold,Menlo" font-weight="bold" font-size="56.0" fill="#011892" transform="matrix(1.00, 0.00, -0.00, -1.00, 453.8, 377.7)">n</text><text xml:space="preserve" font-family="Menlo-Bold,Menlo" font-weight="bold" font-size="56.0" fill="#011892" transform="matrix(1.00, 0.00, -0.00, -1.00, 487.5, 377.7)">t</text><text xml:space="preserve" font-family="Menlo-Bold,Menlo" font-weight="bold" font-size="56.0" fill="#011892" transform="matrix(1.00, 0.00, -0.00, -1.00, 521.2, 377.7)">e</text><text xml:space="preserve" font-family="Menlo-Bold,Menlo" font-weight="bold" font-size="56.0" fill="#011892" transform="matrix(1.00, 0.00, -0.00, -1.00, 554.9, 377.7)">r</text><text xml:space="preserve" font-family="Menlo-Bold,Menlo" font-weight="bold" font-size="56.0" fill="#011892" transform="matrix(1.00, 0.00, -0.00, -1.00, 588.7, 377.7)">f</text><text xml:space="preserve" font-family="Menlo-Bold,Menlo" font-weight="bold" font-size="56.0" fill="#011892" transform="matrix(1.00, 0.00, -0.00, -1.00, 622.4, 377.7)">a</text><text xml:space="preserve" font-family="Menlo-Bold,Menlo" font-weight="bold" font-size="56.0" fill="#011892" transform="matrix(1.00, 0.00, -0.00, -1.00, 656.1, 377.7)">c</text><text xml:space="preserve" font-family="Menlo-Bold,Menlo" font-weight="bold" font-size="56.0" fill="#011892" transform="matrix(1.00, 0.00, -0.00, -1.00, 689.8, 377.7)">e</text><text xml:space="preserve" font-family="Menlo-Bold,Menlo" font-weight="bold" font-size="56.0" fill="#011892" transform="matrix(1.00, 0.00, -0.00, -1.00, 723.5, 377.7)"> </text><text xml:space="preserve" font-family="Menlo-Regular,Menlo" font-size="56.0" fill="#000000" transform="matrix(1.00, 0.00, -0.00, -1.00, 757.2, 377.7)">S</text><text xml:space="preserve" font-family="Menlo-Regular,Menlo" font-size="56.0" fill="#000000" transform="matrix(1.00, 0.00, -0.00, -1.00, 790.9, 377.7)">q</text><text xml:space="preserve" font-family="Menlo-Regular,Menlo" font-size="56.0" fill="#000000" transform="matrix(1.00, 0.00, -0.00, -1.00, 824.7, 377.7)">u</text><text xml:space="preserve" font-family="Menlo-Regular,Menlo" font-size="56.0" fill="#000000" transform="matrix(1.00, 0.00, -0.00, -1.00, 858.4, 377.7)">a</text><text xml:space="preserve" font-family="Menlo-Regular,Menlo" font-size="56.0" fill="#000000" transform="matrix(1.00, 0.00, -0.00, -1.00, 892.1, 377.7)">r</text><text xml:space="preserve" font-family="Menlo-Regular,Menlo" font-size="56.0" fill="#000000" transform="matrix(1.00, 0.00, -0.00, -1.00, 925.8, 377.7)">e</text><text xml:space="preserve" font-family="Menlo-Regular,Menlo" font-size="56.0" fill="#000000" transform="matrix(1.00, 0.00, -0.00, -1.00, 959.5, 377.7)"> </text><text xml:space="preserve" font-family="Menlo-Bold,Menlo" font-weight="bold" font-size="56.0" fill="#011892" transform="matrix(1.00, 0.00, -0.00, -1.00, 993.2, 377.7)">e</text><text xml:space="preserve" font-family="Menlo-Bold,Menlo" font-weight="bold" font-size="56.0" fill="#011892" transform="matrix(1.00, 0.00, -0.00, -1.00, 1026.9, 377.7)">x</text><text xml:space="preserve" font-family="Menlo-Bold,Menlo" font-weight="bold" font-size="56.0" fill="#011892" transform="matrix(1.00, 0.00, -0.00, -1.00, 1060.7, 377.7)">t</text><text xml:space="preserve" font-family="Menlo-Bold,Menlo" font-weight="bold" font-size="56.0" fill="#011892" transform="matrix(1.00, 0.00, -0.00, -1.00, 1094.4, 377.7)">e</text><text xml:space="preserve" font-family="Menlo-Bold,Menlo" font-weight="bold" font-size="56.0" fill="#011892" transform="matrix(1.00, 0.00, -0.00, -1.00, 1128.1, 377.7)">n</text><text xml:space="preserve" font-family="Menlo-Bold,Menlo" font-weight="bold" font-size="56.0" fill="#011892" transform="matrix(1.00, 0.00, -0.00, -1.00, 1161.8, 377.7)">d</text><text xml:space="preserve" font-family="Menlo-Bold,Menlo" font-weight="bold" font-size="56.0" fill="#011892" transform="matrix(1.00, 0.00, -0.00, -1.00, 1195.5, 377.7)">s</text><text xml:space="preserve" font-family="Menlo-Bold,Menlo" font-weight="bold" font-size="56.0" fill="#011892" transform="matrix(1.00, 0.00, -0.00, -1.00, 1229.3, 377.7)"> </text><text xml:space="preserve" font-family="Menlo-Regular,Menlo" font-size="56.0" fill="#000000" transform="matrix(1.00, 0.00, -0.00, -1.00, 1262.9, 377.7)">S</text><text xml:space="preserve" font-family="Menlo-Regular,Menlo" font-size="56.0" fill="#000000" transform="matrix(1.00, 0.00, -0.00, -1.00, 1296.7, 377.7)">h</text><text xml:space="preserve" font-family="Menlo-Regular,Menlo" font-size="56.0" fill="#000000" transform="matrix(1.00, 0.00, -0.00, -1.00, 1330.4, 377.7)">a</text><text xml:space="preserve" font-family="Menlo-Regular,Menlo" font-size="56.0" fill="#000000" transform="matrix(1.00, 0.00, -0.00, -1.00, 1364.1, 377.7)">p</text><text xml:space="preserve" font-family="Menlo-Regular,Menlo" font-size="56.0" fill="#000000" transform="matrix(1.00, 0.00, -0.00, -1.00, 1397.8, 377.7)">e</text><text xml:space="preserve" font-family="Menlo-Regular,Menlo" font-size="56.0" fill="#000000" transform="matrix(1.00, 0.00, -0.00, -1.00, 1431.5, 377.7)"> </text><text xml:space="preserve" font-family="Menlo-Regular,Menlo" font-size="56.0" fill="#000000" transform="matrix(1.00, 0.00, -0.00, -1.00, 1465.3, 377.7)">{</text><text xml:space="preserve" font-family="Monaco,Monaco" font-size="56.0" fill="#000000" transform="matrix(1.00, 0.00, -0.00, -1.00, 1498.9, 377.7)"> </text><text xml:space="preserve" font-family="Menlo-Regular,Menlo" font-size="56.0" fill="#000000" transform="matrix(1.00, 0.00, -0.00, -1.00, 420.1, 312.7)"> </text><text xml:space="preserve" font-family="Menlo-Regular,Menlo" font-size="56.0" fill="#000000" transform="matrix(1.00, 0.00, -0.00, -1.00, 453.8, 312.7)"> </text><text xml:space="preserve" font-family="Menlo-Regular,Menlo" font-size="56.0" fill="#000000" transform="matrix(1.00, 0.00, -0.00, -1.00, 487.5, 312.7)"> </text><text xml:space="preserve" font-family="Menlo-Regular,Menlo" font-size="56.0" fill="#000000" transform="matrix(1.00, 0.00, -0.00, -1.00, 521.2, 312.7)"> </text><text xml:space="preserve" font-family="Menlo-Bold,Menlo" font-weight="bold" font-size="56.0" fill="#7A238C" transform="matrix(1.00, 0.00, -0.00, -1.00, 554.9, 312.7)">s</text><text xml:space="preserve" font-family="Menlo-Bold,Menlo" font-weight="bold" font-size="56.0" fill="#7A238C" transform="matrix(1.00, 0.00, -0.00, -1.00, 588.6, 312.7)">i</text><text xml:space="preserve" font-family="Menlo-Bold,Menlo" font-weight="bold" font-size="56.0" fill="#7A238C" transform="matrix(1.00, 0.00, -0.00, -1.00, 622.4, 312.7)">d</text><text xml:space="preserve" font-family="Menlo-Bold,Menlo" font-weight="bold" font-size="56.0" fill="#7A238C" transform="matrix(1.00, 0.00, -0.00, -1.00, 656.1, 312.7)">e</text><text xml:space="preserve" font-family="Menlo-Bold,Menlo" font-weight="bold" font-size="56.0" fill="#7A238C" transform="matrix(1.00, 0.00, -0.00, -1.00, 689.8, 312.7)">L</text><text xml:space="preserve" font-family="Menlo-Bold,Menlo" font-weight="bold" font-size="56.0" fill="#7A238C" transform="matrix(1.00, 0.00, -0.00, -1.00, 723.5, 312.7)">e</text><text xml:space="preserve" font-family="Menlo-Bold,Menlo" font-weight="bold" font-size="56.0" fill="#7A238C" transform="matrix(1.00, 0.00, -0.00, -1.00, 757.2, 312.7)">n</text><text xml:space="preserve" font-family="Menlo-Bold,Menlo" font-weight="bold" font-size="56.0" fill="#7A238C" transform="matrix(1.00, 0.00, -0.00, -1.00, 791.0, 312.7)">g</text><text xml:space="preserve" font-family="Menlo-Bold,Menlo" font-weight="bold" font-size="56.0" fill="#7A238C" transform="matrix(1.00, 0.00, -0.00, -1.00, 824.7, 312.7)">t</text><text xml:space="preserve" font-family="Menlo-Bold,Menlo" font-weight="bold" font-size="56.0" fill="#7A238C" transform="matrix(1.00, 0.00, -0.00, -1.00, 858.4, 312.7)">h</text><text xml:space="preserve" font-family="Menlo-Regular,Menlo" font-size="56.0" fill="#000000" transform="matrix(1.00, 0.00, -0.00, -1.00, 892.1, 312.7)">:</text><text xml:space="preserve" font-family="Menlo-Regular,Menlo" font-size="56.0" fill="#000000" transform="matrix(1.00, 0.00, -0.00, -1.00, 925.8, 312.7)"> </text><text xml:space="preserve" font-family="Menlo-Bold,Menlo" font-weight="bold" font-size="56.0" fill="#011892" transform="matrix(1.00, 0.00, -0.00, -1.00, 959.5, 312.7)">n</text><text xml:space="preserve" font-family="Menlo-Bold,Menlo" font-weight="bold" font-size="56.0" fill="#011892" transform="matrix(1.00, 0.00, -0.00, -1.00, 993.2, 312.7)">u</text><text xml:space="preserve" font-family="Menlo-Bold,Menlo" font-weight="bold" font-size="56.0" fill="#011892" transform="matrix(1.00, 0.00, -0.00, -1.00, 1026.9, 312.7)">m</text><text xml:space="preserve" font-family="Menlo-Bold,Menlo" font-weight="bold" font-size="56.0" fill="#011892" transform="matrix(1.00, 0.00, -0.00, -1.00, 1060.7, 312.7)">b</text><text xml:space="preserve" font-family="Menlo-Bold,Menlo" font-weight="bold" font-size="56.0" fill="#011892" transform="matrix(1.00, 0.00, -0.00, -1.00, 1094.4, 312.7)">e</text><text xml:space="preserve" font-family="Menlo-Bold,Menlo" font-weight="bold" font-size="56.0" fill="#011892" transform="matrix(1.00, 0.00, -0.00, -1.00, 1128.1, 312.7)">r</text><text xml:space="preserve" font-family="Menlo-Regular,Menlo" font-size="56.0" fill="#D68B40" transform="matrix(1.00, 0.00, -0.00, -1.00, 1161.8, 312.7)">;</text><text xml:space="preserve" font-family="Monaco,Monaco" font-size="56.0" fill="#D68B40" transform="matrix(1.00, 0.00, -0.00, -1.00, 1195.5, 312.7)"> </text><text xml:space="preserve" font-family="Menlo-Regular,Menlo" font-size="56.0" fill="#000000" transform="matrix(1.00, 0.00, -0.00, -1.00, 420.1, 247.7)">}</text></g></svg>